if (_typeface_js && _typeface_js.loadFace) _typeface_js.loadFace({"glyphs":{"0":{"ha":769,"x_min":67,"x_max":713,"o":"m 194 461 q 194 352 194 461 q 239 151 194 243 q 390 58 283 58 q 541 151 496 58 q 586 460 586 243 q 541 770 586 678 q 390 863 496 863 q 240 771 285 863 q 194 461 194 679 m 630 112 q 589 51 630 112 q 390 -10 547 -10 q 150 113 233 -10 q 67 462 67 235 q 150 810 67 689 q 390 932 233 932 q 630 811 547 932 q 713 462 713 690 q 630 112 713 233 z "},"1":{"ha":769,"x_min":182,"x_max":669,"o":"m 374 794 l 188 794 l 188 854 q 450 932 328 867 l 496 911 l 496 89 q 669 47 542 64 l 665 0 l 182 0 l 185 47 q 374 89 308 61 l 374 794 z "},"2":{"ha":769,"x_min":97,"x_max":675,"o":"m 675 103 l 675 0 l 99 0 l 99 81 q 421 435 332 301 q 510 689 510 568 q 367 863 510 863 q 264 831 301 863 q 226 749 226 799 q 256 663 226 700 q 187 632 225 632 q 123 658 149 632 q 97 738 97 685 q 174 883 97 833 q 375 932 251 932 q 569 865 499 932 q 639 676 639 799 q 549 420 639 554 q 244 103 458 286 l 675 103 z "},"3":{"ha":769,"x_min":97,"x_max":657,"o":"m 297 456 l 297 517 q 518 706 518 524 q 484 822 518 782 q 388 863 450 863 q 290 831 326 863 q 253 756 253 799 q 268 693 253 713 q 201 668 235 668 q 149 692 167 668 q 132 758 132 717 q 206 882 132 832 q 392 932 281 932 q 575 869 504 932 q 646 706 646 807 q 464 488 646 546 q 657 251 657 436 q 578 63 657 136 q 373 -10 500 -10 q 172 41 246 -10 q 97 181 97 92 q 119 237 97 215 q 176 258 142 258 q 243 235 211 258 q 232 176 232 204 q 273 90 232 122 q 384 58 314 58 q 494 110 454 58 q 535 256 535 163 q 472 402 535 349 q 297 456 410 456 z "},"4":{"ha":769,"x_min":49,"x_max":713,"o":"m 458 254 l 58 254 l 49 301 l 440 926 l 581 926 l 581 331 l 713 331 l 713 254 l 581 254 l 581 89 q 701 51 624 63 l 694 0 l 322 0 l 331 51 q 458 89 411 61 l 458 254 m 458 331 l 458 814 l 158 331 l 458 331 z "},"5":{"ha":769,"x_min":118,"x_max":688,"o":"m 190 931 q 422 928 306 928 q 607 929 539 928 l 635 910 l 624 828 l 250 828 l 250 533 q 403 563 325 563 q 610 485 532 563 q 688 279 688 408 q 603 69 688 150 q 394 -11 519 -11 q 193 40 268 -11 q 118 171 118 90 q 140 234 118 211 q 199 257 161 257 q 265 235 238 257 q 253 178 253 200 q 290 92 253 125 q 389 60 328 60 q 520 117 474 60 q 567 276 567 174 q 519 434 567 378 q 385 490 472 490 q 206 435 299 490 l 163 481 l 163 911 l 190 931 z "},"6":{"ha":769,"x_min":92,"x_max":689,"o":"m 226 483 q 426 540 315 540 q 613 465 538 540 q 689 264 689 389 q 607 63 689 139 q 386 -14 525 -14 q 92 357 92 -14 q 207 738 92 592 q 547 935 322 883 l 571 875 q 333 740 417 835 q 226 483 249 644 m 561 263 q 561 310 561 263 q 517 410 561 358 q 391 463 474 463 q 219 394 308 463 q 218 358 218 382 q 388 56 218 56 q 515 111 469 56 q 561 263 561 167 z "},"7":{"ha":769,"x_min":108,"x_max":710,"o":"m 186 675 q 165 672 178 672 q 129 675 151 672 q 119 776 129 678 q 108 907 108 874 l 128 928 q 393 926 253 926 l 685 928 l 710 868 l 317 0 l 211 0 l 597 825 l 215 825 q 186 675 190 754 z "},"8":{"ha":769,"x_min":99,"x_max":696,"o":"m 99 239 q 265 493 99 389 q 133 701 133 564 q 206 869 133 806 q 399 932 279 932 q 586 873 518 932 q 654 713 654 814 q 517 508 654 593 q 696 251 696 418 q 616 61 696 132 q 397 -10 536 -10 q 178 55 257 -10 q 99 239 99 119 m 225 247 q 272 108 225 158 q 400 58 319 58 q 526 108 481 58 q 571 234 571 158 q 525 354 571 310 q 367 447 479 399 l 335 461 q 225 247 225 389 m 393 863 q 360 863 393 863 q 290 824 328 863 q 251 724 251 785 q 291 626 251 663 q 436 546 331 590 l 446 540 q 535 714 535 604 q 497 822 535 781 q 393 863 458 863 z "},"9":{"ha":769,"x_min":79,"x_max":676,"o":"m 542 435 q 342 378 453 378 q 155 453 231 378 q 79 654 79 529 q 161 856 79 779 q 382 932 243 932 q 676 561 676 932 q 561 181 676 326 q 221 -17 446 35 l 197 43 q 435 178 351 83 q 542 435 519 274 m 207 656 q 207 608 207 656 q 251 508 207 560 q 377 456 294 456 q 549 524 460 456 q 550 560 550 536 q 381 863 550 863 q 253 807 299 863 q 207 656 207 751 z "}," ":{"ha":306,"x_min":0,"x_max":0,"o":""},"!":{"ha":397,"x_min":101,"x_max":275,"o":"m 138 282 l 140 563 q 115 897 140 789 q 199 921 144 921 q 275 817 275 921 q 246 577 275 771 q 210 294 217 383 l 138 282 m 101 71 q 101 111 101 71 q 175 151 101 151 q 249 71 249 151 q 175 -10 249 -10 q 101 71 101 -10 z "},"\"":{"ha":546,"x_min":101,"x_max":451,"o":"m 135 654 q 101 872 101 838 q 119 924 101 907 q 165 942 136 942 q 211 924 193 942 q 229 883 229 907 q 204 701 229 843 l 196 654 l 135 654 m 357 654 q 324 872 324 838 q 341 924 324 907 q 387 942 358 942 q 433 924 415 942 q 451 883 451 907 q 426 701 451 843 l 418 654 l 357 654 z "},"#":{"ha":860,"x_min":60,"x_max":782,"o":"m 419 7 l 471 242 l 299 242 l 243 -10 l 174 7 l 225 242 l 60 242 l 74 315 l 240 315 l 279 490 l 132 490 l 146 564 l 294 564 l 350 813 l 421 796 l 369 564 l 542 564 l 597 813 l 667 796 l 615 564 l 782 564 l 768 490 l 599 490 l 561 315 l 710 315 l 696 242 l 544 242 l 490 -10 l 419 7 m 353 490 l 314 315 l 488 315 l 526 490 l 353 490 z "},"$":{"ha":703,"x_min":82,"x_max":611,"o":"m 597 733 q 581 672 597 694 q 531 649 564 649 q 468 671 499 649 q 483 726 483 694 q 459 781 483 757 q 393 813 435 806 l 393 533 q 594 382 558 464 q 611 289 611 342 q 553 125 611 189 q 393 47 494 61 l 393 -81 l 385 -89 q 338 -82 363 -89 l 338 44 q 150 91 218 44 q 82 219 82 138 q 104 270 82 250 q 162 290 126 290 q 218 265 197 290 q 210 217 210 239 q 245 141 210 171 q 338 110 281 111 l 338 421 q 271 449 292 440 q 213 481 250 458 q 158 526 175 504 q 110 672 110 588 q 174 815 110 756 q 338 881 238 875 l 338 1008 l 346 1017 q 393 1011 376 1017 l 393 879 q 539 829 481 871 q 597 733 597 788 m 224 679 q 253 610 224 638 q 338 557 282 582 l 338 814 q 224 679 224 803 m 497 250 q 393 394 497 338 l 393 115 q 497 250 497 139 z "},"%":{"ha":1236,"x_min":83,"x_max":1144,"o":"m 268 -26 l 892 981 l 961 939 l 339 -68 l 268 -26 m 176 683 q 176 631 176 683 q 198 526 176 578 q 280 474 219 474 q 361 525 340 474 q 382 683 382 576 q 361 842 382 790 q 280 893 340 893 q 198 841 219 893 q 176 683 176 789 m 426 489 q 402 454 426 489 q 279 419 378 419 q 132 489 181 419 q 83 683 83 558 q 132 878 83 808 q 279 947 181 947 q 426 878 378 947 q 475 683 475 808 q 426 489 475 558 m 846 254 q 846 201 846 254 q 867 97 846 149 q 949 44 889 44 q 1031 96 1010 44 q 1051 254 1051 147 q 1031 413 1051 361 q 949 464 1010 464 q 867 412 889 464 q 846 254 846 360 m 1096 60 q 1072 25 1096 60 q 949 -10 1047 -10 q 801 60 850 -10 q 753 254 753 129 q 801 449 753 379 q 949 518 850 518 q 1096 449 1047 518 q 1144 254 1144 379 q 1096 60 1144 129 z "},"&":{"ha":954,"x_min":61,"x_max":960,"o":"m 61 272 q 253 536 61 471 q 135 719 135 589 q 208 878 135 825 q 392 931 282 931 q 573 887 503 931 q 643 767 643 843 q 622 700 643 725 q 564 675 600 675 q 503 711 528 675 q 522 768 522 742 q 394 876 522 876 q 291 835 328 876 q 254 727 254 793 q 292 617 254 661 q 411 572 329 574 l 411 506 q 249 433 310 493 q 189 271 189 372 q 255 114 189 169 q 441 58 321 58 q 647 132 561 58 q 732 349 732 206 q 700 533 732 438 q 596 465 596 528 q 624 408 596 432 q 565 382 597 382 q 513 406 532 382 q 493 465 493 429 q 714 592 493 592 q 823 608 789 592 q 857 660 857 624 q 831 719 857 696 q 889 746 857 746 q 940 724 921 746 q 960 668 960 703 q 767 535 960 539 q 807 329 807 438 q 705 78 807 167 q 430 -11 603 -11 q 159 64 257 -11 q 61 272 61 139 z "},"'":{"ha":329,"x_min":101,"x_max":229,"o":"m 135 649 q 101 867 101 832 q 119 919 101 901 q 165 936 136 936 q 211 919 193 936 q 229 878 229 901 q 204 696 229 838 l 196 649 l 135 649 z "},"(":{"ha":531,"x_min":122,"x_max":429,"o":"m 151 177 q 137 229 151 177 q 122 392 122 281 q 150 606 122 503 q 218 775 178 708 q 367 964 303 913 l 394 986 l 429 951 q 222 393 222 735 q 429 -165 222 51 l 394 -201 q 304 -112 356 -172 q 217 10 253 -53 q 151 177 181 74 z "},")":{"ha":531,"x_min":101,"x_max":408,"o":"m 101 -165 q 308 392 308 51 q 101 951 308 733 l 136 986 q 165 963 147 978 q 231 892 183 947 q 314 773 278 836 q 379 606 350 710 q 408 392 408 503 q 381 178 408 281 q 313 10 353 76 q 164 -179 231 -126 l 136 -201 l 101 -165 z "},"*":{"ha":593,"x_min":96,"x_max":500,"o":"m 267 567 q 225 540 249 540 q 186 555 201 540 q 171 590 171 569 q 185 624 171 611 q 227 658 199 638 q 276 711 256 679 q 198 690 238 707 q 141 672 158 672 q 110 687 124 672 q 96 724 96 701 q 110 760 96 746 q 141 774 124 774 q 198 756 158 774 q 278 733 238 738 q 228 784 257 763 q 185 820 200 806 q 171 855 171 835 q 186 890 171 875 q 228 904 201 904 q 263 887 254 904 q 276 826 271 869 q 297 747 282 782 q 325 861 319 794 q 372 904 328 904 q 409 890 394 904 q 424 851 424 875 q 382 796 424 826 q 318 735 340 765 q 395 756 354 739 q 453 774 436 774 q 485 760 471 774 q 500 724 500 746 q 485 687 500 701 q 453 672 471 672 q 394 690 435 672 q 317 711 353 707 q 367 660 339 681 q 410 626 396 639 q 424 591 424 613 q 408 555 424 569 q 366 540 393 540 q 332 556 339 540 q 321 615 325 571 q 297 700 317 660 q 276 619 281 663 q 267 567 272 576 z "},"+":{"ha":769,"x_min":100,"x_max":668,"o":"m 100 360 l 100 433 l 339 433 l 339 681 l 422 681 l 422 433 l 668 433 l 668 360 l 422 360 l 422 114 l 339 114 l 339 360 l 100 360 z "},",":{"ha":285,"x_min":54,"x_max":228,"o":"m 71 15 q 56 65 56 33 q 79 117 56 97 q 141 138 103 138 q 203 110 179 138 q 228 36 228 82 q 88 -187 228 -99 l 54 -147 q 99 -90 82 -124 q 115 -18 115 -56 q 88 19 115 19 q 71 15 81 19 z "},"-":{"ha":461,"x_min":72,"x_max":390,"o":"m 72 321 l 72 396 l 390 396 l 390 321 l 72 321 z "},".":{"ha":285,"x_min":68,"x_max":215,"o":"m 68 71 q 68 111 68 71 q 142 151 68 151 q 215 71 215 151 q 142 -10 215 -10 q 68 71 68 -10 z "},"/":{"ha":681,"x_min":107,"x_max":618,"o":"m 107 -156 l 542 971 l 618 942 l 183 -183 l 107 -156 z "},":":{"ha":367,"x_min":108,"x_max":256,"o":"m 108 71 q 108 111 108 71 q 182 151 108 151 q 256 71 256 151 q 182 -10 256 -10 q 108 71 108 -10 m 108 535 q 108 575 108 535 q 182 615 108 615 q 256 535 256 615 q 182 454 256 454 q 108 535 108 454 z "},";":{"ha":367,"x_min":94,"x_max":268,"o":"m 111 15 q 96 65 96 33 q 119 117 96 97 q 181 138 143 138 q 244 110 219 138 q 268 36 268 82 q 128 -187 268 -99 l 94 -147 q 139 -90 122 -124 q 156 -18 156 -56 q 128 19 156 19 q 111 15 122 19 m 108 535 q 108 575 108 535 q 182 615 108 615 q 256 535 256 615 q 182 454 256 454 q 108 535 108 454 z "},"<":{"ha":769,"x_min":89,"x_max":656,"o":"m 89 361 l 89 433 l 621 685 l 656 614 l 199 397 l 656 179 l 621 110 l 89 361 z "},"=":{"ha":769,"x_min":86,"x_max":683,"o":"m 86 260 l 86 333 l 683 333 l 683 260 l 86 260 m 86 460 l 86 532 l 683 532 l 683 460 l 86 460 z "},">":{"ha":769,"x_min":107,"x_max":674,"o":"m 674 433 l 674 361 l 142 110 l 107 179 l 564 397 l 107 614 l 142 685 l 674 433 z "},"?":{"ha":586,"x_min":33,"x_max":475,"o":"m 199 282 q 183 282 199 282 q 149 307 167 282 q 131 376 131 332 q 155 461 131 419 q 214 533 179 503 q 283 592 249 563 q 365 751 365 663 q 333 825 365 797 q 251 853 300 853 q 154 781 154 853 q 169 731 154 757 q 103 690 142 690 q 33 764 33 690 q 97 874 33 838 q 256 911 161 911 q 413 869 350 911 q 475 735 475 826 q 452 635 475 682 q 397 557 429 589 q 331 494 364 525 q 251 365 251 424 q 260 304 251 338 q 199 282 232 282 m 139 71 q 139 111 139 71 q 213 151 139 151 q 286 71 286 151 q 213 -10 286 -10 q 139 71 139 -10 z "},"@":{"ha":1229,"x_min":71,"x_max":1164,"o":"m 385 193 q 613 382 385 363 l 710 390 l 710 485 q 685 580 710 550 q 612 610 661 610 q 536 593 563 610 q 510 547 510 576 q 550 504 510 518 q 472 436 550 436 q 417 458 438 436 q 396 514 396 481 q 454 622 396 582 q 612 661 513 661 q 769 615 711 661 q 826 485 826 568 l 826 193 q 915 104 826 104 q 1007 194 974 104 q 1040 414 1040 285 q 937 717 1040 599 q 633 836 833 836 q 313 696 432 836 q 194 349 194 556 q 309 4 194 143 q 613 -135 424 -135 q 833 -82 746 -135 l 864 -131 q 613 -197 758 -197 q 217 -49 364 -197 q 71 340 71 99 q 223 739 71 582 q 626 896 375 896 q 1020 760 876 896 q 1164 414 1164 625 q 1097 144 1164 249 q 907 39 1031 39 q 722 113 756 39 q 556 44 643 44 q 385 193 385 44 m 500 204 q 578 104 500 104 q 710 175 639 104 l 710 331 l 618 324 q 532 286 564 319 q 500 204 500 253 z "},"A":{"ha":865,"x_min":18,"x_max":844,"o":"m 18 0 l 25 51 q 124 88 88 61 l 383 926 l 467 926 l 753 86 q 844 51 788 61 l 839 0 l 492 0 l 499 51 q 626 89 579 61 l 556 299 l 275 299 l 211 89 q 346 51 257 63 l 340 0 l 18 0 m 410 733 l 297 371 l 532 371 l 410 733 z "},"B":{"ha":849,"x_min":57,"x_max":781,"o":"m 424 926 q 742 696 742 926 q 579 492 742 538 q 728 405 675 464 q 781 261 781 346 q 697 70 781 140 q 461 0 613 0 l 58 0 q 65 51 60 18 q 193 89 146 61 l 193 839 q 57 876 144 867 l 64 926 l 424 926 m 315 454 l 315 74 q 461 68 397 68 q 654 260 654 68 q 597 403 654 353 q 425 454 539 454 l 315 454 m 422 863 q 315 857 388 863 l 315 522 l 426 522 q 574 564 526 522 q 621 693 621 606 q 573 822 621 781 q 422 863 525 863 z "},"C":{"ha":781,"x_min":75,"x_max":728,"o":"m 433 -10 q 163 106 250 -10 q 75 463 75 221 q 163 822 75 706 q 435 939 251 939 q 633 887 554 939 q 711 756 711 835 q 688 678 711 710 q 633 646 664 646 q 581 661 603 646 q 550 700 558 676 q 576 774 576 736 q 538 838 576 813 q 435 864 499 864 q 268 766 322 864 q 214 465 214 668 q 267 168 214 263 q 435 74 321 74 q 576 108 507 74 q 679 188 644 142 l 728 135 q 681 89 715 118 q 615 40 647 60 q 433 -10 533 -10 z "},"D":{"ha":919,"x_min":56,"x_max":846,"o":"m 361 926 q 725 815 604 926 q 846 462 846 704 q 724 110 846 219 q 353 0 603 0 l 57 0 l 64 51 q 190 88 149 63 l 190 839 q 56 876 142 865 l 63 926 l 361 926 m 381 857 l 314 857 l 314 74 q 376 68 338 68 q 625 158 543 68 q 707 463 707 247 q 626 768 707 679 q 381 857 546 857 z "},"E":{"ha":799,"x_min":43,"x_max":713,"o":"m 681 715 q 649 708 663 708 q 621 711 635 708 q 563 853 603 803 l 301 853 l 301 506 l 458 513 q 536 606 513 514 l 581 606 l 581 331 l 536 331 q 522 381 529 364 q 498 415 515 397 q 457 433 481 432 l 301 442 l 301 81 l 597 81 q 657 238 639 139 q 682 240 674 240 q 713 238 690 240 l 700 0 l 43 0 l 51 51 q 179 89 144 63 l 179 839 q 43 876 126 867 q 50 926 49 910 l 669 926 l 681 715 z "},"F":{"ha":746,"x_min":43,"x_max":681,"o":"m 681 715 q 645 708 663 708 q 621 711 628 708 q 556 853 604 797 l 301 853 l 301 494 l 458 501 q 536 596 513 503 l 581 596 l 581 321 l 536 321 l 535 329 q 457 422 513 419 l 301 431 l 301 89 q 436 51 344 63 l 431 0 l 43 0 l 51 51 q 179 89 144 63 l 179 839 q 43 876 125 867 q 50 926 49 910 l 669 926 l 681 715 z "},"G":{"ha":849,"x_min":83,"x_max":756,"o":"m 461 -10 q 170 112 257 -10 q 83 464 83 233 q 172 817 83 694 q 463 939 260 939 q 708 861 622 939 q 756 762 756 817 q 731 676 756 707 q 676 646 707 646 q 624 661 646 646 q 593 700 601 676 q 619 777 619 739 q 576 840 619 815 q 460 864 532 864 q 340 833 389 864 q 266 742 290 801 q 233 617 242 682 q 224 464 224 553 q 233 310 224 375 q 265 186 242 246 q 461 64 314 64 q 632 115 560 64 l 632 358 q 490 388 581 381 l 496 439 l 756 451 l 756 58 q 461 -10 632 -10 z "},"H":{"ha":954,"x_min":35,"x_max":918,"o":"m 668 440 l 286 440 l 286 89 q 422 51 336 61 q 415 0 417 18 l 35 0 l 43 51 q 164 89 115 61 l 164 839 q 35 876 108 868 q 42 926 40 910 l 422 926 l 414 876 q 286 839 338 867 l 286 511 l 668 511 l 668 839 q 532 876 614 867 q 539 926 538 910 l 918 926 q 911 876 913 893 q 790 839 843 868 l 790 89 q 918 51 838 61 l 913 0 l 532 0 l 540 51 q 668 89 621 61 l 668 440 z "},"I":{"ha":450,"x_min":28,"x_max":421,"o":"m 28 0 l 36 51 q 164 89 117 61 l 164 839 q 28 876 110 867 q 35 926 33 910 l 419 926 q 413 876 418 910 q 286 839 338 867 l 286 89 q 421 51 332 63 l 414 0 l 28 0 z "},"J":{"ha":426,"x_min":-11,"x_max":408,"o":"m 275 22 q 205 -170 275 -100 q 4 -275 135 -240 l -11 -233 q 108 -145 64 -199 q 153 1 153 -92 l 153 839 q 17 876 99 867 l 24 926 l 408 926 q 401 876 407 910 q 275 839 324 867 l 275 22 z "},"K":{"ha":874,"x_min":36,"x_max":857,"o":"m 36 0 l 44 51 q 171 89 125 61 l 171 839 q 36 876 119 867 q 43 926 42 910 l 431 926 l 422 876 q 294 839 346 868 l 294 89 q 431 51 344 61 q 424 0 425 18 l 36 0 m 578 836 q 492 876 578 874 l 500 926 l 826 926 l 821 876 q 694 832 736 871 l 436 508 l 739 89 q 857 53 779 60 l 849 0 l 626 0 q 604 67 624 38 l 308 483 l 569 808 q 578 836 578 825 z "},"L":{"ha":746,"x_min":67,"x_max":699,"o":"m 324 81 l 583 81 q 643 238 625 142 q 667 242 653 242 q 699 238 682 242 l 686 0 l 67 0 l 75 51 q 200 89 157 61 l 200 839 q 67 876 149 867 q 74 926 68 893 l 458 926 l 451 876 q 324 839 375 867 l 324 81 z "},"M":{"ha":1132,"x_min":-10,"x_max":1140,"o":"m 883 735 l 878 735 l 596 0 l 514 0 l 218 747 l 213 747 l 213 89 q 347 51 258 63 l 342 0 l -10 0 l -3 51 q 124 89 78 61 l 124 839 q -10 876 72 867 l -4 926 l 264 926 l 575 171 l 875 926 l 1140 926 q 1133 876 1135 893 q 1006 839 1057 868 l 1006 89 q 1140 51 1051 63 l 1135 0 l 749 0 q 756 51 754 38 q 883 89 835 61 l 883 735 z "},"N":{"ha":946,"x_min":35,"x_max":925,"o":"m 790 0 l 731 0 l 258 715 l 258 89 q 393 51 304 63 l 388 0 l 35 0 l 43 51 q 171 89 124 61 l 171 839 q 35 876 117 867 q 42 926 40 910 l 263 926 l 700 265 l 700 839 q 567 876 651 865 q 574 926 568 893 l 925 926 q 918 876 919 893 q 790 839 842 868 l 790 0 z "},"O":{"ha":907,"x_min":74,"x_max":833,"o":"m 256 183 q 329 90 279 122 q 447 58 379 58 q 559 81 515 58 q 628 138 603 103 q 669 229 654 174 q 688 338 683 285 q 693 463 693 392 q 688 588 693 533 q 669 697 683 642 q 628 789 654 753 q 454 869 569 869 q 256 744 304 869 q 214 464 214 639 q 256 183 214 292 m 74 465 q 74 580 74 465 q 162 817 74 694 q 453 939 250 939 q 745 816 657 939 q 833 463 833 693 q 745 112 833 233 q 453 -10 657 -10 q 162 113 250 -10 q 74 465 74 235 z "},"P":{"ha":789,"x_min":50,"x_max":722,"o":"m 414 926 q 722 669 722 926 q 628 466 722 525 q 353 407 533 407 l 308 407 l 308 89 q 443 51 354 63 l 438 0 l 51 0 l 60 51 q 186 89 139 61 l 186 839 q 50 876 132 867 q 57 926 56 910 l 414 926 m 597 672 q 400 868 597 868 q 308 860 356 868 l 308 469 l 353 469 q 597 672 597 469 z "},"Q":{"ha":907,"x_min":74,"x_max":833,"o":"m 74 469 q 74 582 74 469 q 162 817 74 694 q 453 939 250 939 q 745 816 657 939 q 833 476 833 693 q 763 140 833 258 q 535 -3 693 21 q 617 -119 560 -68 q 749 -194 674 -169 l 749 -203 q 735 -236 749 -224 q 422 -8 521 -200 q 155 122 236 0 q 74 469 74 243 m 256 183 q 329 90 279 122 q 447 58 379 58 q 559 81 515 58 q 628 138 603 103 q 669 229 654 174 q 688 338 683 285 q 693 463 693 392 q 688 588 693 533 q 669 697 683 642 q 628 789 654 753 q 454 869 569 869 q 256 744 304 869 q 214 464 214 639 q 256 183 214 292 z "},"R":{"ha":863,"x_min":53,"x_max":856,"o":"m 417 926 q 735 682 735 926 q 543 453 735 499 q 629 333 590 422 l 739 89 q 856 53 781 61 l 847 0 l 638 0 l 517 310 q 456 413 483 394 q 339 432 428 432 l 311 432 l 311 89 q 446 51 350 64 q 439 0 440 18 l 54 0 l 61 51 q 189 89 142 61 l 189 839 q 53 876 140 867 l 60 926 l 417 926 m 415 869 q 311 860 368 869 l 311 496 l 354 496 q 610 685 610 496 q 415 869 610 869 z "},"S":{"ha":689,"x_min":72,"x_max":642,"o":"m 533 690 q 472 828 513 788 q 359 868 432 868 q 242 830 286 868 q 197 732 197 792 q 243 626 197 672 q 354 548 289 581 q 485 480 419 515 q 596 385 550 444 q 642 244 642 325 q 556 59 642 128 q 324 -10 469 -10 q 187 13 264 -10 q 72 63 110 35 l 72 290 q 140 297 103 297 q 190 92 157 164 q 337 60 254 60 q 467 104 419 60 q 515 215 515 149 q 470 326 515 281 q 361 402 425 371 q 233 468 297 433 q 124 562 169 503 q 79 701 79 621 q 156 873 79 807 q 357 939 233 939 q 614 876 515 939 l 593 690 q 561 686 576 686 q 533 690 546 686 z "},"T":{"ha":824,"x_min":56,"x_max":768,"o":"m 117 693 l 83 692 q 56 693 65 692 l 56 932 q 476 926 239 926 q 768 932 713 926 l 768 693 q 738 692 758 692 q 707 693 718 692 q 657 853 697 793 q 474 864 567 863 l 474 89 q 610 51 522 63 q 603 0 604 18 l 217 0 l 225 51 q 351 89 307 61 l 351 864 q 169 854 244 863 q 117 693 119 785 z "},"U":{"ha":900,"x_min":-11,"x_max":910,"o":"m 775 300 q 694 71 775 151 q 448 -10 613 -10 q 203 63 283 -10 q 124 292 124 135 l 124 839 q -11 876 69 867 l -6 926 l 383 926 l 375 876 q 250 839 296 863 l 250 292 q 301 116 250 169 q 460 63 351 63 q 628 124 569 63 q 686 300 686 185 l 686 839 q 551 876 635 867 q 558 926 553 893 l 910 926 l 903 876 q 775 839 821 863 l 775 300 z "},"V":{"ha":839,"x_min":10,"x_max":828,"o":"m 828 926 l 819 876 q 733 840 772 868 l 461 0 l 394 0 l 94 839 q 10 876 65 864 l 17 926 l 353 926 l 344 876 q 225 839 272 867 l 443 213 l 642 839 q 515 876 586 868 q 522 926 521 910 l 828 926 z "},"W":{"ha":1279,"x_min":28,"x_max":1251,"o":"m 1251 926 l 1243 876 q 1160 842 1197 868 l 919 0 l 853 0 l 639 642 l 444 0 l 378 0 l 111 840 q 28 876 81 864 l 33 926 l 371 926 l 363 876 q 243 839 290 867 l 426 221 l 633 926 l 678 926 l 900 224 l 1065 839 q 939 876 1010 868 l 946 926 l 1251 926 z "},"X":{"ha":793,"x_min":-35,"x_max":829,"o":"m 364 926 l 356 876 q 244 839 288 867 l 414 572 l 581 839 q 469 876 538 864 q 476 926 471 893 l 778 926 l 771 876 q 682 840 721 869 l 465 493 l 726 85 q 829 51 760 61 q 822 0 824 18 l 453 0 q 460 51 458 38 q 579 88 543 51 l 385 393 l 194 85 q 324 51 219 51 l 318 0 l -35 0 q -28 51 -29 38 q 94 85 51 57 l 336 471 l 99 840 q 14 876 68 863 l 21 926 l 364 926 z "},"Y":{"ha":792,"x_min":15,"x_max":778,"o":"m 196 0 l 203 51 q 338 89 289 61 l 338 368 l 101 840 q 15 876 68 865 l 22 926 l 365 926 q 358 876 360 893 q 238 839 286 867 l 411 476 l 589 840 q 465 876 536 868 q 472 926 467 893 l 778 926 l 769 876 q 685 840 719 867 l 460 385 l 460 89 q 601 51 507 63 l 596 0 l 196 0 z "},"Z":{"ha":747,"x_min":53,"x_max":693,"o":"m 136 697 l 107 696 q 83 697 90 696 l 67 900 l 103 933 q 381 926 269 926 q 681 933 493 926 l 693 878 l 200 72 q 356 71 238 71 q 540 72 474 71 q 632 251 606 150 q 660 254 649 254 q 692 251 672 254 l 679 -4 q 340 0 583 0 q 57 -6 96 0 l 53 64 l 533 854 l 479 856 l 410 856 q 203 853 328 856 q 136 697 156 811 z "},"[":{"ha":486,"x_min":154,"x_max":406,"o":"m 406 -194 l 154 -194 l 154 985 l 406 985 l 406 939 l 249 925 l 249 -133 l 406 -147 l 406 -194 z "},"\\":{"ha":681,"x_min":68,"x_max":571,"o":"m 493 -174 l 68 932 l 146 961 l 571 -144 l 493 -174 z "},"]":{"ha":486,"x_min":81,"x_max":332,"o":"m 332 -194 l 81 -194 l 81 -147 l 238 -133 l 238 925 l 81 939 l 81 985 l 332 985 l 332 -194 z "},"^":{"ha":769,"x_min":97,"x_max":672,"o":"m 349 936 l 421 936 l 672 494 l 603 460 l 385 839 l 168 460 l 97 494 l 349 936 z "},"_":{"ha":515,"x_min":0,"x_max":515,"o":"m 515 -156 l 0 -156 l 0 -81 l 515 -81 l 515 -156 z "},"`":{"ha":396,"x_min":79,"x_max":289,"o":"m 114 843 q 79 895 79 874 q 94 931 79 917 q 133 946 110 946 q 174 922 156 946 l 289 761 l 256 728 l 114 843 z "},"a":{"ha":678,"x_min":61,"x_max":650,"o":"m 242 -10 q 108 32 156 -10 q 61 156 61 74 q 128 291 61 239 q 321 351 194 343 l 435 360 l 435 472 q 406 574 435 542 q 311 606 376 606 q 196 543 196 606 q 238 492 196 507 q 158 425 238 425 q 100 447 122 425 q 78 506 78 469 q 141 619 78 576 q 315 661 204 661 q 489 611 425 661 q 553 472 553 561 l 553 85 q 650 47 585 61 l 644 0 l 453 0 l 439 63 q 242 -10 361 -10 m 183 161 q 276 47 183 47 q 435 128 350 47 l 435 303 l 324 293 q 221 252 258 288 q 183 161 183 217 z "},"b":{"ha":760,"x_min":33,"x_max":686,"o":"m 414 661 q 621 572 556 661 q 686 331 686 483 q 608 84 686 178 q 386 -10 531 -10 q 225 58 299 -10 q 197 0 204 26 l 131 0 l 131 788 q 110 858 131 839 q 33 879 89 876 l 38 921 q 222 968 88 929 l 250 954 l 250 564 q 317 633 271 604 q 414 661 364 661 m 533 142 q 541 164 533 142 q 554 229 549 186 q 560 325 560 272 q 558 413 560 378 q 547 485 556 447 q 524 547 539 524 q 426 601 489 601 q 328 575 363 601 q 278 499 293 549 q 250 285 250 414 l 250 118 q 388 49 329 49 q 481 73 446 49 q 533 142 517 97 z "},"c":{"ha":613,"x_min":58,"x_max":571,"o":"m 357 661 q 512 620 453 661 q 571 514 571 579 q 549 457 571 482 q 499 432 528 432 q 451 446 471 432 q 425 482 432 460 q 443 540 443 511 q 419 590 443 568 q 351 611 396 611 q 270 589 306 611 q 217 525 235 567 q 188 358 188 453 q 193 221 188 264 q 215 138 199 178 q 358 58 249 58 q 449 75 404 58 q 514 108 493 92 l 535 124 l 571 82 q 543 57 561 72 q 467 16 525 42 q 351 -10 410 -10 q 126 76 194 -10 q 58 331 58 161 q 357 661 63 661 z "},"d":{"ha":771,"x_min":76,"x_max":724,"o":"m 331 -10 q 76 311 76 -10 q 157 572 76 482 q 390 661 238 661 q 508 638 450 661 l 508 788 q 488 858 508 839 q 413 879 467 876 l 415 919 q 600 968 463 928 l 628 954 l 628 85 q 724 47 660 60 l 719 0 l 519 0 l 508 82 q 331 -10 450 -10 m 343 50 q 508 311 508 50 l 508 575 q 386 603 456 603 q 248 526 297 603 q 199 313 199 450 q 234 113 199 176 q 343 50 269 50 z "},"e":{"ha":678,"x_min":83,"x_max":626,"o":"m 211 338 l 211 331 q 254 108 211 161 q 382 58 294 58 q 472 75 428 58 q 539 108 517 92 l 560 124 l 594 82 q 567 57 585 72 q 492 16 549 42 q 376 -10 435 -10 q 151 76 218 -10 q 83 323 83 161 q 158 573 83 485 q 372 661 232 661 q 567 589 511 661 q 626 375 622 517 l 597 338 l 211 338 m 368 606 q 211 389 215 606 l 501 399 q 473 557 501 508 q 368 606 444 606 z "},"f":{"ha":421,"x_min":26,"x_max":503,"o":"m 238 819 l 254 653 l 399 653 l 399 579 l 254 579 l 254 86 q 367 47 286 63 l 363 0 l 39 0 l 44 50 q 136 86 103 60 l 136 579 l 33 579 l 26 628 q 136 653 99 635 l 136 728 q 187 914 136 843 q 343 985 238 985 q 503 950 449 985 l 503 817 l 426 817 q 332 933 410 933 q 263 903 289 933 q 238 819 238 874 z "},"g":{"ha":686,"x_min":63,"x_max":653,"o":"m 335 660 q 490 626 431 660 q 540 677 540 642 q 501 731 540 713 q 519 765 501 751 q 567 778 536 778 q 617 758 597 778 q 636 708 636 739 q 539 588 636 621 q 590 428 590 531 q 522 265 590 325 q 335 204 453 204 l 315 204 l 257 132 q 278 103 260 111 q 346 93 297 94 l 404 93 q 592 35 532 93 q 653 -111 653 -22 q 358 -304 653 -304 q 137 -257 211 -304 q 63 -135 63 -210 q 86 -27 63 -60 q 169 39 110 6 q 139 132 139 74 l 253 213 q 126 288 171 232 q 81 428 81 344 q 335 660 81 660 m 236 301 q 251 281 236 301 q 335 261 267 261 q 433 301 403 261 q 464 432 464 342 q 433 563 464 522 q 335 604 403 604 q 236 563 267 604 q 206 432 206 522 q 236 301 206 342 m 371 -1 l 253 -1 q 190 -111 190 -42 q 358 -247 190 -247 q 525 -111 525 -247 q 371 -1 525 -1 z "},"h":{"ha":767,"x_min":33,"x_max":739,"o":"m 131 788 q 109 858 131 839 q 33 879 88 876 l 38 921 q 222 968 88 929 l 249 954 l 249 567 q 426 661 322 661 q 585 610 529 661 q 642 469 642 560 l 642 86 q 739 47 672 61 l 733 0 l 428 0 l 432 47 q 524 86 485 56 l 524 457 q 406 594 524 594 q 314 562 357 594 q 249 478 271 529 l 249 86 q 346 49 283 60 l 340 0 l 33 0 l 39 51 q 131 86 97 60 l 131 788 z "},"i":{"ha":386,"x_min":47,"x_max":360,"o":"m 144 485 q 123 555 144 536 q 47 576 101 574 l 51 617 q 235 665 104 626 l 263 650 l 263 85 q 360 47 297 60 l 354 0 l 47 0 l 53 50 q 144 85 110 60 l 144 485 m 197 911 q 233 911 197 911 q 269 831 269 911 q 197 750 269 750 q 124 831 124 750 q 197 911 124 911 z "},"j":{"ha":369,"x_min":-46,"x_max":271,"o":"m 263 -46 q 186 -279 263 -232 q 96 -300 153 -300 q -3 -274 39 -300 q -46 -193 -46 -249 q -27 -139 -46 -161 q 25 -117 -8 -117 q 75 -144 58 -117 q 54 -186 54 -161 q 68 -226 54 -211 q 106 -240 82 -240 q 161 -150 161 -240 q 153 -34 161 -104 q 144 101 144 36 l 144 485 q 123 555 144 536 q 47 576 101 574 l 51 617 q 236 665 122 629 l 263 650 l 263 -46 m 198 911 q 234 911 198 911 q 271 831 271 911 q 198 750 271 750 q 125 831 125 750 q 198 911 125 911 z "},"k":{"ha":728,"x_min":33,"x_max":729,"o":"m 131 788 q 109 858 131 839 q 33 879 88 876 l 38 921 q 222 968 88 929 l 249 954 l 249 379 l 439 571 q 485 649 475 610 l 669 649 l 674 607 q 521 547 578 603 l 393 419 l 601 88 q 729 49 651 60 l 724 0 l 525 0 l 313 339 l 249 276 l 249 86 q 346 49 283 60 l 340 0 l 33 0 l 39 51 q 131 86 97 60 l 131 788 z "},"l":{"ha":376,"x_min":32,"x_max":344,"o":"m 129 788 q 108 858 129 839 q 32 879 88 876 l 36 921 q 221 968 86 929 l 247 954 l 247 86 q 344 49 282 60 l 339 0 l 32 0 l 38 51 q 129 86 96 60 l 129 788 z "},"m":{"ha":1156,"x_min":61,"x_max":1121,"o":"m 158 482 q 138 552 158 533 q 61 574 117 571 l 65 614 q 236 661 88 618 l 261 649 l 271 576 q 440 661 344 661 q 624 575 568 661 q 810 661 718 661 q 963 610 903 661 q 1024 453 1024 560 l 1024 86 q 1121 47 1057 61 l 1115 0 l 811 0 l 814 47 q 906 86 867 56 l 906 457 q 796 594 906 594 q 713 567 751 594 q 654 501 674 539 l 654 86 q 751 47 685 61 l 746 0 l 440 0 l 444 47 q 536 86 497 56 l 536 457 q 426 594 536 594 q 335 560 378 594 q 278 486 292 526 l 278 86 q 374 47 310 61 l 368 0 l 61 0 l 67 50 q 158 86 125 60 l 158 482 z "},"n":{"ha":775,"x_min":42,"x_max":747,"o":"m 532 457 q 413 594 532 594 q 322 562 365 594 q 257 478 279 529 l 257 86 q 354 47 290 60 l 349 0 l 42 0 l 47 50 q 139 86 107 60 l 139 482 q 117 552 139 533 q 42 574 96 571 l 46 614 q 215 661 64 617 l 240 649 l 253 563 q 334 635 285 608 q 436 661 383 661 q 594 610 538 661 q 650 469 650 560 l 650 86 q 747 47 681 61 l 742 0 l 436 0 l 440 47 q 532 86 493 56 l 532 457 z "},"o":{"ha":738,"x_min":74,"x_max":663,"o":"m 238 534 q 218 502 238 534 q 199 326 199 471 q 238 118 199 182 q 368 54 278 54 q 499 118 458 54 q 540 326 540 182 q 500 534 540 471 q 369 597 460 597 q 238 534 278 597 m 148 76 q 111 119 148 76 q 74 326 74 163 q 148 576 74 490 q 368 661 222 661 q 588 576 514 661 q 663 326 663 490 q 588 76 663 163 q 368 -10 514 -10 q 148 76 222 -10 z "},"p":{"ha":772,"x_min":50,"x_max":697,"o":"m 146 483 q 125 553 146 535 q 50 575 104 572 l 54 615 q 224 663 72 618 l 249 649 l 261 564 q 443 661 318 661 q 697 339 697 661 q 617 80 697 169 q 383 -10 536 -10 q 265 13 318 -10 l 265 -207 q 361 -244 300 -233 l 357 -292 l 50 -292 l 56 -242 q 146 -207 110 -235 l 146 483 m 432 601 q 265 340 265 601 l 265 76 q 396 49 315 49 q 526 125 476 49 q 575 338 575 201 q 540 538 575 474 q 432 601 506 601 z "},"q":{"ha":760,"x_min":83,"x_max":719,"o":"m 346 -10 q 83 322 83 -10 q 153 569 83 478 q 371 661 222 661 q 526 596 454 661 l 549 649 l 622 649 l 622 -210 q 719 -247 657 -235 l 714 -294 l 407 -294 l 413 -244 q 504 -210 468 -235 l 504 82 q 346 -10 446 -10 m 230 506 q 223 482 230 506 q 212 420 215 458 q 208 321 208 382 q 213 218 208 260 q 231 133 217 176 q 347 49 257 49 q 470 126 436 49 q 504 333 504 204 l 504 532 q 375 603 436 603 q 279 578 314 603 q 230 506 244 554 z "},"r":{"ha":575,"x_min":64,"x_max":567,"o":"m 443 661 q 530 632 493 661 q 567 558 567 603 q 547 488 567 514 q 498 461 526 461 q 449 473 469 461 q 422 504 428 485 q 436 543 436 518 q 397 585 436 585 q 319 528 358 585 q 279 408 279 472 l 279 86 q 389 47 317 61 l 383 0 l 64 0 l 69 50 q 161 86 126 60 l 161 482 q 140 552 161 533 q 64 574 118 571 l 68 614 q 238 661 86 617 l 263 649 l 276 551 q 443 661 350 661 z "},"s":{"ha":597,"x_min":72,"x_max":528,"o":"m 419 457 q 388 567 414 531 q 301 604 361 604 q 210 579 242 604 q 178 511 178 554 q 214 440 178 468 q 301 395 250 413 q 404 358 353 378 q 492 295 456 338 q 528 189 528 253 q 463 44 528 96 q 279 -8 397 -8 q 167 8 231 -8 q 72 44 104 24 l 72 215 l 146 225 q 183 68 154 124 q 288 54 228 54 q 383 85 347 54 q 419 159 419 115 q 384 229 419 203 q 298 272 349 256 q 196 308 247 288 q 109 372 144 328 q 74 490 74 415 q 135 613 74 565 q 313 660 197 660 q 504 624 429 660 l 492 457 l 419 457 z "},"t":{"ha":469,"x_min":32,"x_max":463,"o":"m 463 38 q 302 -14 393 -14 q 178 25 211 -14 q 144 157 144 64 l 144 574 l 32 574 l 32 615 q 210 783 167 661 l 265 783 l 265 649 l 443 649 l 443 574 l 264 574 l 264 147 q 277 74 264 96 q 338 51 290 51 q 435 79 385 51 l 463 38 z "},"u":{"ha":767,"x_min":33,"x_max":729,"o":"m 353 -10 q 129 214 129 -10 l 129 485 q 108 555 129 536 q 33 576 88 574 l 36 617 q 221 665 83 625 l 249 651 l 249 199 q 368 53 249 53 q 444 80 404 53 q 515 163 485 107 l 515 485 q 494 555 515 536 q 418 576 472 574 l 422 617 q 607 665 469 625 l 633 651 l 633 86 q 729 49 664 60 l 725 0 l 540 0 l 526 88 q 353 -10 454 -10 z "},"v":{"ha":700,"x_min":-1,"x_max":700,"o":"m 299 0 l 97 549 q -1 607 82 590 l 1 649 l 311 649 l 307 607 q 221 576 246 599 l 368 133 l 515 576 q 432 607 486 597 l 436 649 l 700 649 l 696 607 q 603 565 613 590 l 392 0 l 299 0 z "},"w":{"ha":1075,"x_min":14,"x_max":1063,"o":"m 304 0 l 113 549 q 14 607 97 590 l 17 649 l 326 649 l 322 607 q 236 576 261 599 l 369 144 l 525 625 l 579 625 l 749 143 l 878 576 q 796 607 851 597 l 800 649 l 1063 649 l 1058 607 q 965 565 975 590 l 767 0 l 682 0 l 533 404 l 390 0 l 304 0 z "},"x":{"ha":671,"x_min":-4,"x_max":671,"o":"m -4 0 l 0 50 q 101 86 75 57 l 278 318 l 101 558 q 15 607 72 599 l 19 649 l 318 649 l 311 607 q 226 578 261 603 l 354 406 l 476 568 q 383 607 435 600 l 388 649 l 667 649 l 661 607 q 558 563 585 597 l 396 347 l 589 86 q 671 51 615 58 l 665 0 l 365 0 l 371 50 q 458 74 435 57 l 319 261 l 182 78 q 275 50 208 57 l 271 0 l -4 0 z "},"y":{"ha":700,"x_min":-10,"x_max":700,"o":"m 360 -117 q 281 -260 325 -218 q 177 -303 238 -303 q 81 -273 117 -303 q 44 -201 44 -243 q 64 -137 44 -158 q 110 -117 83 -117 q 161 -132 138 -117 q 144 -178 144 -156 q 157 -215 144 -201 q 194 -228 169 -228 q 288 -101 246 -228 l 317 -11 l 89 547 q -10 606 71 592 l -7 649 l 296 649 l 292 607 q 210 576 239 603 l 371 153 l 508 576 q 426 607 478 600 l 429 649 l 700 649 l 697 607 q 596 565 606 593 l 360 -117 z "},"z":{"ha":632,"x_min":61,"x_max":563,"o":"m 103 651 l 343 649 q 553 651 458 649 l 563 601 l 200 64 q 313 63 221 63 q 438 64 406 63 q 493 192 471 110 q 524 196 510 196 q 560 193 538 196 l 550 29 l 524 -4 q 326 0 469 0 l 72 -6 l 61 53 l 421 585 q 290 590 343 590 q 192 583 236 590 q 154 471 163 547 q 116 464 136 464 q 81 469 96 464 l 68 622 l 103 651 z "},"{":{"ha":538,"x_min":167,"x_max":440,"o":"m 199 25 q 217 146 199 54 q 235 272 235 238 q 217 332 235 307 q 183 364 200 357 l 167 371 l 167 418 q 187 427 172 418 q 211 447 201 436 q 235 513 235 475 q 217 641 235 550 q 199 763 199 732 q 271 919 199 856 q 440 983 343 983 l 440 938 q 338 885 374 932 q 301 785 301 838 q 314 667 301 733 q 326 561 326 601 q 263 394 326 449 q 326 226 326 340 q 314 120 326 186 q 301 2 301 54 q 338 -98 301 -50 q 440 -149 374 -146 l 440 -197 q 271 -133 343 -197 q 199 25 199 -68 z "},"|":{"ha":439,"x_min":175,"x_max":264,"o":"m 175 -203 l 175 1047 l 264 1047 l 264 -203 l 175 -203 z "},"}":{"ha":538,"x_min":97,"x_max":371,"o":"m 339 25 q 267 -133 339 -68 q 97 -197 194 -197 l 97 -149 q 200 -98 164 -146 q 236 2 236 -50 q 224 120 236 54 q 211 226 211 186 q 275 394 211 340 q 211 561 211 449 q 224 667 211 601 q 236 785 236 733 q 200 885 236 838 q 97 938 164 932 l 97 983 q 267 919 194 983 q 339 763 339 856 q 321 641 339 732 q 303 522 303 550 q 310 476 303 494 q 326 447 317 457 q 371 418 346 425 l 371 371 q 324 336 346 365 q 303 272 303 307 q 321 146 303 238 q 339 25 339 54 z "},"~":{"ha":989,"x_min":147,"x_max":842,"o":"m 353 475 q 513 441 397 475 q 667 407 629 407 q 813 463 736 407 q 842 436 829 453 q 765 357 814 393 q 659 321 717 321 q 483 356 601 321 q 319 390 365 390 q 176 335 250 390 q 147 364 158 344 q 353 475 243 475 z "}," ":{"ha":306,"x_min":0,"x_max":0,"o":""},"¡":{"ha":397,"x_min":89,"x_max":260,"o":"m 226 365 l 222 85 q 249 -250 222 -137 q 167 -274 219 -274 q 89 -169 89 -274 q 118 71 89 -122 q 154 353 147 264 l 226 365 m 113 596 q 113 636 113 596 q 186 676 113 676 q 260 596 260 676 q 186 515 260 515 q 113 596 113 515 z "},"¢":{"ha":613,"x_min":58,"x_max":571,"o":"m 571 513 q 549 457 571 481 q 499 433 528 433 q 451 447 471 433 q 425 481 432 460 q 442 537 442 508 q 419 585 442 565 q 361 607 396 604 l 361 114 q 450 132 407 115 q 514 164 493 149 l 535 179 l 571 138 q 544 113 561 128 q 472 72 526 97 q 361 44 417 46 l 361 -81 l 353 -89 q 306 -83 336 -89 l 306 46 q 121 134 183 57 q 58 346 58 211 q 122 560 58 481 q 306 654 185 640 l 306 781 l 314 790 q 361 783 336 790 l 361 657 q 513 615 454 656 q 571 513 571 574 m 188 347 q 306 118 188 147 l 306 601 q 212 520 236 585 q 188 347 188 456 z "},"£":{"ha":733,"x_min":21,"x_max":679,"o":"m 153 650 q 226 863 153 789 q 432 938 299 938 q 588 896 521 938 q 656 774 656 854 q 633 703 656 731 q 581 676 610 676 q 531 690 553 676 q 503 722 510 703 q 528 790 528 756 q 499 848 528 825 q 421 871 471 871 q 278 661 278 871 q 306 483 278 592 l 513 483 q 519 436 519 456 l 510 428 l 321 428 q 343 272 343 336 q 319 144 343 208 q 521 106 426 106 q 570 126 558 106 q 582 185 582 146 l 582 210 q 651 183 622 208 q 679 115 679 157 q 529 -10 679 -10 q 431 8 469 -10 q 381 32 393 26 q 292 85 351 44 q 139 -10 231 -10 q 55 15 89 -10 q 21 85 21 39 q 56 160 21 131 q 139 189 92 189 q 232 174 186 189 q 233 206 233 183 q 193 428 233 279 l 74 428 q 67 474 67 453 l 76 483 l 179 483 q 153 650 153 600 m 138 44 q 224 121 203 44 q 144 138 181 138 q 85 86 85 138 q 138 44 85 44 z "},"¤":{"ha":756,"x_min":103,"x_max":653,"o":"m 183 236 q 126 409 126 301 q 186 585 126 517 l 103 675 l 157 728 l 247 631 q 376 661 304 661 q 507 632 449 661 l 599 728 l 653 675 l 568 585 q 628 409 628 514 q 571 236 628 304 l 653 146 l 599 94 l 514 189 q 378 156 458 156 q 240 189 299 156 l 157 94 l 103 146 l 183 236 m 257 264 q 277 238 257 264 q 378 213 297 213 q 498 264 458 213 q 538 408 538 315 q 498 552 538 500 q 378 604 458 604 q 217 408 217 604 q 257 264 217 315 z "},"¥":{"ha":846,"x_min":44,"x_max":807,"o":"m 489 336 l 489 89 q 631 51 536 63 l 625 0 l 225 0 l 232 51 q 367 89 318 61 l 367 336 l 138 336 q 131 382 131 360 l 140 390 l 356 390 l 311 479 l 138 479 q 131 525 131 503 l 140 533 l 283 533 l 131 840 q 44 876 97 865 l 51 926 l 394 926 q 388 876 389 893 q 267 839 315 867 l 440 476 l 618 840 q 494 876 565 868 q 501 926 496 893 l 807 926 l 799 876 q 714 840 749 867 l 563 533 l 708 533 q 714 488 714 513 l 706 479 l 535 479 l 492 390 l 708 390 q 714 344 714 372 l 706 336 l 489 336 z "},"¦":{"ha":439,"x_min":175,"x_max":264,"o":"m 175 553 l 175 1047 l 264 1047 l 264 553 l 175 553 m 175 -203 l 175 292 l 264 292 l 264 -203 l 175 -203 z "},"§":{"ha":694,"x_min":108,"x_max":615,"o":"m 513 113 q 542 209 542 149 q 518 323 542 269 q 459 416 494 376 q 381 502 424 456 q 303 590 339 549 q 241 686 267 631 q 213 800 215 742 q 183 706 183 768 q 217 587 183 644 q 300 478 251 529 q 397 372 349 426 q 513 113 513 242 m 615 206 q 538 24 615 92 q 348 -43 461 -43 q 174 1 235 -43 q 114 121 114 46 q 135 190 114 163 q 199 218 156 218 q 268 178 242 218 q 238 103 238 147 q 265 38 238 60 q 339 17 293 17 q 438 118 438 17 q 335 336 438 214 q 267 413 315 358 q 191 505 219 467 q 135 602 163 543 q 108 718 108 661 q 183 900 108 832 q 371 968 258 968 q 542 922 483 968 q 600 800 600 876 q 581 732 600 757 q 519 707 561 707 q 450 746 476 707 q 481 821 481 776 q 381 907 481 907 q 285 806 285 907 q 303 715 285 758 q 344 646 322 672 q 410 572 367 619 q 467 506 453 524 q 509 455 482 488 q 543 412 536 422 q 569 372 550 401 q 594 322 589 342 q 615 206 615 257 z "},"¨":{"ha":396,"x_min":17,"x_max":379,"o":"m 147 840 q 147 803 147 840 q 82 767 147 767 q 17 840 17 767 q 82 913 17 913 q 147 840 147 913 m 313 767 q 249 840 249 767 q 313 913 249 913 q 379 840 379 913 q 313 767 379 767 z "},"©":{"ha":1182,"x_min":188,"x_max":994,"o":"m 590 771 q 520 771 590 771 q 349 668 450 771 q 249 422 249 565 q 349 176 249 278 q 590 74 450 74 q 831 176 731 74 q 932 422 932 278 q 831 668 932 565 q 590 771 731 771 m 590 22 q 506 22 590 22 q 305 139 422 22 q 188 422 188 256 q 305 705 188 588 q 590 822 422 822 q 876 705 758 822 q 994 422 994 588 q 876 140 994 257 q 590 22 758 22 m 597 176 q 435 235 486 176 q 383 418 383 293 q 601 661 383 661 q 715 631 671 661 q 758 554 758 601 q 742 512 758 531 q 704 493 726 493 q 650 531 660 493 q 664 572 664 551 q 647 608 664 592 q 601 624 629 624 q 508 574 538 624 q 479 418 479 525 q 506 265 479 311 q 597 219 533 219 q 713 307 681 219 l 754 293 q 695 208 738 240 q 597 176 653 176 z "},"ª":{"ha":579,"x_min":96,"x_max":492,"o":"m 339 513 q 226 472 292 472 q 128 501 160 472 q 96 581 96 529 q 268 717 96 701 l 333 722 l 333 789 q 317 859 333 838 q 268 881 301 881 q 217 870 235 881 q 199 842 199 860 q 214 807 199 824 q 163 764 210 764 q 122 778 139 764 q 106 817 106 792 q 151 894 106 865 q 270 924 196 924 q 385 888 344 924 q 426 789 426 851 l 426 538 q 492 515 444 525 l 488 479 l 347 479 l 339 513 m 190 588 q 247 517 190 517 q 333 553 290 517 l 333 678 l 272 674 q 213 647 235 671 q 190 588 190 624 m 96 356 l 96 403 l 489 403 l 489 356 l 96 356 z "},"«":{"ha":678,"x_min":53,"x_max":589,"o":"m 275 60 l 53 335 l 275 610 l 329 576 l 190 335 l 329 94 l 275 60 m 535 60 l 313 335 l 535 610 l 589 576 l 450 335 l 589 94 l 535 60 z "},"¬":{"ha":769,"x_min":54,"x_max":664,"o":"m 664 553 l 664 246 l 581 246 l 581 479 l 54 479 l 54 553 l 664 553 z "},"­":{"ha":461,"x_min":72,"x_max":390,"o":"m 72 321 l 72 396 l 390 396 l 390 321 l 72 321 z "},"®":{"ha":1182,"x_min":188,"x_max":994,"o":"m 547 413 l 547 269 l 606 257 l 601 222 l 408 222 l 413 257 l 468 269 l 468 597 l 408 614 l 413 649 l 593 649 q 749 532 749 649 q 663 428 749 451 q 699 382 688 410 l 750 269 l 799 258 l 793 222 l 679 222 l 625 363 q 598 404 613 396 q 547 413 583 413 m 593 607 l 547 607 l 547 458 l 567 458 q 668 532 668 458 q 648 588 668 568 q 593 607 628 607 m 590 771 q 520 771 590 771 q 349 668 450 771 q 249 422 249 565 q 349 176 249 278 q 590 74 450 74 q 831 176 731 74 q 932 422 932 278 q 831 668 932 565 q 590 771 731 771 m 590 22 q 506 22 590 22 q 305 139 422 22 q 188 422 188 256 q 305 705 188 588 q 590 822 422 822 q 876 705 758 822 q 994 422 994 588 q 876 140 994 257 q 590 22 758 22 z "},"¯":{"ha":396,"x_min":4,"x_max":390,"o":"m 4 792 l 4 853 l 390 853 l 390 792 l 4 792 z "},"°":{"ha":521,"x_min":65,"x_max":456,"o":"m 260 542 q 218 542 260 542 q 121 597 176 542 q 65 733 65 653 q 121 868 65 813 q 260 924 176 924 q 400 868 344 924 q 456 733 456 813 q 400 597 456 653 q 260 542 344 542 m 187 833 q 174 813 187 833 q 161 732 161 793 q 187 631 161 671 q 260 590 213 590 q 334 631 308 590 q 360 732 360 671 q 334 833 360 793 q 260 874 308 874 q 187 833 213 874 z "},"±":{"ha":769,"x_min":100,"x_max":668,"o":"m 100 454 l 100 528 l 339 528 l 339 775 l 422 775 l 422 528 l 668 528 l 668 454 l 422 454 l 422 208 l 339 208 l 339 454 l 100 454 m 104 38 l 104 111 l 660 111 l 660 38 l 104 38 z "},"²":{"ha":565,"x_min":63,"x_max":453,"o":"m 453 638 l 453 563 l 64 563 l 64 621 q 275 829 217 751 q 333 976 333 907 q 244 1072 333 1072 q 181 1056 204 1072 q 157 1013 157 1039 q 181 961 157 988 q 126 936 153 936 q 81 953 99 936 q 63 1006 63 971 q 115 1097 63 1067 q 250 1128 167 1128 q 381 1087 333 1128 q 429 972 429 1046 q 372 819 429 897 q 183 638 315 742 l 453 638 z "},"³":{"ha":565,"x_min":65,"x_max":443,"o":"m 197 832 l 197 882 q 342 988 342 886 q 260 1072 342 1072 q 200 1056 222 1072 q 178 1017 178 1039 q 192 978 178 996 q 139 957 163 957 q 89 1018 89 957 q 139 1096 89 1064 q 265 1128 189 1128 q 388 1089 340 1128 q 436 988 436 1050 q 335 858 436 896 q 443 718 443 822 q 390 601 443 646 q 251 557 338 557 q 115 589 165 557 q 65 676 65 621 q 81 715 65 700 q 122 729 97 729 q 174 711 147 729 q 164 669 164 692 q 190 628 164 646 q 259 611 215 611 q 328 640 303 611 q 353 720 353 668 q 312 802 353 772 q 197 832 271 832 z "},"´":{"ha":396,"x_min":93,"x_max":303,"o":"m 208 922 q 249 946 226 946 q 288 931 272 946 q 303 895 303 917 q 268 843 303 874 l 124 728 l 93 761 l 208 922 z "},"µ":{"ha":756,"x_min":25,"x_max":722,"o":"m 507 485 q 485 555 507 536 q 410 576 464 574 l 414 617 q 599 665 461 625 l 625 651 l 625 86 q 722 49 657 60 l 717 0 l 532 0 l 518 88 q 344 -10 444 -10 q 240 7 290 -10 l 240 -285 l 121 -285 l 121 485 q 100 555 121 536 q 25 576 79 574 l 29 617 q 213 665 75 625 l 240 651 l 240 199 q 360 53 240 53 q 507 163 446 53 l 507 485 z "},"¶":{"ha":817,"x_min":93,"x_max":724,"o":"m 418 436 q 177 489 261 436 q 93 673 93 542 q 178 858 93 804 q 418 913 263 913 l 724 913 l 717 861 q 592 824 636 851 l 592 0 q 574 -113 592 -65 q 530 -186 556 -161 q 469 -226 504 -211 q 363 -249 421 -249 q 203 -135 203 -249 q 224 -74 203 -97 q 279 -51 244 -51 q 331 -86 314 -51 q 306 -138 306 -108 q 322 -183 306 -168 q 363 -199 338 -199 q 403 -178 389 -199 q 418 -126 418 -157 l 418 436 m 231 674 q 281 543 231 589 q 418 497 332 497 l 418 851 q 231 674 231 851 m 485 -108 q 463 -183 485 -161 q 535 -65 535 -162 l 535 850 l 485 854 l 485 -108 z "},"·":{"ha":392,"x_min":122,"x_max":269,"o":"m 122 407 q 122 447 122 407 q 196 488 122 488 q 269 407 269 488 q 196 326 269 326 q 122 407 122 326 z "},"¸":{"ha":396,"x_min":63,"x_max":321,"o":"m 215 -64 q 294 -99 267 -74 q 321 -172 321 -124 q 283 -251 321 -219 q 186 -283 246 -283 q 94 -256 126 -283 q 63 -199 63 -228 q 75 -153 63 -169 q 104 -137 88 -137 q 133 -143 121 -137 q 128 -181 128 -162 q 146 -219 128 -200 q 190 -237 164 -237 q 250 -168 250 -237 q 174 -106 250 -117 l 149 -78 l 204 13 l 240 6 l 215 -64 z "},"¹":{"ha":565,"x_min":124,"x_max":454,"o":"m 250 1032 l 128 1032 l 128 1082 q 304 1128 225 1090 l 340 1114 l 340 628 q 454 604 379 610 l 450 563 l 124 563 l 126 604 q 250 628 213 614 l 250 1032 z "},"º":{"ha":594,"x_min":92,"x_max":490,"o":"m 212 832 q 200 811 212 832 q 188 697 188 790 q 212 563 188 604 q 290 521 236 521 q 368 563 343 521 q 393 697 393 604 q 368 832 393 790 q 290 874 343 874 q 212 832 236 874 m 92 697 q 142 865 92 807 q 290 924 192 924 q 438 865 388 924 q 489 697 489 807 q 289 472 489 472 q 92 697 92 472 m 92 356 l 92 403 l 490 403 l 490 356 l 92 356 z "},"»":{"ha":678,"x_min":89,"x_max":625,"o":"m 365 335 l 143 60 l 89 94 l 226 335 l 89 576 l 143 610 l 365 335 m 625 335 l 403 60 l 349 94 l 486 335 l 349 576 l 403 610 l 625 335 z "},"¼":{"ha":1201,"x_min":125,"x_max":1101,"o":"m 392 -44 l 322 -8 l 753 944 l 824 913 l 392 -44 m 232 846 l 125 846 l 125 885 q 285 933 219 901 l 319 919 l 319 471 l 407 449 l 404 410 l 132 410 l 136 449 l 232 471 l 232 846 m 939 138 l 715 138 l 708 171 l 933 515 l 1026 515 l 1026 193 l 1101 193 l 1101 138 l 1026 138 l 1026 58 q 1096 40 1046 49 l 1090 0 l 861 0 l 868 40 q 939 58 919 49 l 939 138 m 939 193 l 939 417 l 794 193 l 939 193 z "},"½":{"ha":1236,"x_min":119,"x_max":1143,"o":"m 226 846 l 119 846 l 119 885 q 279 933 214 901 l 314 919 l 314 471 l 401 449 l 399 410 l 126 410 l 131 449 l 226 471 l 226 846 m 417 -44 l 347 -8 l 778 944 l 849 913 l 417 -44 m 771 0 l 771 56 q 972 247 917 176 q 1026 382 1026 318 q 944 469 1026 469 q 886 450 907 469 q 865 404 865 431 q 883 351 865 378 q 833 329 861 329 q 789 346 806 329 q 772 405 772 363 q 824 485 772 447 q 951 524 875 524 q 1074 484 1026 524 q 1121 377 1121 444 q 1067 239 1121 310 q 885 72 1013 168 l 1143 72 l 1143 0 l 771 0 z "},"¾":{"ha":1201,"x_min":86,"x_max":1101,"o":"m 404 -44 l 335 -8 l 765 944 l 836 913 l 404 -44 m 210 656 l 210 699 q 349 801 349 703 q 328 856 349 836 q 272 875 308 875 q 217 857 236 875 q 197 817 197 839 q 207 781 197 796 q 158 761 182 761 q 120 777 133 761 q 107 821 107 793 q 154 898 107 867 q 275 929 201 929 q 394 894 349 929 q 439 801 439 858 q 339 679 439 717 q 451 549 451 647 q 399 442 451 485 q 265 400 347 400 q 135 435 183 400 q 86 525 86 469 q 103 563 86 550 q 143 576 119 576 q 192 558 167 576 q 183 514 183 538 q 206 472 183 490 q 269 454 229 454 q 358 549 358 454 q 322 626 358 597 q 215 656 285 654 l 210 656 m 939 138 l 715 138 l 708 171 l 933 515 l 1026 515 l 1026 193 l 1101 193 l 1101 138 l 1026 138 l 1026 58 q 1096 40 1046 49 l 1090 0 l 861 0 l 868 40 q 939 58 919 49 l 939 138 m 939 193 l 939 417 l 794 193 l 939 193 z "},"¿":{"ha":586,"x_min":60,"x_max":500,"o":"m 336 365 q 352 365 336 365 q 386 340 368 365 q 404 272 404 315 q 380 186 404 228 q 321 115 356 144 q 253 56 286 85 q 169 -106 169 -18 q 202 -178 169 -151 q 280 -206 235 -206 q 353 -188 325 -206 q 381 -140 381 -171 q 365 -85 381 -110 q 432 -43 394 -43 q 500 -118 500 -43 q 436 -229 500 -193 q 278 -265 372 -265 q 122 -223 185 -265 q 60 -89 60 -181 q 83 10 60 -36 q 138 89 106 57 q 204 150 171 121 q 283 282 283 222 q 275 342 283 308 q 336 365 304 365 m 251 596 q 251 636 251 596 q 325 676 251 676 q 399 596 399 676 q 325 515 399 515 q 251 596 251 515 z "},"À":{"ha":865,"x_min":18,"x_max":844,"o":"m 18 0 l 25 51 q 124 88 88 61 l 383 926 l 467 926 l 753 86 q 844 51 788 61 l 839 0 l 492 0 l 499 51 q 626 89 579 61 l 556 299 l 275 299 l 211 89 q 346 51 257 63 l 340 0 l 18 0 m 410 733 l 297 371 l 532 371 l 410 733 m 325 1082 q 290 1134 290 1113 q 306 1170 290 1156 q 344 1185 321 1185 q 385 1161 367 1185 l 500 1000 l 467 967 l 325 1082 z "},"Á":{"ha":865,"x_min":18,"x_max":844,"o":"m 18 0 l 25 51 q 124 88 88 61 l 383 926 l 467 926 l 753 86 q 844 51 788 61 l 839 0 l 492 0 l 499 51 q 626 89 579 61 l 556 299 l 275 299 l 211 89 q 346 51 257 63 l 340 0 l 18 0 m 410 733 l 297 371 l 532 371 l 410 733 m 496 1161 q 537 1185 514 1185 q 575 1170 560 1185 q 590 1134 590 1156 q 556 1082 590 1113 l 411 967 l 381 1000 l 496 1161 z "},"Â":{"ha":865,"x_min":18,"x_max":844,"o":"m 18 0 l 25 51 q 124 88 88 61 l 383 926 l 467 926 l 753 86 q 844 51 788 61 l 839 0 l 492 0 l 499 51 q 626 89 579 61 l 556 299 l 275 299 l 211 89 q 346 51 257 63 l 340 0 l 18 0 m 410 733 l 297 371 l 532 371 l 410 733 m 388 1149 q 431 1171 407 1171 q 474 1149 456 1171 l 601 1000 l 569 967 l 429 1074 l 289 967 l 258 1000 l 388 1149 z "},"Ã":{"ha":865,"x_min":18,"x_max":844,"o":"m 18 0 l 25 51 q 124 88 88 61 l 383 926 l 467 926 l 753 86 q 844 51 788 61 l 839 0 l 492 0 l 499 51 q 626 89 579 61 l 556 299 l 275 299 l 211 89 q 346 51 257 63 l 340 0 l 18 0 m 410 733 l 297 371 l 532 371 l 410 733 m 213 1031 q 264 1104 228 1069 q 342 1139 300 1139 q 433 1115 383 1139 q 517 1090 483 1090 q 601 1142 550 1090 q 647 1115 625 1133 q 594 1040 631 1076 q 516 1004 557 1004 q 425 1028 475 1004 q 340 1053 375 1053 q 257 1004 306 1053 q 213 1031 235 1010 z "},"Ä":{"ha":865,"x_min":18,"x_max":844,"o":"m 18 0 l 25 51 q 124 88 88 61 l 383 926 l 467 926 l 753 86 q 844 51 788 61 l 839 0 l 492 0 l 499 51 q 626 89 579 61 l 556 299 l 275 299 l 211 89 q 346 51 257 63 l 340 0 l 18 0 m 410 733 l 297 371 l 532 371 l 410 733 m 379 1084 q 379 1048 379 1084 q 314 1011 379 1011 q 249 1084 249 1011 q 314 1157 249 1157 q 379 1084 379 1157 m 544 1011 q 481 1084 481 1011 q 544 1157 481 1157 q 611 1084 611 1157 q 544 1011 611 1011 z "},"Å":{"ha":865,"x_min":18,"x_max":844,"o":"m 18 0 l 25 51 q 124 88 88 61 l 383 926 l 467 926 l 753 86 q 844 51 788 61 l 839 0 l 492 0 l 499 51 q 626 89 579 61 l 556 299 l 275 299 l 211 89 q 346 51 257 63 l 340 0 l 18 0 m 410 733 l 297 371 l 532 371 l 410 733 m 515 997 q 499 981 515 997 q 429 965 482 965 q 344 997 376 965 q 311 1080 311 1029 q 343 1163 311 1131 q 428 1194 375 1194 q 515 1162 482 1194 q 549 1079 549 1129 q 515 997 549 1029 m 387 1037 q 395 1028 387 1037 q 429 1019 404 1019 q 473 1038 454 1019 q 492 1080 492 1056 q 473 1123 492 1104 q 429 1142 454 1142 q 387 1123 404 1142 q 369 1079 369 1104 q 387 1037 369 1054 z "},"Æ":{"ha":1203,"x_min":26,"x_max":1135,"o":"m 1103 715 q 1072 708 1085 708 q 1044 711 1058 708 q 986 853 1028 800 l 724 853 l 724 506 l 879 513 q 960 606 935 514 l 1001 606 l 1001 331 l 960 331 l 946 372 q 913 422 931 413 q 878 433 896 432 l 724 442 l 724 81 l 1019 81 q 1079 238 1061 139 q 1107 240 1099 240 q 1135 238 1115 240 l 1122 0 l 465 0 l 474 51 q 601 89 551 61 l 601 376 l 368 376 l 218 89 q 356 51 263 63 l 350 0 l 26 0 l 35 51 q 122 85 86 60 l 564 926 l 1090 926 l 1103 715 m 601 442 l 601 819 l 403 442 l 601 442 z "},"Ç":{"ha":781,"x_min":89,"x_max":742,"o":"m 408 -8 q 167 119 244 3 q 89 470 89 235 q 177 822 89 706 q 449 939 265 939 q 647 887 568 939 q 725 756 725 835 q 701 678 725 710 q 647 646 678 646 q 594 661 617 646 q 564 700 572 676 q 590 774 590 736 q 551 838 590 813 q 449 864 513 864 q 282 766 336 864 q 228 465 228 668 q 281 168 228 263 q 449 74 335 74 q 590 108 521 74 q 693 188 658 142 l 742 135 q 696 90 729 118 q 631 42 663 61 q 551 7 600 22 q 451 -10 501 -8 l 432 -64 q 510 -99 483 -74 q 538 -172 538 -124 q 500 -251 538 -219 q 403 -283 463 -283 q 311 -256 343 -283 q 279 -199 279 -228 q 292 -153 279 -169 q 321 -137 304 -137 q 350 -143 338 -137 q 344 -181 344 -162 q 363 -219 344 -200 q 407 -237 381 -237 q 467 -168 467 -237 q 390 -106 467 -117 l 365 -78 l 408 -8 z "},"È":{"ha":799,"x_min":43,"x_max":713,"o":"m 681 715 q 649 708 663 708 q 621 711 635 708 q 563 853 603 803 l 301 853 l 301 506 l 458 513 q 536 606 513 514 l 581 606 l 581 331 l 536 331 q 522 381 529 364 q 498 415 515 397 q 457 433 481 432 l 301 442 l 301 81 l 597 81 q 657 238 639 139 q 682 240 674 240 q 713 238 690 240 l 700 0 l 43 0 l 51 51 q 179 89 144 63 l 179 839 q 43 876 126 867 q 50 926 49 910 l 669 926 l 681 715 m 274 1096 q 239 1148 239 1126 q 254 1184 239 1169 q 292 1199 269 1199 q 333 1175 315 1199 l 449 1014 l 415 981 l 274 1096 z "},"É":{"ha":799,"x_min":43,"x_max":713,"o":"m 681 715 q 649 708 663 708 q 621 711 635 708 q 563 853 603 803 l 301 853 l 301 506 l 458 513 q 536 606 513 514 l 581 606 l 581 331 l 536 331 q 522 381 529 364 q 498 415 515 397 q 457 433 481 432 l 301 442 l 301 81 l 597 81 q 657 238 639 139 q 682 240 674 240 q 713 238 690 240 l 700 0 l 43 0 l 51 51 q 179 89 144 63 l 179 839 q 43 876 126 867 q 50 926 49 910 l 669 926 l 681 715 m 444 1175 q 485 1199 463 1199 q 524 1184 508 1199 q 539 1148 539 1169 q 504 1096 539 1126 l 360 981 l 329 1014 l 444 1175 z "},"Ê":{"ha":799,"x_min":43,"x_max":713,"o":"m 681 715 q 649 708 663 708 q 621 711 635 708 q 563 853 603 803 l 301 853 l 301 506 l 458 513 q 536 606 513 514 l 581 606 l 581 331 l 536 331 q 522 381 529 364 q 498 415 515 397 q 457 433 481 432 l 301 442 l 301 81 l 597 81 q 657 238 639 139 q 682 240 674 240 q 713 238 690 240 l 700 0 l 43 0 l 51 51 q 179 89 144 63 l 179 839 q 43 876 126 867 q 50 926 49 910 l 669 926 l 681 715 m 336 1163 q 380 1185 356 1185 q 422 1163 404 1185 l 550 1014 l 518 981 l 378 1088 l 238 981 l 207 1014 l 336 1163 z "},"Ë":{"ha":799,"x_min":43,"x_max":713,"o":"m 681 715 q 649 708 663 708 q 621 711 635 708 q 563 853 603 803 l 301 853 l 301 506 l 458 513 q 536 606 513 514 l 581 606 l 581 331 l 536 331 q 522 381 529 364 q 498 415 515 397 q 457 433 481 432 l 301 442 l 301 81 l 597 81 q 657 238 639 139 q 682 240 674 240 q 713 238 690 240 l 700 0 l 43 0 l 51 51 q 179 89 144 63 l 179 839 q 43 876 126 867 q 50 926 49 910 l 669 926 l 681 715 m 328 1084 q 328 1048 328 1084 q 263 1011 328 1011 q 197 1084 197 1011 q 263 1157 197 1157 q 328 1084 328 1157 m 493 1011 q 429 1084 429 1011 q 493 1157 429 1157 q 560 1084 560 1157 q 493 1011 560 1011 z "},"Ì":{"ha":450,"x_min":28,"x_max":421,"o":"m 28 0 l 36 51 q 164 89 117 61 l 164 839 q 28 876 110 867 q 35 926 33 910 l 419 926 q 413 876 418 910 q 286 839 338 867 l 286 89 q 421 51 332 63 l 414 0 l 28 0 m 119 1096 q 85 1148 85 1126 q 100 1184 85 1169 q 138 1199 115 1199 q 179 1175 161 1199 l 294 1014 l 261 981 l 119 1096 z "},"Í":{"ha":450,"x_min":28,"x_max":421,"o":"m 28 0 l 36 51 q 164 89 117 61 l 164 839 q 28 876 110 867 q 35 926 33 910 l 419 926 q 413 876 418 910 q 286 839 338 867 l 286 89 q 421 51 332 63 l 414 0 l 28 0 m 290 1175 q 331 1199 308 1199 q 369 1184 354 1199 q 385 1148 385 1169 q 350 1096 385 1126 l 206 981 l 175 1014 l 290 1175 z "},"Î":{"ha":450,"x_min":28,"x_max":421,"o":"m 28 0 l 36 51 q 164 89 117 61 l 164 839 q 28 876 110 867 q 35 926 33 910 l 419 926 q 413 876 418 910 q 286 839 338 867 l 286 89 q 421 51 332 63 l 414 0 l 28 0 m 182 1163 q 226 1185 201 1185 q 268 1163 250 1185 l 396 1014 l 364 981 l 224 1088 l 83 981 l 53 1014 l 182 1163 z "},"Ï":{"ha":450,"x_min":28,"x_max":421,"o":"m 28 0 l 36 51 q 164 89 117 61 l 164 839 q 28 876 110 867 q 35 926 33 910 l 419 926 q 413 876 418 910 q 286 839 338 867 l 286 89 q 421 51 332 63 l 414 0 l 28 0 m 174 1084 q 174 1048 174 1084 q 108 1011 174 1011 q 43 1084 43 1011 q 108 1157 43 1157 q 174 1084 174 1157 m 339 1011 q 275 1084 275 1011 q 339 1157 275 1157 q 406 1084 406 1157 q 339 1011 406 1011 z "},"Ð":{"ha":924,"x_min":58,"x_max":849,"o":"m 83 422 l 83 483 l 193 483 l 193 839 q 58 876 144 865 l 65 926 l 364 926 q 728 815 607 926 q 849 462 849 704 q 727 110 849 219 q 356 0 606 0 l 60 0 l 67 51 q 193 88 151 63 l 193 422 l 83 422 m 383 857 l 317 857 l 317 483 l 469 483 l 469 422 l 317 422 l 317 74 q 379 68 340 68 q 628 158 546 68 q 710 463 710 247 q 629 768 710 679 q 383 857 549 857 z "},"Ñ":{"ha":946,"x_min":35,"x_max":925,"o":"m 790 0 l 731 0 l 258 715 l 258 89 q 393 51 304 63 l 388 0 l 35 0 l 43 51 q 171 89 124 61 l 171 839 q 35 876 117 867 q 42 926 40 910 l 263 926 l 700 265 l 700 839 q 567 876 651 865 q 574 926 568 893 l 925 926 q 918 876 919 893 q 790 839 842 868 l 790 0 m 263 1044 q 314 1118 278 1083 q 392 1153 350 1153 q 483 1128 433 1153 q 567 1104 533 1104 q 651 1156 600 1104 q 697 1129 675 1147 q 644 1054 681 1090 q 566 1018 607 1018 q 475 1042 525 1018 q 390 1067 425 1067 q 307 1018 356 1067 q 263 1044 285 1024 z "},"Ò":{"ha":907,"x_min":74,"x_max":833,"o":"m 256 183 q 329 90 279 122 q 447 58 379 58 q 559 81 515 58 q 628 138 603 103 q 669 229 654 174 q 688 338 683 285 q 693 463 693 392 q 688 588 693 533 q 669 697 683 642 q 628 789 654 753 q 454 869 569 869 q 256 744 304 869 q 214 464 214 639 q 256 183 214 292 m 74 465 q 74 580 74 465 q 162 817 74 694 q 453 939 250 939 q 745 816 657 939 q 833 463 833 693 q 745 112 833 233 q 453 -10 657 -10 q 162 113 250 -10 q 74 465 74 235 m 349 1096 q 314 1148 314 1126 q 329 1184 314 1169 q 367 1199 344 1199 q 408 1175 390 1199 l 524 1014 l 490 981 l 349 1096 z "},"Ó":{"ha":907,"x_min":74,"x_max":833,"o":"m 256 183 q 329 90 279 122 q 447 58 379 58 q 559 81 515 58 q 628 138 603 103 q 669 229 654 174 q 688 338 683 285 q 693 463 693 392 q 688 588 693 533 q 669 697 683 642 q 628 789 654 753 q 454 869 569 869 q 256 744 304 869 q 214 464 214 639 q 256 183 214 292 m 74 465 q 74 580 74 465 q 162 817 74 694 q 453 939 250 939 q 745 816 657 939 q 833 463 833 693 q 745 112 833 233 q 453 -10 657 -10 q 162 113 250 -10 q 74 465 74 235 m 519 1175 q 560 1199 538 1199 q 599 1184 583 1199 q 614 1148 614 1169 q 579 1096 614 1126 l 435 981 l 404 1014 l 519 1175 z "},"Ô":{"ha":907,"x_min":74,"x_max":833,"o":"m 256 183 q 329 90 279 122 q 447 58 379 58 q 559 81 515 58 q 628 138 603 103 q 669 229 654 174 q 688 338 683 285 q 693 463 693 392 q 688 588 693 533 q 669 697 683 642 q 628 789 654 753 q 454 869 569 869 q 256 744 304 869 q 214 464 214 639 q 256 183 214 292 m 74 465 q 74 580 74 465 q 162 817 74 694 q 453 939 250 939 q 745 816 657 939 q 833 463 833 693 q 745 112 833 233 q 453 -10 657 -10 q 162 113 250 -10 q 74 465 74 235 m 411 1163 q 455 1185 431 1185 q 497 1163 479 1185 l 625 1014 l 593 981 l 453 1088 l 313 981 l 282 1014 l 411 1163 z "},"Õ":{"ha":907,"x_min":74,"x_max":833,"o":"m 256 183 q 329 90 279 122 q 447 58 379 58 q 559 81 515 58 q 628 138 603 103 q 669 229 654 174 q 688 338 683 285 q 693 463 693 392 q 688 588 693 533 q 669 697 683 642 q 628 789 654 753 q 454 869 569 869 q 256 744 304 869 q 214 464 214 639 q 256 183 214 292 m 74 465 q 74 580 74 465 q 162 817 74 694 q 453 939 250 939 q 745 816 657 939 q 833 463 833 693 q 745 112 833 233 q 453 -10 657 -10 q 162 113 250 -10 q 74 465 74 235 m 236 1044 q 288 1118 251 1083 q 365 1153 324 1153 q 457 1128 407 1153 q 540 1104 507 1104 q 625 1156 574 1104 q 671 1129 649 1147 q 617 1054 654 1090 q 540 1018 581 1018 q 449 1042 500 1018 q 363 1067 397 1067 q 281 1018 329 1067 q 236 1044 258 1024 z "},"Ö":{"ha":907,"x_min":74,"x_max":833,"o":"m 256 183 q 329 90 279 122 q 447 58 379 58 q 559 81 515 58 q 628 138 603 103 q 669 229 654 174 q 688 338 683 285 q 693 463 693 392 q 688 588 693 533 q 669 697 683 642 q 628 789 654 753 q 454 869 569 869 q 256 744 304 869 q 214 464 214 639 q 256 183 214 292 m 74 465 q 74 580 74 465 q 162 817 74 694 q 453 939 250 939 q 745 816 657 939 q 833 463 833 693 q 745 112 833 233 q 453 -10 657 -10 q 162 113 250 -10 q 74 465 74 235 m 403 1084 q 403 1048 403 1084 q 338 1011 403 1011 q 272 1084 272 1011 q 338 1157 272 1157 q 403 1084 403 1157 m 568 1011 q 504 1084 504 1011 q 568 1157 504 1157 q 635 1084 635 1157 q 568 1011 635 1011 z "},"×":{"ha":769,"x_min":113,"x_max":657,"o":"m 169 128 l 113 186 l 326 397 l 117 606 l 174 664 l 383 456 l 594 664 l 651 606 l 443 397 l 657 186 l 600 128 l 383 339 l 169 128 z "},"Ø":{"ha":907,"x_min":79,"x_max":840,"o":"m 461 939 q 710 861 617 939 l 775 950 l 785 950 q 821 917 799 943 l 750 819 q 840 467 840 701 q 752 112 840 233 q 461 -10 664 -10 q 206 72 296 -10 l 125 -37 l 115 -39 q 79 -6 100 -29 l 167 114 q 81 462 81 229 q 169 817 81 694 q 461 939 257 939 m 461 58 q 675 229 631 58 q 700 474 700 322 q 671 711 700 625 l 271 163 q 461 58 329 58 m 263 744 q 230 619 239 685 q 221 431 221 554 q 246 224 221 307 l 644 772 q 461 869 588 869 q 263 744 311 869 z "},"Ù":{"ha":900,"x_min":-11,"x_max":910,"o":"m 775 300 q 694 71 775 151 q 448 -10 613 -10 q 203 63 283 -10 q 124 292 124 135 l 124 839 q -11 876 69 867 l -6 926 l 383 926 l 375 876 q 250 839 296 863 l 250 292 q 301 116 250 169 q 460 63 351 63 q 628 124 569 63 q 686 300 686 185 l 686 839 q 551 876 635 867 q 558 926 553 893 l 910 926 l 903 876 q 775 839 821 863 l 775 300 m 344 1096 q 310 1148 310 1126 q 325 1184 310 1169 q 363 1199 340 1199 q 404 1175 386 1199 l 519 1014 l 486 981 l 344 1096 z "},"Ú":{"ha":900,"x_min":-11,"x_max":910,"o":"m 775 300 q 694 71 775 151 q 448 -10 613 -10 q 203 63 283 -10 q 124 292 124 135 l 124 839 q -11 876 69 867 l -6 926 l 383 926 l 375 876 q 250 839 296 863 l 250 292 q 301 116 250 169 q 460 63 351 63 q 628 124 569 63 q 686 300 686 185 l 686 839 q 551 876 635 867 q 558 926 553 893 l 910 926 l 903 876 q 775 839 821 863 l 775 300 m 515 1175 q 556 1199 533 1199 q 594 1184 579 1199 q 610 1148 610 1169 q 575 1096 610 1126 l 431 981 l 400 1014 l 515 1175 z "},"Û":{"ha":900,"x_min":-11,"x_max":910,"o":"m 775 300 q 694 71 775 151 q 448 -10 613 -10 q 203 63 283 -10 q 124 292 124 135 l 124 839 q -11 876 69 867 l -6 926 l 383 926 l 375 876 q 250 839 296 863 l 250 292 q 301 116 250 169 q 460 63 351 63 q 628 124 569 63 q 686 300 686 185 l 686 839 q 551 876 635 867 q 558 926 553 893 l 910 926 l 903 876 q 775 839 821 863 l 775 300 m 407 1163 q 451 1185 426 1185 q 493 1163 475 1185 l 621 1014 l 589 981 l 449 1088 l 308 981 l 278 1014 l 407 1163 z "},"Ü":{"ha":900,"x_min":-11,"x_max":910,"o":"m 775 300 q 694 71 775 151 q 448 -10 613 -10 q 203 63 283 -10 q 124 292 124 135 l 124 839 q -11 876 69 867 l -6 926 l 383 926 l 375 876 q 250 839 296 863 l 250 292 q 301 116 250 169 q 460 63 351 63 q 628 124 569 63 q 686 300 686 185 l 686 839 q 551 876 635 867 q 558 926 553 893 l 910 926 l 903 876 q 775 839 821 863 l 775 300 m 399 1084 q 399 1048 399 1084 q 333 1011 399 1011 q 268 1084 268 1011 q 333 1157 268 1157 q 399 1084 399 1157 m 564 1011 q 500 1084 500 1011 q 564 1157 500 1157 q 631 1084 631 1157 q 564 1011 631 1011 z "},"Ý":{"ha":792,"x_min":15,"x_max":778,"o":"m 196 0 l 203 51 q 338 89 289 61 l 338 368 l 101 840 q 15 876 68 865 l 22 926 l 365 926 q 358 876 360 893 q 238 839 286 867 l 411 476 l 589 840 q 465 876 536 868 q 472 926 467 893 l 778 926 l 769 876 q 685 840 719 867 l 460 385 l 460 89 q 601 51 507 63 l 596 0 l 196 0 m 476 1175 q 517 1199 494 1199 q 556 1184 540 1199 q 571 1148 571 1169 q 536 1096 571 1126 l 392 981 l 361 1014 l 476 1175 z "},"Þ":{"ha":797,"x_min":68,"x_max":736,"o":"m 326 728 l 432 728 q 736 474 736 728 q 643 273 736 331 q 372 215 550 215 l 326 215 l 326 89 q 461 51 372 63 l 454 0 l 68 0 l 76 51 q 204 89 157 61 l 204 839 q 68 876 150 867 q 75 926 74 910 l 460 926 q 453 876 458 910 q 326 839 378 867 l 326 728 m 326 278 l 372 278 q 611 476 611 278 q 565 621 611 572 q 432 669 518 669 q 326 661 374 669 l 326 278 z "},"ß":{"ha":840,"x_min":71,"x_max":767,"o":"m 344 106 q 366 164 344 142 q 417 186 388 186 q 474 172 447 186 q 461 116 461 143 q 480 71 461 89 q 533 53 499 53 q 615 103 585 53 q 644 246 644 153 q 583 394 644 339 q 386 469 521 450 l 386 543 q 506 617 453 554 q 560 749 560 681 q 526 858 560 818 q 425 899 492 899 q 297 794 321 899 q 286 653 286 739 l 286 0 l 71 0 l 76 50 q 168 86 136 60 l 168 715 q 235 892 168 832 q 422 953 303 953 q 611 901 540 953 q 682 743 682 850 q 628 615 682 676 q 490 515 575 553 q 692 414 618 488 q 767 236 767 340 q 699 63 767 132 q 531 -7 632 -7 q 344 106 344 -7 z "},"à":{"ha":678,"x_min":61,"x_max":650,"o":"m 242 -10 q 108 32 156 -10 q 61 156 61 74 q 128 291 61 239 q 321 351 194 343 l 435 360 l 435 472 q 406 574 435 542 q 311 606 376 606 q 196 543 196 606 q 238 492 196 507 q 158 425 238 425 q 100 447 122 425 q 78 506 78 469 q 141 619 78 576 q 315 661 204 661 q 489 611 425 661 q 553 472 553 561 l 553 85 q 650 47 585 61 l 644 0 l 453 0 l 439 63 q 242 -10 361 -10 m 183 161 q 276 47 183 47 q 435 128 350 47 l 435 303 l 324 293 q 221 252 258 288 q 183 161 183 217 m 213 818 q 178 870 178 849 q 193 906 178 892 q 231 921 208 921 q 272 897 254 921 l 388 736 l 354 703 l 213 818 z "},"á":{"ha":678,"x_min":61,"x_max":650,"o":"m 242 -10 q 108 32 156 -10 q 61 156 61 74 q 128 291 61 239 q 321 351 194 343 l 435 360 l 435 472 q 406 574 435 542 q 311 606 376 606 q 196 543 196 606 q 238 492 196 507 q 158 425 238 425 q 100 447 122 425 q 78 506 78 469 q 141 619 78 576 q 315 661 204 661 q 489 611 425 661 q 553 472 553 561 l 553 85 q 650 47 585 61 l 644 0 l 453 0 l 439 63 q 242 -10 361 -10 m 183 161 q 276 47 183 47 q 435 128 350 47 l 435 303 l 324 293 q 221 252 258 288 q 183 161 183 217 m 383 897 q 424 921 401 921 q 463 906 447 921 q 478 870 478 892 q 443 818 478 849 l 299 703 l 268 736 l 383 897 z "},"â":{"ha":678,"x_min":61,"x_max":650,"o":"m 242 -10 q 108 32 156 -10 q 61 156 61 74 q 128 291 61 239 q 321 351 194 343 l 435 360 l 435 472 q 406 574 435 542 q 311 606 376 606 q 196 543 196 606 q 238 492 196 507 q 158 425 238 425 q 100 447 122 425 q 78 506 78 469 q 141 619 78 576 q 315 661 204 661 q 489 611 425 661 q 553 472 553 561 l 553 85 q 650 47 585 61 l 644 0 l 453 0 l 439 63 q 242 -10 361 -10 m 183 161 q 276 47 183 47 q 435 128 350 47 l 435 303 l 324 293 q 221 252 258 288 q 183 161 183 217 m 275 885 q 319 907 294 907 q 361 885 343 907 l 489 736 l 457 703 l 317 810 l 176 703 l 146 736 l 275 885 z "},"ã":{"ha":678,"x_min":61,"x_max":650,"o":"m 242 -10 q 108 32 156 -10 q 61 156 61 74 q 128 291 61 239 q 321 351 194 343 l 435 360 l 435 472 q 406 574 435 542 q 311 606 376 606 q 196 543 196 606 q 238 492 196 507 q 158 425 238 425 q 100 447 122 425 q 78 506 78 469 q 141 619 78 576 q 315 661 204 661 q 489 611 425 661 q 553 472 553 561 l 553 85 q 650 47 585 61 l 644 0 l 453 0 l 439 63 q 242 -10 361 -10 m 183 161 q 276 47 183 47 q 435 128 350 47 l 435 303 l 324 293 q 221 252 258 288 q 183 161 183 217 m 100 767 q 151 840 115 806 q 229 875 188 875 q 321 851 271 875 q 404 826 371 826 q 489 878 438 826 q 535 851 513 869 q 481 776 518 813 q 404 740 444 740 q 313 765 364 740 q 227 789 261 789 q 144 740 193 789 q 100 767 122 746 z "},"ä":{"ha":678,"x_min":61,"x_max":650,"o":"m 242 -10 q 108 32 156 -10 q 61 156 61 74 q 128 291 61 239 q 321 351 194 343 l 435 360 l 435 472 q 406 574 435 542 q 311 606 376 606 q 196 543 196 606 q 238 492 196 507 q 158 425 238 425 q 100 447 122 425 q 78 506 78 469 q 141 619 78 576 q 315 661 204 661 q 489 611 425 661 q 553 472 553 561 l 553 85 q 650 47 585 61 l 644 0 l 453 0 l 439 63 q 242 -10 361 -10 m 183 161 q 276 47 183 47 q 435 128 350 47 l 435 303 l 324 293 q 221 252 258 288 q 183 161 183 217 m 267 823 q 267 786 267 823 q 201 750 267 750 q 136 823 136 750 q 201 896 136 896 q 267 823 267 896 m 432 750 q 368 823 368 750 q 432 896 368 896 q 499 823 499 896 q 432 750 499 750 z "},"å":{"ha":678,"x_min":57,"x_max":646,"o":"m 238 -10 q 104 32 151 -10 q 57 156 57 74 q 124 291 57 239 q 317 351 190 343 l 431 360 l 431 472 q 401 574 431 542 q 307 606 372 606 q 192 543 192 606 q 233 492 192 507 q 154 425 233 425 q 96 447 118 425 q 74 506 74 469 q 137 619 74 576 q 310 661 200 661 q 485 611 421 661 q 549 472 549 561 l 549 85 q 646 47 581 61 l 640 0 l 449 0 l 435 63 q 238 -10 357 -10 m 179 161 q 272 47 179 47 q 431 128 346 47 l 431 303 l 319 293 q 217 252 254 288 q 179 161 179 217 m 403 733 q 386 717 403 733 q 317 701 369 701 q 231 733 264 701 q 199 816 199 765 q 231 899 199 867 q 317 931 264 931 q 403 898 369 931 q 436 815 436 865 q 403 733 436 765 m 274 773 q 283 764 274 773 q 317 756 292 756 q 360 774 342 756 q 379 816 379 792 q 360 859 379 840 q 317 878 342 878 q 274 859 292 878 q 257 815 257 840 q 274 773 257 790 z "},"æ":{"ha":1044,"x_min":71,"x_max":988,"o":"m 321 661 q 526 582 467 661 q 737 661 601 661 q 928 589 872 661 q 988 375 983 517 l 958 338 l 572 338 l 572 331 q 615 108 572 161 q 743 58 656 58 q 833 75 789 58 q 900 108 878 92 l 921 124 l 956 82 q 928 57 946 72 q 853 16 910 42 q 738 -10 796 -10 q 499 94 567 -10 q 251 -10 388 -10 q 118 32 165 -10 q 71 156 71 74 q 138 291 71 239 q 331 351 204 343 l 443 360 l 443 472 q 414 574 443 542 q 325 606 385 606 q 235 589 265 606 q 204 540 204 572 q 247 492 204 507 q 168 425 247 425 q 110 447 132 425 q 88 506 88 469 q 151 619 88 576 q 321 661 214 661 m 193 161 q 286 47 193 47 q 443 128 358 47 l 443 303 l 333 293 q 231 252 268 288 q 193 161 193 217 m 729 606 q 572 389 576 606 l 863 399 q 834 556 863 507 q 729 606 806 606 z "},"ç":{"ha":613,"x_min":58,"x_max":571,"o":"m 357 661 q 512 620 453 661 q 571 514 571 579 q 549 457 571 482 q 499 432 528 432 q 451 446 471 432 q 425 482 432 460 q 443 540 443 511 q 419 590 443 568 q 351 611 396 611 q 270 589 306 611 q 217 525 235 567 q 188 358 188 453 q 193 221 188 264 q 215 138 199 178 q 358 58 249 58 q 449 75 404 58 q 514 108 493 92 l 535 124 l 571 82 q 544 58 561 72 q 472 17 526 43 q 361 -10 417 -8 l 342 -64 q 420 -99 393 -74 q 447 -172 447 -124 q 410 -251 447 -219 q 313 -283 372 -283 q 221 -256 253 -283 q 189 -199 189 -228 q 201 -153 189 -169 q 231 -137 214 -137 q 260 -143 247 -137 q 254 -181 254 -162 q 273 -219 254 -200 q 317 -237 292 -237 q 376 -168 376 -237 q 300 -106 376 -117 l 275 -78 l 317 -8 q 119 85 179 0 q 58 331 58 169 q 357 661 63 661 z "},"è":{"ha":678,"x_min":83,"x_max":626,"o":"m 211 338 l 211 331 q 254 108 211 161 q 382 58 294 58 q 472 75 428 58 q 539 108 517 92 l 560 124 l 594 82 q 567 57 585 72 q 492 16 549 42 q 376 -10 435 -10 q 151 76 218 -10 q 83 323 83 161 q 158 573 83 485 q 372 661 232 661 q 567 589 511 661 q 626 375 622 517 l 597 338 l 211 338 m 368 606 q 211 389 215 606 l 501 399 q 473 557 501 508 q 368 606 444 606 m 250 818 q 215 870 215 849 q 231 906 215 892 q 269 921 246 921 q 310 897 292 921 l 425 736 l 392 703 l 250 818 z "},"é":{"ha":678,"x_min":83,"x_max":626,"o":"m 211 338 l 211 331 q 254 108 211 161 q 382 58 294 58 q 472 75 428 58 q 539 108 517 92 l 560 124 l 594 82 q 567 57 585 72 q 492 16 549 42 q 376 -10 435 -10 q 151 76 218 -10 q 83 323 83 161 q 158 573 83 485 q 372 661 232 661 q 567 589 511 661 q 626 375 622 517 l 597 338 l 211 338 m 368 606 q 211 389 215 606 l 501 399 q 473 557 501 508 q 368 606 444 606 m 421 897 q 462 921 439 921 q 500 906 485 921 q 515 870 515 892 q 481 818 515 849 l 336 703 l 306 736 l 421 897 z "},"ê":{"ha":678,"x_min":83,"x_max":626,"o":"m 211 338 l 211 331 q 254 108 211 161 q 382 58 294 58 q 472 75 428 58 q 539 108 517 92 l 560 124 l 594 82 q 567 57 585 72 q 492 16 549 42 q 376 -10 435 -10 q 151 76 218 -10 q 83 323 83 161 q 158 573 83 485 q 372 661 232 661 q 567 589 511 661 q 626 375 622 517 l 597 338 l 211 338 m 368 606 q 211 389 215 606 l 501 399 q 473 557 501 508 q 368 606 444 606 m 313 885 q 356 907 332 907 q 399 885 381 907 l 526 736 l 494 703 l 354 810 l 214 703 l 183 736 l 313 885 z "},"ë":{"ha":678,"x_min":83,"x_max":626,"o":"m 211 338 l 211 331 q 254 108 211 161 q 382 58 294 58 q 472 75 428 58 q 539 108 517 92 l 560 124 l 594 82 q 567 57 585 72 q 492 16 549 42 q 376 -10 435 -10 q 151 76 218 -10 q 83 323 83 161 q 158 573 83 485 q 372 661 232 661 q 567 589 511 661 q 626 375 622 517 l 597 338 l 211 338 m 368 606 q 211 389 215 606 l 501 399 q 473 557 501 508 q 368 606 444 606 m 304 823 q 304 786 304 823 q 239 750 304 750 q 174 823 174 750 q 239 896 174 896 q 304 823 304 896 m 469 750 q 406 823 406 750 q 469 896 406 896 q 536 823 536 896 q 469 750 536 750 z "},"ì":{"ha":386,"x_min":47,"x_max":360,"o":"m 144 485 q 123 555 144 536 q 47 576 101 574 l 51 617 q 235 665 104 626 l 263 650 l 263 85 q 360 47 297 60 l 354 0 l 47 0 l 53 50 q 144 85 110 60 l 144 485 m 88 818 q 53 870 53 849 q 68 906 53 892 q 106 921 83 921 q 147 897 129 921 l 263 736 l 229 703 l 88 818 z "},"í":{"ha":386,"x_min":47,"x_max":360,"o":"m 144 485 q 123 555 144 536 q 47 576 101 574 l 51 617 q 235 665 104 626 l 263 650 l 263 85 q 360 47 297 60 l 354 0 l 47 0 l 53 50 q 144 85 110 60 l 144 485 m 258 897 q 299 921 276 921 q 338 906 322 921 q 353 870 353 892 q 318 818 353 849 l 174 703 l 143 736 l 258 897 z "},"î":{"ha":386,"x_min":21,"x_max":364,"o":"m 144 485 q 123 555 144 536 q 47 576 101 574 l 51 617 q 235 665 104 626 l 263 650 l 263 85 q 360 47 297 60 l 354 0 l 47 0 l 53 50 q 144 85 110 60 l 144 485 m 150 885 q 194 907 169 907 q 236 885 218 907 l 364 736 l 332 703 l 192 810 l 51 703 l 21 736 l 150 885 z "},"ï":{"ha":386,"x_min":11,"x_max":360,"o":"m 142 823 q 142 786 142 823 q 76 750 142 750 q 11 823 11 750 q 76 896 11 896 q 142 823 142 896 m 265 750 q 201 823 201 750 q 265 896 201 896 q 332 823 332 896 q 265 750 332 750 m 144 485 q 123 555 144 536 q 47 576 101 574 l 51 617 q 235 665 104 626 l 263 650 l 263 85 q 360 47 297 60 l 354 0 l 47 0 l 53 50 q 144 85 110 60 l 144 485 z "},"ð":{"ha":736,"x_min":78,"x_max":651,"o":"m 365 54 q 408 54 365 54 q 490 118 451 54 q 529 334 529 182 q 514 567 529 486 q 375 603 456 603 q 247 526 294 603 q 200 315 200 450 q 239 117 200 181 q 365 54 278 54 m 651 385 l 651 326 q 578 76 651 163 q 364 -10 506 -10 q 150 74 222 -10 q 78 319 78 157 q 156 572 78 482 q 383 661 235 661 q 493 640 443 661 q 386 796 460 733 l 182 718 l 158 774 l 324 840 q 192 904 285 867 l 215 964 q 411 875 350 915 l 569 939 l 597 876 l 478 832 q 610 653 568 760 q 651 385 651 546 z "},"ñ":{"ha":775,"x_min":42,"x_max":747,"o":"m 532 457 q 413 594 532 594 q 322 562 365 594 q 257 478 279 529 l 257 86 q 354 47 290 60 l 349 0 l 42 0 l 47 50 q 139 86 107 60 l 139 482 q 117 552 139 533 q 42 574 96 571 l 46 614 q 215 661 64 617 l 240 649 l 253 563 q 334 635 285 608 q 436 661 383 661 q 594 610 538 661 q 650 469 650 560 l 650 86 q 747 47 681 61 l 742 0 l 436 0 l 440 47 q 532 86 493 56 l 532 457 m 178 767 q 229 840 193 806 q 307 875 265 875 q 399 851 349 875 q 482 826 449 826 q 567 878 515 826 q 613 851 590 869 q 559 776 596 813 q 482 740 522 740 q 390 765 442 740 q 305 789 339 789 q 222 740 271 789 q 178 767 200 746 z "},"ò":{"ha":738,"x_min":74,"x_max":663,"o":"m 238 534 q 218 502 238 534 q 199 326 199 471 q 238 118 199 182 q 368 54 278 54 q 499 118 458 54 q 540 326 540 182 q 500 534 540 471 q 369 597 460 597 q 238 534 278 597 m 148 76 q 111 119 148 76 q 74 326 74 163 q 148 576 74 490 q 368 661 222 661 q 588 576 514 661 q 663 326 663 490 q 588 76 663 163 q 368 -10 514 -10 q 148 76 222 -10 m 264 818 q 229 870 229 849 q 244 906 229 892 q 283 921 260 921 q 324 897 306 921 l 439 736 l 406 703 l 264 818 z "},"ó":{"ha":738,"x_min":74,"x_max":663,"o":"m 238 534 q 218 502 238 534 q 199 326 199 471 q 238 118 199 182 q 368 54 278 54 q 499 118 458 54 q 540 326 540 182 q 500 534 540 471 q 369 597 460 597 q 238 534 278 597 m 148 76 q 111 119 148 76 q 74 326 74 163 q 148 576 74 490 q 368 661 222 661 q 588 576 514 661 q 663 326 663 490 q 588 76 663 163 q 368 -10 514 -10 q 148 76 222 -10 m 435 897 q 476 921 453 921 q 514 906 499 921 q 529 870 529 892 q 494 818 529 849 l 350 703 l 319 736 l 435 897 z "},"ô":{"ha":738,"x_min":74,"x_max":663,"o":"m 238 534 q 218 502 238 534 q 199 326 199 471 q 238 118 199 182 q 368 54 278 54 q 499 118 458 54 q 540 326 540 182 q 500 534 540 471 q 369 597 460 597 q 238 534 278 597 m 148 76 q 111 119 148 76 q 74 326 74 163 q 148 576 74 490 q 368 661 222 661 q 588 576 514 661 q 663 326 663 490 q 588 76 663 163 q 368 -10 514 -10 q 148 76 222 -10 m 326 885 q 370 907 346 907 q 413 885 394 907 l 540 736 l 508 703 l 368 810 l 228 703 l 197 736 l 326 885 z "},"õ":{"ha":738,"x_min":74,"x_max":663,"o":"m 238 534 q 218 502 238 534 q 199 326 199 471 q 238 118 199 182 q 368 54 278 54 q 499 118 458 54 q 540 326 540 182 q 500 534 540 471 q 369 597 460 597 q 238 534 278 597 m 148 76 q 111 119 148 76 q 74 326 74 163 q 148 576 74 490 q 368 661 222 661 q 588 576 514 661 q 663 326 663 490 q 588 76 663 163 q 368 -10 514 -10 q 148 76 222 -10 m 151 767 q 203 840 167 806 q 281 875 239 875 q 372 851 322 875 q 456 826 422 826 q 540 878 489 826 q 586 851 564 869 q 533 776 569 813 q 456 740 496 740 q 365 765 415 740 q 279 789 314 789 q 196 740 244 789 q 151 767 174 746 z "},"ö":{"ha":738,"x_min":74,"x_max":663,"o":"m 238 534 q 218 502 238 534 q 199 326 199 471 q 238 118 199 182 q 368 54 278 54 q 499 118 458 54 q 540 326 540 182 q 500 534 540 471 q 369 597 460 597 q 238 534 278 597 m 148 76 q 111 119 148 76 q 74 326 74 163 q 148 576 74 490 q 368 661 222 661 q 588 576 514 661 q 663 326 663 490 q 588 76 663 163 q 368 -10 514 -10 q 148 76 222 -10 m 318 823 q 318 786 318 823 q 253 750 318 750 q 188 823 188 750 q 253 896 188 896 q 318 823 318 896 m 483 750 q 419 823 419 750 q 483 896 419 896 q 550 823 550 896 q 483 750 550 750 z "},"÷":{"ha":769,"x_min":86,"x_max":682,"o":"m 86 360 l 86 433 l 682 433 l 682 360 l 86 360 m 381 108 q 317 181 317 108 q 381 254 317 254 q 449 181 449 254 q 381 108 449 108 m 381 539 q 317 612 317 539 q 381 685 317 685 q 449 612 449 685 q 381 539 449 539 z "},"ø":{"ha":738,"x_min":60,"x_max":663,"o":"m 133 94 q 74 333 74 176 q 148 576 74 490 q 368 661 222 661 q 557 606 485 661 l 613 672 l 624 672 q 653 644 640 661 l 592 571 q 663 325 663 488 q 588 76 663 163 q 376 -10 514 -10 q 165 57 239 -10 l 99 -24 l 90 -24 q 60 4 79 -15 l 133 94 m 363 54 q 411 54 363 54 q 499 118 458 54 q 540 305 540 182 q 521 486 540 428 l 229 133 q 363 54 268 54 m 199 326 q 211 188 199 244 l 499 535 q 368 597 458 597 q 238 534 278 597 q 199 326 199 471 z "},"ù":{"ha":767,"x_min":33,"x_max":729,"o":"m 353 -10 q 129 214 129 -10 l 129 485 q 108 555 129 536 q 33 576 88 574 l 36 617 q 221 665 83 625 l 249 651 l 249 199 q 368 53 249 53 q 444 80 404 53 q 515 163 485 107 l 515 485 q 494 555 515 536 q 418 576 472 574 l 422 617 q 607 665 469 625 l 633 651 l 633 86 q 729 49 664 60 l 725 0 l 540 0 l 526 88 q 353 -10 454 -10 m 276 818 q 242 870 242 849 q 257 906 242 892 q 295 921 272 921 q 336 897 318 921 l 451 736 l 418 703 l 276 818 z "},"ú":{"ha":767,"x_min":33,"x_max":729,"o":"m 353 -10 q 129 214 129 -10 l 129 485 q 108 555 129 536 q 33 576 88 574 l 36 617 q 221 665 83 625 l 249 651 l 249 199 q 368 53 249 53 q 444 80 404 53 q 515 163 485 107 l 515 485 q 494 555 515 536 q 418 576 472 574 l 422 617 q 607 665 469 625 l 633 651 l 633 86 q 729 49 664 60 l 725 0 l 540 0 l 526 88 q 353 -10 454 -10 m 447 897 q 488 921 465 921 q 526 906 511 921 q 542 870 542 892 q 507 818 542 849 l 363 703 l 332 736 l 447 897 z "},"û":{"ha":767,"x_min":33,"x_max":729,"o":"m 353 -10 q 129 214 129 -10 l 129 485 q 108 555 129 536 q 33 576 88 574 l 36 617 q 221 665 83 625 l 249 651 l 249 199 q 368 53 249 53 q 444 80 404 53 q 515 163 485 107 l 515 485 q 494 555 515 536 q 418 576 472 574 l 422 617 q 607 665 469 625 l 633 651 l 633 86 q 729 49 664 60 l 725 0 l 540 0 l 526 88 q 353 -10 454 -10 m 339 885 q 383 907 358 907 q 425 885 407 907 l 553 736 l 521 703 l 381 810 l 240 703 l 210 736 l 339 885 z "},"ü":{"ha":767,"x_min":33,"x_max":729,"o":"m 353 -10 q 129 214 129 -10 l 129 485 q 108 555 129 536 q 33 576 88 574 l 36 617 q 221 665 83 625 l 249 651 l 249 199 q 368 53 249 53 q 444 80 404 53 q 515 163 485 107 l 515 485 q 494 555 515 536 q 418 576 472 574 l 422 617 q 607 665 469 625 l 633 651 l 633 86 q 729 49 664 60 l 725 0 l 540 0 l 526 88 q 353 -10 454 -10 m 331 823 q 331 786 331 823 q 265 750 331 750 q 200 823 200 750 q 265 896 200 896 q 331 823 331 896 m 496 750 q 432 823 432 750 q 496 896 432 896 q 563 823 563 896 q 496 750 563 750 z "},"ý":{"ha":700,"x_min":-10,"x_max":700,"o":"m 360 -117 q 281 -260 325 -218 q 177 -303 238 -303 q 81 -273 117 -303 q 44 -201 44 -243 q 64 -137 44 -158 q 110 -117 83 -117 q 161 -132 138 -117 q 144 -178 144 -156 q 157 -215 144 -201 q 194 -228 169 -228 q 288 -101 246 -228 l 317 -11 l 89 547 q -10 606 71 592 l -7 649 l 296 649 l 292 607 q 210 576 239 603 l 371 153 l 508 576 q 426 607 478 600 l 429 649 l 700 649 l 697 607 q 596 565 606 593 l 360 -117 m 411 897 q 452 921 429 921 q 490 906 475 921 q 506 870 506 892 q 471 818 506 849 l 326 703 l 296 736 l 411 897 z "},"þ":{"ha":760,"x_min":33,"x_max":681,"o":"m 129 788 q 108 858 129 839 q 33 879 88 876 l 36 919 q 221 968 83 928 l 249 954 l 249 569 q 426 661 307 661 q 681 339 681 661 q 600 80 681 169 q 367 -10 519 -10 q 249 13 301 -10 l 249 -207 q 344 -244 282 -233 l 340 -292 l 33 -292 l 38 -242 q 129 -207 93 -235 l 129 788 m 414 601 q 249 340 249 601 l 249 75 q 379 49 299 49 q 509 125 460 49 q 558 338 558 201 q 523 538 558 474 q 414 601 488 601 z "},"ÿ":{"ha":700,"x_min":-10,"x_max":700,"o":"m 360 -117 q 281 -260 325 -218 q 177 -303 238 -303 q 81 -273 117 -303 q 44 -201 44 -243 q 64 -137 44 -158 q 110 -117 83 -117 q 161 -132 138 -117 q 144 -178 144 -156 q 157 -215 144 -201 q 194 -228 169 -228 q 288 -101 246 -228 l 317 -11 l 89 547 q -10 606 71 592 l -7 649 l 296 649 l 292 607 q 210 576 239 603 l 371 153 l 508 576 q 426 607 478 600 l 429 649 l 700 649 l 697 607 q 596 565 606 593 l 360 -117 m 294 823 q 294 786 294 823 q 229 750 294 750 q 164 823 164 750 q 229 896 164 896 q 294 823 294 896 m 460 750 q 396 823 396 750 q 460 896 396 896 q 526 823 526 896 q 460 750 526 750 z "},"Ā":{"ha":865,"x_min":18,"x_max":844,"o":"m 18 0 l 25 51 q 124 88 88 61 l 383 926 l 467 926 l 753 86 q 844 51 788 61 l 839 0 l 492 0 l 499 51 q 626 89 579 61 l 556 299 l 275 299 l 211 89 q 346 51 257 63 l 340 0 l 18 0 m 410 733 l 297 371 l 532 371 l 410 733 m 236 1028 l 236 1089 l 622 1089 l 622 1028 l 236 1028 z "},"ā":{"ha":678,"x_min":61,"x_max":650,"o":"m 242 -10 q 108 32 156 -10 q 61 156 61 74 q 128 291 61 239 q 321 351 194 343 l 435 360 l 435 472 q 406 574 435 542 q 311 606 376 606 q 196 543 196 606 q 238 492 196 507 q 158 425 238 425 q 100 447 122 425 q 78 506 78 469 q 141 619 78 576 q 315 661 204 661 q 489 611 425 661 q 553 472 553 561 l 553 85 q 650 47 585 61 l 644 0 l 453 0 l 439 63 q 242 -10 361 -10 m 183 161 q 276 47 183 47 q 435 128 350 47 l 435 303 l 324 293 q 221 252 258 288 q 183 161 183 217 m 124 764 l 124 825 l 510 825 l 510 764 l 124 764 z "},"Ă":{"ha":865,"x_min":18,"x_max":844,"o":"m 18 0 l 25 51 q 124 88 88 61 l 383 926 l 467 926 l 753 86 q 844 51 788 61 l 839 0 l 492 0 l 499 51 q 626 89 579 61 l 556 299 l 275 299 l 211 89 q 346 51 257 63 l 340 0 l 18 0 m 410 733 l 297 371 l 532 371 l 410 733 m 544 1026 q 521 1003 544 1026 q 429 981 499 981 q 315 1026 360 981 q 267 1144 271 1071 q 321 1154 296 1154 q 353 1083 324 1110 q 430 1056 383 1056 q 506 1083 476 1056 q 539 1154 536 1110 q 592 1146 569 1154 q 544 1026 589 1071 z "},"ă":{"ha":678,"x_min":61,"x_max":650,"o":"m 242 -10 q 108 32 156 -10 q 61 156 61 74 q 128 291 61 239 q 321 351 194 343 l 435 360 l 435 472 q 406 574 435 542 q 311 606 376 606 q 196 543 196 606 q 238 492 196 507 q 158 425 238 425 q 100 447 122 425 q 78 506 78 469 q 141 619 78 576 q 315 661 204 661 q 489 611 425 661 q 553 472 553 561 l 553 85 q 650 47 585 61 l 644 0 l 453 0 l 439 63 q 242 -10 361 -10 m 183 161 q 276 47 183 47 q 435 128 350 47 l 435 303 l 324 293 q 221 252 258 288 q 183 161 183 217 m 431 762 q 409 739 431 762 q 317 717 386 717 q 203 762 247 717 q 154 881 158 807 q 208 890 183 890 q 241 819 211 846 q 317 792 271 792 q 394 819 364 792 q 426 890 424 846 q 479 882 456 890 q 431 762 476 807 z "},"Ą":{"ha":865,"x_min":18,"x_max":844,"o":"m 769 0 q 660 -51 703 0 q 618 -154 618 -103 q 676 -221 618 -221 q 744 -200 707 -221 l 768 -229 q 644 -283 718 -283 q 559 -256 594 -283 q 524 -179 524 -228 q 556 -92 524 -136 q 589 -51 565 -79 q 625 -8 613 -24 q 638 33 638 8 q 626 89 638 58 l 556 299 l 275 299 l 211 89 q 346 51 257 63 l 340 0 l 18 0 l 25 51 q 124 88 88 61 l 383 926 l 467 926 l 753 86 q 844 51 788 61 l 839 0 l 769 0 m 410 733 l 297 371 l 532 371 l 410 733 z "},"ą":{"ha":678,"x_min":57,"x_max":646,"o":"m 564 0 q 460 -51 501 0 q 419 -154 419 -103 q 478 -221 419 -221 q 546 -200 508 -221 l 569 -229 q 446 -283 519 -283 q 360 -256 396 -283 q 325 -185 325 -228 q 355 -102 325 -143 q 414 -27 385 -61 q 443 25 443 7 q 439 67 443 43 q 350 8 394 26 q 228 -10 306 -10 q 104 32 151 -10 q 57 156 57 74 q 124 291 57 239 q 317 351 190 343 l 431 360 l 431 472 q 401 574 431 542 q 307 606 372 606 q 192 543 192 606 q 233 492 192 507 q 154 425 233 425 q 96 447 118 425 q 74 506 74 469 q 137 619 74 576 q 310 661 200 661 q 485 611 421 661 q 549 472 549 561 l 549 85 q 646 47 581 61 l 640 0 l 564 0 m 179 161 q 272 47 179 47 q 431 128 346 47 l 431 303 l 319 293 q 217 252 254 288 q 179 161 179 217 z "},"Ć":{"ha":781,"x_min":89,"x_max":742,"o":"m 447 -10 q 176 106 264 -10 q 89 463 89 221 q 177 822 89 706 q 449 939 265 939 q 647 887 568 939 q 725 756 725 835 q 701 678 725 710 q 647 646 678 646 q 594 661 617 646 q 564 700 572 676 q 590 774 590 736 q 551 838 590 813 q 449 864 513 864 q 282 766 336 864 q 228 465 228 668 q 281 168 228 263 q 449 74 335 74 q 590 108 521 74 q 693 188 658 142 l 742 135 q 695 89 729 118 q 629 40 661 60 q 447 -10 547 -10 m 499 1175 q 540 1199 517 1199 q 578 1184 563 1199 q 593 1148 593 1169 q 558 1096 593 1126 l 414 981 l 383 1014 l 499 1175 z "},"ć":{"ha":613,"x_min":58,"x_max":571,"o":"m 357 661 q 512 620 453 661 q 571 514 571 579 q 549 457 571 482 q 499 432 528 432 q 451 446 471 432 q 425 482 432 460 q 443 540 443 511 q 419 590 443 568 q 351 611 396 611 q 270 589 306 611 q 217 525 235 567 q 188 358 188 453 q 193 221 188 264 q 215 138 199 178 q 358 58 249 58 q 449 75 404 58 q 514 108 493 92 l 535 124 l 571 82 q 543 57 561 72 q 467 16 525 42 q 351 -10 410 -10 q 126 76 194 -10 q 58 331 58 161 q 357 661 63 661 m 381 897 q 422 921 399 921 q 460 906 444 921 q 475 870 475 892 q 440 818 475 849 l 296 703 l 265 736 l 381 897 z "},"Ĉ":{"ha":781,"x_min":89,"x_max":742,"o":"m 447 -10 q 176 106 264 -10 q 89 463 89 221 q 177 822 89 706 q 449 939 265 939 q 647 887 568 939 q 725 756 725 835 q 701 678 725 710 q 647 646 678 646 q 594 661 617 646 q 564 700 572 676 q 590 774 590 736 q 551 838 590 813 q 449 864 513 864 q 282 766 336 864 q 228 465 228 668 q 281 168 228 263 q 449 74 335 74 q 590 108 521 74 q 693 188 658 142 l 742 135 q 695 89 729 118 q 629 40 661 60 q 447 -10 547 -10 m 390 1163 q 434 1185 410 1185 q 476 1163 458 1185 l 604 1014 l 572 981 l 432 1088 l 292 981 l 261 1014 l 390 1163 z "},"ĉ":{"ha":613,"x_min":58,"x_max":571,"o":"m 357 661 q 512 620 453 661 q 571 514 571 579 q 549 457 571 482 q 499 432 528 432 q 451 446 471 432 q 425 482 432 460 q 443 540 443 511 q 419 590 443 568 q 351 611 396 611 q 270 589 306 611 q 217 525 235 567 q 188 358 188 453 q 193 221 188 264 q 215 138 199 178 q 358 58 249 58 q 449 75 404 58 q 514 108 493 92 l 535 124 l 571 82 q 543 57 561 72 q 467 16 525 42 q 351 -10 410 -10 q 126 76 194 -10 q 58 331 58 161 q 357 661 63 661 m 272 885 q 316 907 292 907 q 358 885 340 907 l 486 736 l 454 703 l 314 810 l 174 703 l 143 736 l 272 885 z "},"Ċ":{"ha":781,"x_min":89,"x_max":742,"o":"m 447 -10 q 176 106 264 -10 q 89 463 89 221 q 177 822 89 706 q 449 939 265 939 q 647 887 568 939 q 725 756 725 835 q 701 678 725 710 q 647 646 678 646 q 594 661 617 646 q 564 700 572 676 q 590 774 590 736 q 551 838 590 813 q 449 864 513 864 q 282 766 336 864 q 228 465 228 668 q 281 168 228 263 q 449 74 335 74 q 590 108 521 74 q 693 188 658 142 l 742 135 q 695 89 729 118 q 629 40 661 60 q 447 -10 547 -10 m 433 1168 q 469 1168 433 1168 q 506 1088 506 1168 q 433 1007 506 1007 q 360 1088 360 1007 q 433 1168 360 1168 z "},"ċ":{"ha":613,"x_min":58,"x_max":571,"o":"m 357 661 q 512 620 453 661 q 571 514 571 579 q 549 457 571 482 q 499 432 528 432 q 451 446 471 432 q 425 482 432 460 q 443 540 443 511 q 419 590 443 568 q 351 611 396 611 q 270 589 306 611 q 217 525 235 567 q 188 358 188 453 q 193 221 188 264 q 215 138 199 178 q 358 58 249 58 q 449 75 404 58 q 514 108 493 92 l 535 124 l 571 82 q 543 57 561 72 q 467 16 525 42 q 351 -10 410 -10 q 126 76 194 -10 q 58 331 58 161 q 357 661 63 661 m 315 911 q 351 911 315 911 q 388 831 388 911 q 315 750 388 750 q 242 831 242 750 q 315 911 242 911 z "},"Č":{"ha":781,"x_min":89,"x_max":742,"o":"m 447 -10 q 176 106 264 -10 q 89 463 89 221 q 177 822 89 706 q 449 939 265 939 q 647 887 568 939 q 725 756 725 835 q 701 678 725 710 q 647 646 678 646 q 594 661 617 646 q 564 700 572 676 q 590 774 590 736 q 551 838 590 813 q 449 864 513 864 q 282 766 336 864 q 228 465 228 668 q 281 168 228 263 q 449 74 335 74 q 590 108 521 74 q 693 188 658 142 l 742 135 q 695 89 729 118 q 629 40 661 60 q 447 -10 547 -10 m 475 1003 q 433 981 457 981 q 389 1003 408 981 l 261 1150 l 292 1185 l 432 1078 l 574 1185 l 604 1150 l 475 1003 z "},"č":{"ha":613,"x_min":58,"x_max":571,"o":"m 357 661 q 512 620 453 661 q 571 514 571 579 q 549 457 571 482 q 499 432 528 432 q 451 446 471 432 q 425 482 432 460 q 443 540 443 511 q 419 590 443 568 q 351 611 396 611 q 270 589 306 611 q 217 525 235 567 q 188 358 188 453 q 193 221 188 264 q 215 138 199 178 q 358 58 249 58 q 449 75 404 58 q 514 108 493 92 l 535 124 l 571 82 q 543 57 561 72 q 467 16 525 42 q 351 -10 410 -10 q 126 76 194 -10 q 58 331 58 161 q 357 661 63 661 m 357 725 q 315 703 339 703 q 271 725 290 703 l 143 872 l 174 907 l 314 800 l 456 907 l 486 872 l 357 725 z "},"Ď":{"ha":919,"x_min":56,"x_max":846,"o":"m 361 926 q 725 815 604 926 q 846 462 846 704 q 724 110 846 219 q 353 0 603 0 l 57 0 l 64 51 q 190 88 149 63 l 190 839 q 56 876 142 865 l 63 926 l 361 926 m 381 857 l 314 857 l 314 74 q 376 68 338 68 q 625 158 543 68 q 707 463 707 247 q 626 768 707 679 q 381 857 546 857 m 493 1003 q 451 981 475 981 q 407 1003 426 981 l 279 1150 l 310 1185 l 450 1078 l 592 1185 l 622 1150 l 493 1003 z "},"ď":{"ha":942,"x_min":76,"x_max":847,"o":"m 331 -10 q 76 311 76 -10 q 157 572 76 482 q 390 661 238 661 q 508 638 450 661 l 508 788 q 488 858 508 839 q 413 879 467 876 l 415 919 q 600 968 463 928 l 628 954 l 628 85 q 724 47 660 60 l 719 0 l 519 0 l 508 82 q 331 -10 450 -10 m 343 50 q 508 311 508 50 l 508 575 q 386 603 456 603 q 248 526 297 603 q 199 313 199 450 q 234 113 199 176 q 343 50 269 50 m 728 703 q 753 819 753 768 q 722 896 753 869 q 776 926 743 926 q 828 908 808 926 q 847 861 847 890 q 771 685 847 786 l 728 703 z "},"Đ":{"ha":924,"x_min":56,"x_max":846,"o":"m 83 422 l 83 483 l 190 483 l 190 839 q 56 876 142 865 l 63 926 l 361 926 q 725 815 604 926 q 846 462 846 704 q 724 110 846 219 q 353 0 603 0 l 57 0 l 64 51 q 190 88 149 63 l 190 422 l 83 422 m 381 857 l 314 857 l 314 483 l 469 483 l 469 422 l 314 422 l 314 74 q 376 68 338 68 q 625 158 543 68 q 707 463 707 247 q 626 768 707 679 q 381 857 546 857 z "},"đ":{"ha":771,"x_min":72,"x_max":725,"o":"m 339 729 l 339 790 l 504 790 q 482 858 503 839 q 408 879 461 876 l 411 919 q 596 968 458 928 l 624 954 l 624 790 l 725 790 l 725 729 l 624 729 l 624 85 q 719 47 656 60 l 715 0 l 515 0 l 504 82 q 326 -10 446 -10 q 72 311 72 -10 q 153 572 72 482 q 386 661 233 661 q 504 638 446 661 l 504 729 l 339 729 m 339 50 q 504 311 504 50 l 504 575 q 382 603 451 603 q 244 526 293 603 q 194 313 194 450 q 230 113 194 176 q 339 50 265 50 z "},"Ē":{"ha":799,"x_min":43,"x_max":713,"o":"m 681 715 q 649 708 663 708 q 621 711 635 708 q 563 853 603 803 l 301 853 l 301 506 l 458 513 q 536 606 513 514 l 581 606 l 581 331 l 536 331 q 522 381 529 364 q 498 415 515 397 q 457 433 481 432 l 301 442 l 301 81 l 597 81 q 657 238 639 139 q 682 240 674 240 q 713 238 690 240 l 700 0 l 43 0 l 51 51 q 179 89 144 63 l 179 839 q 43 876 126 867 q 50 926 49 910 l 669 926 l 681 715 m 185 1028 l 185 1089 l 571 1089 l 571 1028 l 185 1028 z "},"ē":{"ha":678,"x_min":83,"x_max":626,"o":"m 211 338 l 211 331 q 254 108 211 161 q 382 58 294 58 q 472 75 428 58 q 539 108 517 92 l 560 124 l 594 82 q 567 57 585 72 q 492 16 549 42 q 376 -10 435 -10 q 151 76 218 -10 q 83 323 83 161 q 158 573 83 485 q 372 661 232 661 q 567 589 511 661 q 626 375 622 517 l 597 338 l 211 338 m 368 606 q 211 389 215 606 l 501 399 q 473 557 501 508 q 368 606 444 606 m 161 764 l 161 825 l 547 825 l 547 764 l 161 764 z "},"Ĕ":{"ha":799,"x_min":43,"x_max":713,"o":"m 681 715 q 649 708 663 708 q 621 711 635 708 q 563 853 603 803 l 301 853 l 301 506 l 458 513 q 536 606 513 514 l 581 606 l 581 331 l 536 331 q 522 381 529 364 q 498 415 515 397 q 457 433 481 432 l 301 442 l 301 81 l 597 81 q 657 238 639 139 q 682 240 674 240 q 713 238 690 240 l 700 0 l 43 0 l 51 51 q 179 89 144 63 l 179 839 q 43 876 126 867 q 50 926 49 910 l 669 926 l 681 715 m 492 1026 q 470 1003 492 1026 q 378 981 447 981 q 264 1026 308 981 q 215 1144 219 1071 q 269 1154 244 1154 q 302 1083 272 1110 q 378 1056 332 1056 q 455 1083 425 1056 q 488 1154 485 1110 q 540 1146 517 1154 q 492 1026 538 1071 z "},"ĕ":{"ha":678,"x_min":83,"x_max":626,"o":"m 211 338 l 211 331 q 254 108 211 161 q 382 58 294 58 q 472 75 428 58 q 539 108 517 92 l 560 124 l 594 82 q 567 57 585 72 q 492 16 549 42 q 376 -10 435 -10 q 151 76 218 -10 q 83 323 83 161 q 158 573 83 485 q 372 661 232 661 q 567 589 511 661 q 626 375 622 517 l 597 338 l 211 338 m 368 606 q 211 389 215 606 l 501 399 q 473 557 501 508 q 368 606 444 606 m 469 762 q 446 739 469 762 q 354 717 424 717 q 240 762 285 717 q 192 881 196 807 q 246 890 221 890 q 278 819 249 846 q 355 792 308 792 q 431 819 401 792 q 464 890 461 846 q 517 882 494 890 q 469 762 514 807 z "},"Ė":{"ha":799,"x_min":43,"x_max":713,"o":"m 681 715 q 649 708 663 708 q 621 711 635 708 q 563 853 603 803 l 301 853 l 301 506 l 458 513 q 536 606 513 514 l 581 606 l 581 331 l 536 331 q 522 381 529 364 q 498 415 515 397 q 457 433 481 432 l 301 442 l 301 81 l 597 81 q 657 238 639 139 q 682 240 674 240 q 713 238 690 240 l 700 0 l 43 0 l 51 51 q 179 89 144 63 l 179 839 q 43 876 126 867 q 50 926 49 910 l 669 926 l 681 715 m 378 1168 q 415 1168 378 1168 q 451 1088 451 1168 q 378 1007 451 1007 q 306 1088 306 1007 q 378 1168 306 1168 z "},"ė":{"ha":678,"x_min":83,"x_max":626,"o":"m 211 338 l 211 331 q 254 108 211 161 q 382 58 294 58 q 472 75 428 58 q 539 108 517 92 l 560 124 l 594 82 q 567 57 585 72 q 492 16 549 42 q 376 -10 435 -10 q 151 76 218 -10 q 83 323 83 161 q 158 573 83 485 q 372 661 232 661 q 567 589 511 661 q 626 375 622 517 l 597 338 l 211 338 m 368 606 q 211 389 215 606 l 501 399 q 473 557 501 508 q 368 606 444 606 m 355 911 q 391 911 355 911 q 428 831 428 911 q 355 750 428 750 q 282 831 282 750 q 355 911 282 911 z "},"Ę":{"ha":799,"x_min":43,"x_max":713,"o":"m 681 715 q 649 708 663 708 q 621 711 635 708 q 563 853 603 803 l 301 853 l 301 506 l 458 513 q 536 606 513 514 l 581 606 l 581 331 l 536 331 q 522 381 529 364 q 498 415 515 397 q 457 433 481 432 l 301 442 l 301 81 l 597 81 q 657 238 639 139 q 682 240 674 240 q 713 238 690 240 l 700 0 l 693 0 q 582 -47 629 -3 q 535 -156 535 -92 q 593 -221 535 -221 q 661 -200 624 -221 l 685 -229 q 561 -283 635 -283 q 476 -256 511 -283 q 440 -187 440 -228 q 456 -117 440 -146 q 506 -50 472 -87 q 549 0 539 -12 l 43 0 l 51 51 q 179 89 144 63 l 179 839 q 43 876 126 867 q 50 926 49 910 l 669 926 l 681 715 z "},"ę":{"ha":678,"x_min":83,"x_max":626,"o":"m 368 606 q 211 389 215 606 l 501 399 q 473 557 501 508 q 368 606 444 606 m 211 338 l 211 331 q 254 108 211 161 q 382 58 294 58 q 472 75 428 58 q 539 108 517 92 l 560 124 l 594 82 q 544 43 576 64 q 449 -46 489 10 q 410 -154 410 -101 q 468 -221 410 -221 q 536 -200 499 -221 l 560 -229 q 436 -283 510 -283 q 351 -256 386 -283 q 315 -187 315 -228 q 330 -119 315 -147 q 378 -53 344 -92 q 419 -6 413 -15 q 376 -10 399 -10 q 151 76 218 -10 q 83 323 83 161 q 158 573 83 485 q 372 661 232 661 q 567 589 511 661 q 626 375 622 517 l 597 338 l 211 338 z "},"Ě":{"ha":799,"x_min":43,"x_max":713,"o":"m 681 715 q 649 708 663 708 q 621 711 635 708 q 563 853 603 803 l 301 853 l 301 506 l 458 513 q 536 606 513 514 l 581 606 l 581 331 l 536 331 q 522 381 529 364 q 498 415 515 397 q 457 433 481 432 l 301 442 l 301 81 l 597 81 q 657 238 639 139 q 682 240 674 240 q 713 238 690 240 l 700 0 l 43 0 l 51 51 q 179 89 144 63 l 179 839 q 43 876 126 867 q 50 926 49 910 l 669 926 l 681 715 m 421 1003 q 378 981 403 981 q 335 1003 354 981 l 207 1150 l 238 1185 l 378 1078 l 519 1185 l 550 1150 l 421 1003 z "},"ě":{"ha":678,"x_min":83,"x_max":626,"o":"m 211 338 l 211 331 q 254 108 211 161 q 382 58 294 58 q 472 75 428 58 q 539 108 517 92 l 560 124 l 594 82 q 567 57 585 72 q 492 16 549 42 q 376 -10 435 -10 q 151 76 218 -10 q 83 323 83 161 q 158 573 83 485 q 372 661 232 661 q 567 589 511 661 q 626 375 622 517 l 597 338 l 211 338 m 368 606 q 211 389 215 606 l 501 399 q 473 557 501 508 q 368 606 444 606 m 397 725 q 355 703 379 703 q 311 725 331 703 l 183 872 l 214 907 l 354 800 l 496 907 l 526 872 l 397 725 z "},"Ĝ":{"ha":849,"x_min":93,"x_max":765,"o":"m 471 -10 q 180 112 267 -10 q 93 464 93 233 q 181 817 93 694 q 472 939 269 939 q 717 861 632 939 q 765 762 765 817 q 741 676 765 707 q 686 646 717 646 q 633 661 656 646 q 603 700 611 676 q 629 777 629 739 q 585 840 629 815 q 470 864 542 864 q 349 833 399 864 q 276 742 300 801 q 242 617 251 682 q 233 464 233 553 q 242 310 233 375 q 275 186 251 246 q 471 64 324 64 q 642 115 569 64 l 642 358 q 500 388 590 381 l 506 439 l 765 451 l 765 58 q 471 -10 642 -10 m 406 1163 q 449 1185 425 1185 q 492 1163 474 1185 l 619 1014 l 588 981 l 447 1088 l 307 981 l 276 1014 l 406 1163 z "},"ĝ":{"ha":686,"x_min":63,"x_max":653,"o":"m 335 660 q 490 626 431 660 q 540 681 540 642 q 515 722 540 704 l 497 703 l 357 810 l 217 703 l 186 736 l 315 885 q 359 907 335 907 q 401 885 383 907 l 511 757 q 563 778 529 778 q 617 758 597 778 q 636 708 636 739 q 539 588 636 621 q 590 428 590 531 q 522 265 590 325 q 335 204 453 204 l 315 204 l 257 132 q 278 103 260 111 q 346 93 297 94 l 404 93 q 592 35 532 93 q 653 -111 653 -22 q 358 -304 653 -304 q 137 -257 211 -304 q 63 -135 63 -210 q 86 -27 63 -60 q 169 39 110 6 q 139 132 139 74 l 253 213 q 126 288 171 232 q 81 428 81 344 q 335 660 81 660 m 236 301 q 251 281 236 301 q 335 261 267 261 q 433 301 403 261 q 464 432 464 342 q 433 563 464 522 q 335 604 403 604 q 236 563 267 604 q 206 432 206 522 q 236 301 206 342 m 371 -1 l 253 -1 q 190 -111 190 -42 q 358 -247 190 -247 q 525 -111 525 -247 q 371 -1 525 -1 z "},"Ğ":{"ha":849,"x_min":93,"x_max":765,"o":"m 471 -10 q 180 112 267 -10 q 93 464 93 233 q 181 817 93 694 q 472 939 269 939 q 717 861 632 939 q 765 762 765 817 q 741 676 765 707 q 686 646 717 646 q 633 661 656 646 q 603 700 611 676 q 629 777 629 739 q 585 840 629 815 q 470 864 542 864 q 349 833 399 864 q 276 742 300 801 q 242 617 251 682 q 233 464 233 553 q 242 310 233 375 q 275 186 251 246 q 471 64 324 64 q 642 115 569 64 l 642 358 q 500 388 590 381 l 506 439 l 765 451 l 765 58 q 471 -10 642 -10 m 562 1026 q 539 1003 562 1026 q 447 981 517 981 q 333 1026 378 981 q 285 1144 289 1071 q 339 1154 314 1154 q 372 1083 342 1110 q 448 1056 401 1056 q 524 1083 494 1056 q 557 1154 554 1110 q 610 1146 588 1154 q 562 1026 607 1071 z "},"ğ":{"ha":686,"x_min":63,"x_max":653,"o":"m 335 660 q 490 626 431 660 q 540 677 540 642 q 501 731 540 713 q 519 765 501 751 q 567 778 536 778 q 617 758 597 778 q 636 708 636 739 q 539 588 636 621 q 590 428 590 531 q 522 265 590 325 q 335 204 453 204 l 315 204 l 257 132 q 278 103 260 111 q 346 93 297 94 l 404 93 q 592 35 532 93 q 653 -111 653 -22 q 358 -304 653 -304 q 137 -257 211 -304 q 63 -135 63 -210 q 86 -27 63 -60 q 169 39 110 6 q 139 132 139 74 l 253 213 q 126 288 171 232 q 81 428 81 344 q 335 660 81 660 m 236 301 q 251 281 236 301 q 335 261 267 261 q 433 301 403 261 q 464 432 464 342 q 433 563 464 522 q 335 604 403 604 q 236 563 267 604 q 206 432 206 522 q 236 301 206 342 m 371 -1 l 253 -1 q 190 -111 190 -42 q 358 -247 190 -247 q 525 -111 525 -247 q 371 -1 525 -1 m 449 762 q 427 739 449 762 q 335 717 404 717 q 221 762 265 717 q 172 881 176 807 q 226 890 201 890 q 259 819 229 846 q 335 792 289 792 q 412 819 382 792 q 444 890 442 846 q 497 882 475 890 q 449 762 494 807 z "},"Ġ":{"ha":849,"x_min":93,"x_max":765,"o":"m 471 -10 q 180 112 267 -10 q 93 464 93 233 q 181 817 93 694 q 472 939 269 939 q 717 861 632 939 q 765 762 765 817 q 741 676 765 707 q 686 646 717 646 q 633 661 656 646 q 603 700 611 676 q 629 777 629 739 q 585 840 629 815 q 470 864 542 864 q 349 833 399 864 q 276 742 300 801 q 242 617 251 682 q 233 464 233 553 q 242 310 233 375 q 275 186 251 246 q 471 64 324 64 q 642 115 569 64 l 642 358 q 500 388 590 381 l 506 439 l 765 451 l 765 58 q 471 -10 642 -10 m 448 1168 q 484 1168 448 1168 q 521 1088 521 1168 q 448 1007 521 1007 q 375 1088 375 1007 q 448 1168 375 1168 z "},"ġ":{"ha":686,"x_min":63,"x_max":653,"o":"m 335 660 q 490 626 431 660 q 540 677 540 642 q 501 731 540 713 q 519 765 501 751 q 567 778 536 778 q 617 758 597 778 q 636 708 636 739 q 539 588 636 621 q 590 428 590 531 q 522 265 590 325 q 335 204 453 204 l 315 204 l 257 132 q 278 103 260 111 q 346 93 297 94 l 404 93 q 592 35 532 93 q 653 -111 653 -22 q 358 -304 653 -304 q 137 -257 211 -304 q 63 -135 63 -210 q 86 -27 63 -60 q 169 39 110 6 q 139 132 139 74 l 253 213 q 126 288 171 232 q 81 428 81 344 q 335 660 81 660 m 236 301 q 251 281 236 301 q 335 261 267 261 q 433 301 403 261 q 464 432 464 342 q 433 563 464 522 q 335 604 403 604 q 236 563 267 604 q 206 432 206 522 q 236 301 206 342 m 371 -1 l 253 -1 q 190 -111 190 -42 q 358 -247 190 -247 q 525 -111 525 -247 q 371 -1 525 -1 m 358 911 q 394 911 358 911 q 431 831 431 911 q 358 750 431 750 q 285 831 285 750 q 358 911 285 911 z "},"Ģ":{"ha":849,"x_min":93,"x_max":765,"o":"m 471 -10 q 180 112 267 -10 q 93 464 93 233 q 181 817 93 694 q 472 939 269 939 q 717 861 632 939 q 765 762 765 817 q 741 676 765 707 q 686 646 717 646 q 633 661 656 646 q 603 700 611 676 q 629 777 629 739 q 585 840 629 815 q 470 864 542 864 q 349 833 399 864 q 276 742 300 801 q 242 617 251 682 q 233 464 233 553 q 242 310 233 375 q 275 186 251 246 q 471 64 324 64 q 642 115 569 64 l 642 358 q 500 388 590 381 l 506 439 l 765 451 l 765 58 q 471 -10 642 -10 m 383 -275 q 408 -159 408 -210 q 378 -82 408 -108 q 431 -51 399 -51 q 483 -69 464 -51 q 503 -117 503 -87 q 426 -293 503 -192 l 383 -275 z "},"ģ":{"ha":686,"x_min":63,"x_max":653,"o":"m 386 968 q 361 852 361 903 q 392 775 361 801 q 338 744 371 744 q 286 763 306 744 q 267 810 267 781 q 343 986 267 885 l 386 968 m 335 660 q 490 626 431 660 q 540 677 540 642 q 501 731 540 713 q 519 765 501 751 q 567 778 536 778 q 617 758 597 778 q 636 708 636 739 q 539 588 636 621 q 590 428 590 531 q 522 265 590 325 q 335 204 453 204 l 315 204 l 257 132 q 278 103 260 111 q 346 93 297 94 l 404 93 q 592 35 532 93 q 653 -111 653 -22 q 358 -304 653 -304 q 137 -257 211 -304 q 63 -135 63 -210 q 86 -27 63 -60 q 169 39 110 6 q 139 132 139 74 l 253 213 q 126 288 171 232 q 81 428 81 344 q 335 660 81 660 m 236 301 q 251 281 236 301 q 335 261 267 261 q 433 301 403 261 q 464 432 464 342 q 433 563 464 522 q 335 604 403 604 q 236 563 267 604 q 206 432 206 522 q 236 301 206 342 m 371 -1 l 253 -1 q 190 -111 190 -42 q 358 -247 190 -247 q 525 -111 525 -247 q 371 -1 525 -1 z "},"Ĥ":{"ha":954,"x_min":35,"x_max":918,"o":"m 668 440 l 286 440 l 286 89 q 422 51 336 61 q 415 0 417 18 l 35 0 l 43 51 q 164 89 115 61 l 164 839 q 35 876 108 868 q 42 926 40 910 l 422 926 l 414 876 q 286 839 338 867 l 286 511 l 668 511 l 668 839 q 532 876 614 867 q 539 926 538 910 l 918 926 q 911 876 913 893 q 790 839 843 868 l 790 89 q 918 51 838 61 l 913 0 l 532 0 l 540 51 q 668 89 621 61 l 668 440 m 435 1163 q 478 1185 454 1185 q 521 1163 503 1185 l 649 1014 l 617 981 l 476 1088 l 336 981 l 306 1014 l 435 1163 z "},"ĥ":{"ha":767,"x_min":33,"x_max":739,"o":"m 131 788 q 109 858 131 839 q 33 879 88 876 l 38 921 q 222 968 88 929 l 249 954 l 249 567 q 426 661 322 661 q 585 610 529 661 q 642 469 642 560 l 642 86 q 739 47 672 61 l 733 0 l 428 0 l 432 47 q 524 86 485 56 l 524 457 q 406 594 524 594 q 314 562 357 594 q 249 478 271 529 l 249 86 q 346 49 283 60 l 340 0 l 33 0 l 39 51 q 131 86 97 60 l 131 788 m 349 1186 q 392 1208 368 1208 q 435 1186 417 1208 l 563 1038 l 531 1004 l 390 1111 l 250 1004 l 219 1038 l 349 1186 z "},"Ħ":{"ha":960,"x_min":38,"x_max":921,"o":"m 671 440 l 289 440 l 289 89 q 425 51 339 61 q 418 0 419 18 l 38 0 l 46 51 q 167 89 118 61 l 167 631 l 43 631 l 43 692 l 167 692 l 167 839 q 38 876 111 868 q 44 926 43 910 l 425 926 l 417 876 q 289 839 340 867 l 289 692 l 671 692 l 671 839 q 535 876 617 867 q 542 926 540 910 l 921 926 q 914 876 915 893 q 793 839 846 868 l 793 692 l 907 692 l 907 631 l 793 631 l 793 89 q 921 51 840 61 l 915 0 l 535 0 l 543 51 q 671 89 624 61 l 671 440 m 289 511 l 671 511 l 671 631 l 289 631 l 289 511 z "},"ħ":{"ha":767,"x_min":28,"x_max":739,"o":"m 28 729 l 28 790 l 131 790 q 108 858 129 839 q 33 879 86 876 l 38 921 q 222 968 88 929 l 249 954 l 249 790 l 414 790 l 414 729 l 249 729 l 249 567 q 426 661 322 661 q 585 610 529 661 q 642 469 642 560 l 642 86 q 739 47 672 61 l 733 0 l 428 0 l 432 47 q 524 86 485 56 l 524 457 q 406 594 524 594 q 314 562 357 594 q 249 478 271 529 l 249 86 q 346 49 283 60 l 340 0 l 33 0 l 39 51 q 131 86 97 60 l 131 729 l 28 729 z "},"Ĩ":{"ha":450,"x_min":7,"x_max":442,"o":"m 28 0 l 36 51 q 164 89 117 61 l 164 839 q 28 876 110 867 q 35 926 33 910 l 419 926 q 413 876 418 910 q 286 839 338 867 l 286 89 q 421 51 332 63 l 414 0 l 28 0 m 7 1044 q 58 1118 22 1083 q 136 1153 94 1153 q 228 1128 178 1153 q 311 1104 278 1104 q 396 1156 344 1104 q 442 1129 419 1147 q 388 1054 425 1090 q 310 1018 351 1018 q 219 1042 269 1018 q 134 1067 168 1067 q 51 1018 100 1067 q 7 1044 29 1024 z "},"ĩ":{"ha":386,"x_min":-25,"x_max":382,"o":"m -25 767 q 23 840 -11 806 q 96 875 57 875 q 182 851 135 875 q 260 826 229 826 q 339 878 290 826 q 382 851 363 868 q 332 776 367 813 q 259 740 297 740 q 174 765 221 740 q 94 789 126 789 q 17 740 63 789 q -25 767 -6 747 m 144 485 q 123 555 144 536 q 47 576 101 574 l 51 617 q 235 665 104 626 l 263 650 l 263 85 q 360 47 297 60 l 354 0 l 47 0 l 53 50 q 144 85 110 60 l 144 485 z "},"Ī":{"ha":450,"x_min":28,"x_max":421,"o":"m 28 0 l 36 51 q 164 89 117 61 l 164 839 q 28 876 110 867 q 35 926 33 910 l 419 926 q 413 876 418 910 q 286 839 338 867 l 286 89 q 421 51 332 63 l 414 0 l 28 0 m 31 1028 l 31 1089 l 417 1089 l 417 1028 l 31 1028 z "},"ī":{"ha":386,"x_min":-1,"x_max":360,"o":"m -1 764 l -1 825 l 329 825 l 329 764 l -1 764 m 144 485 q 123 555 144 536 q 47 576 101 574 l 51 617 q 235 665 104 626 l 263 650 l 263 85 q 360 47 297 60 l 354 0 l 47 0 l 53 50 q 144 85 110 60 l 144 485 z "},"Ĭ":{"ha":450,"x_min":28,"x_max":421,"o":"m 28 0 l 36 51 q 164 89 117 61 l 164 839 q 28 876 110 867 q 35 926 33 910 l 419 926 q 413 876 418 910 q 286 839 338 867 l 286 89 q 421 51 332 63 l 414 0 l 28 0 m 338 1026 q 316 1003 338 1026 q 224 981 293 981 q 110 1026 154 981 q 61 1144 65 1071 q 115 1154 90 1154 q 148 1083 118 1110 q 224 1056 178 1056 q 301 1083 271 1056 q 333 1154 331 1110 q 386 1146 364 1154 q 338 1026 383 1071 z "},"ĭ":{"ha":386,"x_min":11,"x_max":360,"o":"m 144 485 q 123 555 144 536 q 47 576 101 574 l 51 617 q 235 665 104 626 l 263 650 l 263 85 q 360 47 297 60 l 354 0 l 47 0 l 53 50 q 144 85 110 60 l 144 485 m 288 762 q 266 739 288 762 q 174 717 243 717 q 60 762 104 717 q 11 881 15 807 q 65 890 40 890 q 98 819 68 846 q 174 792 128 792 q 251 819 221 792 q 283 890 281 846 q 336 882 314 890 q 288 762 333 807 z "},"Į":{"ha":450,"x_min":28,"x_max":421,"o":"m 164 89 l 164 839 q 28 876 110 867 q 35 926 33 910 l 419 926 q 413 876 418 910 q 286 839 338 867 l 286 89 q 421 51 332 63 l 414 0 l 275 0 q 172 -51 213 0 q 131 -154 131 -103 q 189 -221 131 -221 q 257 -200 219 -221 l 281 -229 q 157 -283 231 -283 q 72 -256 107 -283 q 36 -179 36 -228 q 64 -94 36 -136 q 119 -18 74 -79 q 164 89 164 43 z "},"į":{"ha":386,"x_min":26,"x_max":360,"o":"m 144 68 l 144 485 q 123 555 144 536 q 47 576 101 574 l 51 617 q 235 665 104 626 l 263 650 l 263 85 q 360 47 297 60 l 354 0 l 265 0 q 162 -51 203 0 q 121 -154 121 -103 q 179 -221 121 -221 q 247 -200 210 -221 l 271 -229 q 147 -283 221 -283 q 62 -256 97 -283 q 26 -189 26 -228 q 45 -119 26 -150 q 86 -67 64 -89 q 144 68 144 -3 m 197 924 q 233 924 197 924 q 269 843 269 924 q 197 763 269 763 q 124 843 124 763 q 197 924 124 924 z "},"İ":{"ha":450,"x_min":28,"x_max":421,"o":"m 28 0 l 36 51 q 164 89 117 61 l 164 839 q 28 876 110 867 q 35 926 33 910 l 419 926 q 413 876 418 910 q 286 839 338 867 l 286 89 q 421 51 332 63 l 414 0 l 28 0 m 224 1168 q 261 1168 224 1168 q 297 1088 297 1168 q 224 1007 297 1007 q 151 1088 151 1007 q 224 1168 151 1168 z "},"ı":{"ha":386,"x_min":47,"x_max":360,"o":"m 144 485 q 123 555 144 536 q 47 576 101 574 l 51 617 q 235 665 104 626 l 263 650 l 263 85 q 360 47 297 60 l 354 0 l 47 0 l 53 50 q 144 85 110 60 l 144 485 z "},"Ĳ":{"ha":876,"x_min":28,"x_max":858,"o":"m 28 0 l 36 51 q 164 89 117 61 l 164 839 q 28 876 110 867 q 35 926 33 910 l 419 926 q 413 876 418 910 q 286 839 338 867 l 286 89 q 421 51 332 63 l 414 0 l 28 0 m 725 22 q 655 -170 725 -100 q 454 -275 585 -240 l 439 -233 q 558 -145 514 -199 q 603 1 603 -92 l 603 839 q 467 876 549 867 l 474 926 l 858 926 q 851 876 857 910 q 725 839 774 867 l 725 22 z "},"ĳ":{"ha":756,"x_min":36,"x_max":643,"o":"m 636 -46 q 560 -279 636 -232 q 469 -300 526 -300 q 369 -274 411 -300 q 328 -193 328 -249 q 346 -139 328 -161 q 398 -117 364 -117 q 447 -144 432 -117 q 428 -186 428 -161 q 479 -240 428 -240 q 533 -154 533 -240 q 524 81 533 -68 q 356 -10 453 -10 q 132 214 132 -10 l 132 485 q 111 554 132 535 q 36 576 90 574 l 39 617 q 224 665 110 629 l 251 650 l 251 199 q 371 53 251 53 q 447 80 407 53 q 518 163 488 107 l 518 485 q 497 555 518 536 q 421 576 475 574 l 425 617 q 608 665 496 629 l 636 650 l 636 -46 m 187 911 q 223 911 187 911 q 260 831 260 911 q 187 750 260 750 q 114 831 114 750 q 187 911 114 911 m 570 911 q 607 911 570 911 q 643 831 643 911 q 570 750 643 750 q 497 831 497 750 q 570 911 497 911 z "},"Ĵ":{"ha":426,"x_min":-11,"x_max":408,"o":"m 275 22 q 205 -170 275 -100 q 4 -275 135 -240 l -11 -233 q 108 -145 64 -199 q 153 1 153 -92 l 153 839 q 17 876 99 867 l 24 926 l 408 926 q 401 876 407 910 q 275 839 324 867 l 275 22 m 178 1163 q 222 1185 197 1185 q 264 1163 246 1185 l 392 1014 l 360 981 l 219 1088 l 79 981 l 49 1014 l 178 1163 z "},"ĵ":{"ha":369,"x_min":-46,"x_max":350,"o":"m 136 885 q 180 907 156 907 q 222 885 204 907 l 350 736 l 318 703 l 178 810 l 38 703 l 7 736 l 136 885 m 263 -46 q 186 -279 263 -232 q 96 -300 153 -300 q -3 -274 39 -300 q -46 -193 -46 -249 q -27 -139 -46 -161 q 25 -117 -8 -117 q 75 -144 58 -117 q 54 -186 54 -161 q 68 -226 54 -211 q 106 -240 82 -240 q 161 -150 161 -240 q 153 -34 161 -104 q 144 101 144 36 l 144 485 q 123 555 144 536 q 47 576 101 574 l 51 617 q 236 665 122 629 l 263 650 l 263 -46 z "},"Ķ":{"ha":874,"x_min":36,"x_max":857,"o":"m 36 0 l 44 51 q 171 89 125 61 l 171 839 q 36 876 119 867 q 43 926 42 910 l 431 926 l 422 876 q 294 839 346 868 l 294 89 q 431 51 344 61 q 424 0 425 18 l 36 0 m 578 836 q 492 876 578 874 l 500 926 l 826 926 l 821 876 q 694 832 736 871 l 436 508 l 739 89 q 857 53 779 60 l 849 0 l 626 0 q 604 67 624 38 l 308 483 l 569 808 q 578 836 578 825 m 426 -275 q 451 -159 451 -210 q 421 -82 451 -108 q 474 -51 442 -51 q 526 -69 507 -51 q 546 -117 546 -87 q 469 -293 546 -192 l 426 -275 z "},"ķ":{"ha":728,"x_min":33,"x_max":729,"o":"m 131 788 q 109 858 131 839 q 33 879 88 876 l 38 921 q 222 968 88 929 l 249 954 l 249 379 l 439 571 q 485 649 475 610 l 669 649 l 674 607 q 521 547 578 603 l 393 419 l 601 88 q 729 49 651 60 l 724 0 l 525 0 l 313 339 l 249 276 l 249 86 q 346 49 283 60 l 340 0 l 33 0 l 39 51 q 131 86 97 60 l 131 788 m 331 -275 q 356 -159 356 -210 q 325 -82 356 -108 q 378 -51 346 -51 q 431 -69 411 -51 q 450 -117 450 -87 q 374 -293 450 -192 l 331 -275 z "},"ĸ":{"ha":738,"x_min":35,"x_max":729,"o":"m 132 485 q 110 555 132 536 q 35 576 89 574 l 39 617 q 222 665 115 631 l 250 650 l 250 381 l 439 571 q 485 649 469 604 l 669 649 l 674 607 q 521 547 578 603 l 393 419 l 601 88 q 729 49 651 60 l 724 0 l 525 0 l 313 339 l 250 278 l 250 85 q 347 47 285 60 l 342 0 l 35 0 l 40 50 q 132 85 97 60 l 132 485 z "},"Ĺ":{"ha":746,"x_min":67,"x_max":699,"o":"m 324 81 l 583 81 q 643 238 625 142 q 667 242 653 242 q 699 238 682 242 l 686 0 l 67 0 l 75 51 q 200 89 157 61 l 200 839 q 67 876 149 867 q 74 926 68 893 l 458 926 l 451 876 q 324 839 375 867 l 324 81 m 331 1175 q 372 1199 349 1199 q 410 1184 394 1199 q 425 1148 425 1169 q 390 1096 425 1126 l 246 981 l 215 1014 l 331 1175 z "},"ĺ":{"ha":376,"x_min":32,"x_max":349,"o":"m 129 788 q 108 858 129 839 q 32 879 88 876 l 36 921 q 221 968 86 929 l 247 954 l 247 86 q 344 49 282 60 l 339 0 l 32 0 l 38 51 q 129 86 96 60 l 129 788 m 254 1189 q 295 1213 272 1213 q 333 1198 318 1213 q 349 1162 349 1183 q 314 1110 349 1140 l 169 994 l 139 1028 l 254 1189 z "},"Ļ":{"ha":746,"x_min":67,"x_max":699,"o":"m 324 81 l 583 81 q 643 238 625 142 q 667 242 653 242 q 699 238 682 242 l 686 0 l 67 0 l 75 51 q 200 89 157 61 l 200 839 q 67 876 149 867 q 74 926 68 893 l 458 926 l 451 876 q 324 839 375 867 l 324 81 m 332 -275 q 357 -159 357 -210 q 326 -82 357 -108 q 380 -51 347 -51 q 432 -69 413 -51 q 451 -117 451 -87 q 375 -293 451 -192 l 332 -275 z "},"ļ":{"ha":376,"x_min":32,"x_max":344,"o":"m 129 788 q 108 858 129 839 q 32 879 88 876 l 36 921 q 221 968 86 929 l 247 954 l 247 86 q 344 49 282 60 l 339 0 l 32 0 l 38 51 q 129 86 96 60 l 129 788 m 124 -275 q 149 -159 149 -210 q 118 -82 149 -108 q 172 -51 139 -51 q 224 -69 204 -51 q 243 -117 243 -87 q 167 -293 243 -192 l 124 -275 z "},"Ľ":{"ha":746,"x_min":67,"x_max":699,"o":"m 324 81 l 583 81 q 643 238 625 142 q 667 242 653 242 q 699 238 682 242 l 686 0 l 67 0 l 75 51 q 200 89 157 61 l 200 839 q 67 876 149 867 q 74 926 68 893 l 458 926 l 451 876 q 324 839 375 867 l 324 81 m 561 710 q 586 826 586 775 q 556 903 586 876 q 609 933 576 933 q 661 915 642 933 q 681 868 681 897 q 604 692 681 793 l 561 710 z "},"ľ":{"ha":535,"x_min":32,"x_max":453,"o":"m 129 788 q 108 858 129 839 q 32 879 88 876 l 36 921 q 221 968 86 929 l 247 954 l 247 86 q 344 49 282 60 l 339 0 l 32 0 l 38 51 q 129 86 96 60 l 129 788 m 333 703 q 358 819 358 768 q 328 896 358 869 q 381 926 349 926 q 433 908 414 926 q 453 861 453 890 q 376 685 453 786 l 333 703 z "},"Ŀ":{"ha":864,"x_min":67,"x_max":699,"o":"m 324 81 l 583 81 q 643 238 625 142 q 667 242 653 242 q 699 238 682 242 l 686 0 l 67 0 l 75 51 q 200 89 157 61 l 200 839 q 67 876 149 867 q 74 926 68 893 l 458 926 l 451 876 q 324 839 375 867 l 324 81 m 573 576 q 609 576 573 576 q 646 496 646 576 q 573 415 646 415 q 500 496 500 415 q 573 576 500 576 z "},"ŀ":{"ha":522,"x_min":32,"x_max":471,"o":"m 398 576 q 434 576 398 576 q 471 496 471 576 q 398 415 471 415 q 325 496 325 415 q 398 576 325 576 m 129 788 q 108 858 129 839 q 32 879 88 876 l 36 921 q 221 968 86 929 l 247 954 l 247 86 q 344 49 282 60 l 339 0 l 32 0 l 38 51 q 129 86 96 60 l 129 788 z "},"Ł":{"ha":750,"x_min":8,"x_max":671,"o":"m 296 81 l 556 81 q 615 238 597 142 q 640 242 625 242 q 671 238 654 242 l 658 0 l 39 0 l 47 51 q 172 89 129 61 l 172 378 l 46 306 l 8 369 l 172 464 l 172 839 q 39 876 121 867 q 46 926 40 893 l 431 926 l 424 876 q 296 839 347 867 l 296 535 l 464 632 l 501 568 l 296 450 l 296 81 z "},"ł":{"ha":429,"x_min":8,"x_max":417,"o":"m 156 788 q 135 858 156 839 q 58 879 114 876 l 63 921 q 247 968 113 929 l 274 954 l 274 533 l 379 596 l 417 532 l 274 447 l 274 86 q 371 49 308 60 l 365 0 l 58 0 l 64 51 q 156 86 122 60 l 156 379 l 46 315 l 8 379 l 156 465 l 156 788 z "},"Ń":{"ha":946,"x_min":35,"x_max":925,"o":"m 790 0 l 731 0 l 258 715 l 258 89 q 393 51 304 63 l 388 0 l 35 0 l 43 51 q 171 89 124 61 l 171 839 q 35 876 117 867 q 42 926 40 910 l 263 926 l 700 265 l 700 839 q 567 876 651 865 q 574 926 568 893 l 925 926 q 918 876 919 893 q 790 839 842 868 l 790 0 m 546 1175 q 587 1199 564 1199 q 625 1184 610 1199 q 640 1148 640 1169 q 606 1096 640 1126 l 461 981 l 431 1014 l 546 1175 z "},"ń":{"ha":775,"x_min":42,"x_max":747,"o":"m 532 457 q 413 594 532 594 q 322 562 365 594 q 257 478 279 529 l 257 86 q 354 47 290 60 l 349 0 l 42 0 l 47 50 q 139 86 107 60 l 139 482 q 117 552 139 533 q 42 574 96 571 l 46 614 q 215 661 64 617 l 240 649 l 253 563 q 334 635 285 608 q 436 661 383 661 q 594 610 538 661 q 650 469 650 560 l 650 86 q 747 47 681 61 l 742 0 l 436 0 l 440 47 q 532 86 493 56 l 532 457 m 461 897 q 502 921 479 921 q 540 906 525 921 q 556 870 556 892 q 521 818 556 849 l 376 703 l 346 736 l 461 897 z "},"Ņ":{"ha":946,"x_min":35,"x_max":925,"o":"m 790 0 l 731 0 l 258 715 l 258 89 q 393 51 304 63 l 388 0 l 35 0 l 43 51 q 171 89 124 61 l 171 839 q 35 876 117 867 q 42 926 40 910 l 263 926 l 700 265 l 700 839 q 567 876 651 865 q 574 926 568 893 l 925 926 q 918 876 919 893 q 790 839 842 868 l 790 0 m 415 -275 q 440 -159 440 -210 q 410 -82 440 -108 q 463 -51 431 -51 q 515 -69 496 -51 q 535 -117 535 -87 q 458 -293 535 -192 l 415 -275 z "},"ņ":{"ha":775,"x_min":42,"x_max":747,"o":"m 532 457 q 413 594 532 594 q 322 562 365 594 q 257 478 279 529 l 257 86 q 354 47 290 60 l 349 0 l 42 0 l 47 50 q 139 86 107 60 l 139 482 q 117 552 139 533 q 42 574 96 571 l 46 614 q 215 661 64 617 l 240 649 l 253 563 q 334 635 285 608 q 436 661 383 661 q 594 610 538 661 q 650 469 650 560 l 650 86 q 747 47 681 61 l 742 0 l 436 0 l 440 47 q 532 86 493 56 l 532 457 m 331 -275 q 356 -159 356 -210 q 325 -82 356 -108 q 378 -51 346 -51 q 431 -69 411 -51 q 450 -117 450 -87 q 374 -293 450 -192 l 331 -275 z "},"Ň":{"ha":946,"x_min":35,"x_max":925,"o":"m 790 0 l 731 0 l 258 715 l 258 89 q 393 51 304 63 l 388 0 l 35 0 l 43 51 q 171 89 124 61 l 171 839 q 35 876 117 867 q 42 926 40 910 l 263 926 l 700 265 l 700 839 q 567 876 651 865 q 574 926 568 893 l 925 926 q 918 876 919 893 q 790 839 842 868 l 790 0 m 522 1003 q 480 981 504 981 q 436 1003 456 981 l 308 1150 l 339 1185 l 479 1078 l 621 1185 l 651 1150 l 522 1003 z "},"ň":{"ha":775,"x_min":42,"x_max":747,"o":"m 532 457 q 413 594 532 594 q 322 562 365 594 q 257 478 279 529 l 257 86 q 354 47 290 60 l 349 0 l 42 0 l 47 50 q 139 86 107 60 l 139 482 q 117 552 139 533 q 42 574 96 571 l 46 614 q 215 661 64 617 l 240 649 l 253 563 q 334 635 285 608 q 436 661 383 661 q 594 610 538 661 q 650 469 650 560 l 650 86 q 747 47 681 61 l 742 0 l 436 0 l 440 47 q 532 86 493 56 l 532 457 m 438 725 q 395 703 419 703 q 351 725 371 703 l 224 872 l 254 907 l 394 800 l 536 907 l 567 872 l 438 725 z "},"ŉ":{"ha":958,"x_min":121,"x_max":931,"o":"m 126 703 q 151 819 151 768 q 121 896 151 869 q 174 926 142 926 q 226 908 207 926 q 246 861 246 890 q 169 685 246 786 l 126 703 m 715 457 q 596 594 715 594 q 506 562 549 594 q 440 478 463 529 l 440 86 q 538 47 474 60 l 532 0 l 225 0 l 231 50 q 322 86 290 60 l 322 482 q 301 552 322 533 q 225 574 279 571 l 229 614 q 399 661 247 617 l 424 649 l 436 563 q 517 635 468 608 q 619 661 567 661 q 777 610 721 661 q 833 469 833 560 l 833 86 q 931 47 864 61 l 925 0 l 619 0 l 624 47 q 715 86 676 56 l 715 457 z "},"Ŋ":{"ha":946,"x_min":38,"x_max":928,"o":"m 793 35 q 718 -190 793 -147 q 631 -208 686 -208 q 537 -181 576 -208 q 497 -101 497 -154 q 515 -49 497 -71 q 568 -26 533 -26 q 617 -53 603 -26 q 597 -94 597 -69 q 649 -149 597 -149 q 703 -58 703 -149 l 703 46 l 261 715 l 261 89 q 396 51 307 63 l 390 0 l 38 0 l 46 51 q 174 89 126 61 l 174 839 q 38 876 119 867 q 44 926 43 910 l 265 926 l 703 265 l 703 839 q 569 876 654 865 q 576 926 571 893 l 928 926 q 921 876 922 893 q 793 839 844 868 l 793 35 z "},"ŋ":{"ha":765,"x_min":42,"x_max":650,"o":"m 139 482 q 117 552 139 533 q 42 574 96 571 l 46 614 q 215 661 64 617 l 240 649 l 253 563 q 334 635 285 608 q 436 661 383 661 q 594 610 538 661 q 650 469 650 560 l 650 46 q 574 -187 650 -140 q 485 -208 540 -208 q 390 -183 431 -208 q 349 -101 349 -157 q 367 -49 349 -71 q 419 -26 385 -26 q 465 -53 453 -26 q 449 -94 449 -69 q 461 -134 449 -119 q 496 -149 474 -149 q 549 -58 549 -149 q 540 58 549 -12 q 532 193 532 128 l 532 457 q 413 594 532 594 q 322 562 365 594 q 257 478 279 529 l 257 86 q 354 47 290 60 l 349 0 l 42 0 l 47 50 q 139 86 107 60 l 139 482 z "},"Ō":{"ha":907,"x_min":74,"x_max":833,"o":"m 256 183 q 329 90 279 122 q 447 58 379 58 q 559 81 515 58 q 628 138 603 103 q 669 229 654 174 q 688 338 683 285 q 693 463 693 392 q 688 588 693 533 q 669 697 683 642 q 628 789 654 753 q 454 869 569 869 q 256 744 304 869 q 214 464 214 639 q 256 183 214 292 m 74 465 q 74 580 74 465 q 162 817 74 694 q 453 939 250 939 q 745 816 657 939 q 833 463 833 693 q 745 112 833 233 q 453 -10 657 -10 q 162 113 250 -10 q 74 465 74 235 m 260 1028 l 260 1089 l 646 1089 l 646 1028 l 260 1028 z "},"ō":{"ha":738,"x_min":74,"x_max":663,"o":"m 238 534 q 218 502 238 534 q 199 326 199 471 q 238 118 199 182 q 368 54 278 54 q 499 118 458 54 q 540 326 540 182 q 500 534 540 471 q 369 597 460 597 q 238 534 278 597 m 148 76 q 111 119 148 76 q 74 326 74 163 q 148 576 74 490 q 368 661 222 661 q 588 576 514 661 q 663 326 663 490 q 588 76 663 163 q 368 -10 514 -10 q 148 76 222 -10 m 175 764 l 175 825 l 561 825 l 561 764 l 175 764 z "},"Ŏ":{"ha":907,"x_min":74,"x_max":833,"o":"m 256 183 q 329 90 279 122 q 447 58 379 58 q 559 81 515 58 q 628 138 603 103 q 669 229 654 174 q 688 338 683 285 q 693 463 693 392 q 688 588 693 533 q 669 697 683 642 q 628 789 654 753 q 454 869 569 869 q 256 744 304 869 q 214 464 214 639 q 256 183 214 292 m 74 465 q 74 580 74 465 q 162 817 74 694 q 453 939 250 939 q 745 816 657 939 q 833 463 833 693 q 745 112 833 233 q 453 -10 657 -10 q 162 113 250 -10 q 74 465 74 235 m 567 1026 q 545 1003 567 1026 q 453 981 522 981 q 339 1026 383 981 q 290 1144 294 1071 q 344 1154 319 1154 q 377 1083 347 1110 q 453 1056 407 1056 q 530 1083 500 1056 q 563 1154 560 1110 q 615 1146 592 1154 q 567 1026 613 1071 z "},"ŏ":{"ha":738,"x_min":74,"x_max":663,"o":"m 238 534 q 218 502 238 534 q 199 326 199 471 q 238 118 199 182 q 368 54 278 54 q 499 118 458 54 q 540 326 540 182 q 500 534 540 471 q 369 597 460 597 q 238 534 278 597 m 148 76 q 111 119 148 76 q 74 326 74 163 q 148 576 74 490 q 368 661 222 661 q 588 576 514 661 q 663 326 663 490 q 588 76 663 163 q 368 -10 514 -10 q 148 76 222 -10 m 483 762 q 460 739 483 762 q 368 717 438 717 q 254 762 299 717 q 206 881 210 807 q 260 890 235 890 q 292 819 263 846 q 369 792 322 792 q 445 819 415 792 q 478 890 475 846 q 531 882 508 890 q 483 762 528 807 z "},"Ő":{"ha":907,"x_min":74,"x_max":833,"o":"m 256 183 q 329 90 279 122 q 447 58 379 58 q 559 81 515 58 q 628 138 603 103 q 669 229 654 174 q 688 338 683 285 q 693 463 693 392 q 688 588 693 533 q 669 697 683 642 q 628 789 654 753 q 454 869 569 869 q 256 744 304 869 q 214 464 214 639 q 256 183 214 292 m 74 465 q 74 580 74 465 q 162 817 74 694 q 453 939 250 939 q 745 816 657 939 q 833 463 833 693 q 745 112 833 233 q 453 -10 657 -10 q 162 113 250 -10 q 74 465 74 235 m 426 1169 q 468 1199 442 1199 q 509 1185 494 1199 q 524 1149 524 1171 q 496 1099 524 1126 l 374 981 l 343 1014 l 426 1169 m 592 1172 q 634 1194 613 1194 q 670 1178 656 1194 q 685 1139 685 1163 q 649 1090 685 1115 l 514 981 l 483 1014 l 592 1172 z "},"ő":{"ha":738,"x_min":74,"x_max":663,"o":"m 238 534 q 218 502 238 534 q 199 326 199 471 q 238 118 199 182 q 368 54 278 54 q 499 118 458 54 q 540 326 540 182 q 500 534 540 471 q 369 597 460 597 q 238 534 278 597 m 148 76 q 111 119 148 76 q 74 326 74 163 q 148 576 74 490 q 368 661 222 661 q 588 576 514 661 q 663 326 663 490 q 588 76 663 163 q 368 -10 514 -10 q 148 76 222 -10 m 342 892 q 383 921 357 921 q 424 907 410 921 q 439 871 439 893 q 411 821 439 849 l 289 703 l 258 736 l 342 892 m 507 894 q 549 917 528 917 q 585 901 571 917 q 600 861 600 885 q 564 813 600 838 l 429 703 l 399 736 l 507 894 z "},"Œ":{"ha":1290,"x_min":60,"x_max":1200,"o":"m 439 -10 q 60 465 60 -10 q 439 939 60 939 q 549 926 497 939 l 1156 926 l 1168 715 q 1138 710 1157 710 q 1110 711 1118 710 q 1051 853 1089 804 l 794 853 l 794 499 l 944 513 q 1024 606 1000 517 l 1067 606 l 1067 331 l 1024 331 l 1021 344 q 1008 383 1014 369 q 985 414 1003 397 q 943 433 968 431 l 794 449 l 794 81 l 1085 81 q 1144 238 1126 139 q 1171 240 1161 240 q 1200 238 1181 240 l 1188 0 l 544 0 q 439 -10 486 -10 m 199 499 q 199 445 199 499 q 203 336 199 390 q 223 227 208 282 q 263 138 238 172 q 333 81 289 103 q 439 58 378 58 q 544 81 500 58 q 615 138 589 103 q 656 228 640 172 q 679 438 679 318 q 671 622 679 557 q 639 747 663 688 q 439 869 589 869 q 222 701 267 869 q 199 499 199 608 z "},"œ":{"ha":1136,"x_min":74,"x_max":1074,"o":"m 74 326 q 74 408 74 326 q 148 576 74 490 q 373 661 222 661 q 597 564 524 661 q 816 661 672 661 q 1015 589 960 661 q 1074 375 1071 517 l 1046 338 l 658 338 l 658 331 q 686 138 658 204 q 831 58 719 58 q 921 75 876 58 q 986 108 965 92 l 1007 124 l 1043 82 q 1015 57 1033 72 q 939 16 996 42 q 824 -10 882 -10 q 593 82 664 -10 q 370 -10 518 -10 q 148 76 222 -10 q 74 326 74 163 m 238 534 q 217 502 238 534 q 197 326 197 471 q 238 118 197 182 q 368 54 278 54 q 499 118 458 54 q 539 326 539 182 q 499 534 539 471 q 368 597 458 597 q 238 534 278 597 m 817 606 q 658 389 663 606 l 950 399 q 921 556 950 507 q 817 606 892 606 z "},"Ŕ":{"ha":863,"x_min":53,"x_max":856,"o":"m 417 926 q 735 682 735 926 q 543 453 735 499 q 629 333 590 422 l 739 89 q 856 53 781 61 l 847 0 l 638 0 l 517 310 q 456 413 483 394 q 339 432 428 432 l 311 432 l 311 89 q 446 51 350 64 q 439 0 440 18 l 54 0 l 61 51 q 189 89 142 61 l 189 839 q 53 876 140 867 l 60 926 l 417 926 m 415 869 q 311 860 368 869 l 311 496 l 354 496 q 610 685 610 496 q 415 869 610 869 m 486 1175 q 527 1199 504 1199 q 565 1184 550 1199 q 581 1148 581 1169 q 546 1096 581 1126 l 401 981 l 371 1014 l 486 1175 z "},"ŕ":{"ha":575,"x_min":64,"x_max":567,"o":"m 443 661 q 530 632 493 661 q 567 558 567 603 q 547 488 567 514 q 498 461 526 461 q 449 473 469 461 q 422 504 428 485 q 436 543 436 518 q 397 585 436 585 q 319 528 358 585 q 279 408 279 472 l 279 86 q 389 47 317 61 l 383 0 l 64 0 l 69 50 q 161 86 126 60 l 161 482 q 140 552 161 533 q 64 574 118 571 l 68 614 q 238 661 86 617 l 263 649 l 276 551 q 443 661 350 661 m 382 897 q 423 921 400 921 q 461 906 446 921 q 476 870 476 892 q 442 818 476 849 l 297 703 l 267 736 l 382 897 z "},"Ŗ":{"ha":863,"x_min":53,"x_max":856,"o":"m 417 926 q 735 682 735 926 q 543 453 735 499 q 629 333 590 422 l 739 89 q 856 53 781 61 l 847 0 l 638 0 l 517 310 q 456 413 483 394 q 339 432 428 432 l 311 432 l 311 89 q 446 51 350 64 q 439 0 440 18 l 54 0 l 61 51 q 189 89 142 61 l 189 839 q 53 876 140 867 l 60 926 l 417 926 m 415 869 q 311 860 368 869 l 311 496 l 354 496 q 610 685 610 496 q 415 869 610 869 m 404 -275 q 429 -159 429 -210 q 399 -82 429 -108 q 452 -51 419 -51 q 504 -69 485 -51 q 524 -117 524 -87 q 447 -293 524 -192 l 404 -275 z "},"ŗ":{"ha":575,"x_min":64,"x_max":567,"o":"m 443 661 q 530 632 493 661 q 567 558 567 603 q 547 488 567 514 q 498 461 526 461 q 449 473 469 461 q 422 504 428 485 q 436 543 436 518 q 397 585 436 585 q 319 528 358 585 q 279 408 279 472 l 279 86 q 389 47 317 61 l 383 0 l 64 0 l 69 50 q 161 86 126 60 l 161 482 q 140 552 161 533 q 64 574 118 571 l 68 614 q 238 661 86 617 l 263 649 l 276 551 q 443 661 350 661 m 168 -275 q 193 -159 193 -210 q 163 -82 193 -108 q 216 -51 183 -51 q 268 -69 249 -51 q 288 -117 288 -87 q 211 -293 288 -192 l 168 -275 z "},"Ř":{"ha":863,"x_min":53,"x_max":856,"o":"m 417 926 q 735 682 735 926 q 543 453 735 499 q 629 333 590 422 l 739 89 q 856 53 781 61 l 847 0 l 638 0 l 517 310 q 456 413 483 394 q 339 432 428 432 l 311 432 l 311 89 q 446 51 350 64 q 439 0 440 18 l 54 0 l 61 51 q 189 89 142 61 l 189 839 q 53 876 140 867 l 60 926 l 417 926 m 415 869 q 311 860 368 869 l 311 496 l 354 496 q 610 685 610 496 q 415 869 610 869 m 463 1003 q 420 981 444 981 q 376 1003 396 981 l 249 1150 l 279 1185 l 419 1078 l 561 1185 l 592 1150 l 463 1003 z "},"ř":{"ha":575,"x_min":64,"x_max":567,"o":"m 443 661 q 530 632 493 661 q 567 558 567 603 q 547 488 567 514 q 498 461 526 461 q 449 473 469 461 q 422 504 428 485 q 436 543 436 518 q 397 585 436 585 q 319 528 358 585 q 279 408 279 472 l 279 86 q 389 47 317 61 l 383 0 l 64 0 l 69 50 q 161 86 126 60 l 161 482 q 140 552 161 533 q 64 574 118 571 l 68 614 q 238 661 86 617 l 263 649 l 276 551 q 443 661 350 661 m 358 725 q 316 703 340 703 q 272 725 292 703 l 144 872 l 175 907 l 315 800 l 457 907 l 488 872 l 358 725 z "},"Ś":{"ha":689,"x_min":72,"x_max":642,"o":"m 533 690 q 472 828 513 788 q 359 868 432 868 q 242 830 286 868 q 197 732 197 792 q 243 626 197 672 q 354 548 289 581 q 485 480 419 515 q 596 385 550 444 q 642 244 642 325 q 556 59 642 128 q 324 -10 469 -10 q 187 13 264 -10 q 72 63 110 35 l 72 290 q 140 297 103 297 q 190 92 157 164 q 337 60 254 60 q 467 104 419 60 q 515 215 515 149 q 470 326 515 281 q 361 402 425 371 q 233 468 297 433 q 124 562 169 503 q 79 701 79 621 q 156 873 79 807 q 357 939 233 939 q 614 876 515 939 l 593 690 q 561 686 576 686 q 533 690 546 686 m 419 1175 q 460 1199 438 1199 q 499 1184 483 1199 q 514 1148 514 1169 q 479 1096 514 1126 l 335 981 l 304 1014 l 419 1175 z "},"ś":{"ha":597,"x_min":71,"x_max":526,"o":"m 418 457 q 386 567 413 531 q 300 604 360 604 q 208 579 240 604 q 176 511 176 554 q 213 440 176 468 q 300 395 249 413 q 403 358 351 378 q 490 295 454 338 q 526 189 526 253 q 461 44 526 96 q 278 -8 396 -8 q 166 8 229 -8 q 71 44 103 24 l 71 215 l 144 225 q 182 68 153 124 q 286 54 226 54 q 382 85 346 54 q 418 159 418 115 q 383 229 418 203 q 297 272 347 256 q 194 308 246 288 q 108 372 143 328 q 72 490 72 415 q 134 613 72 565 q 312 660 196 660 q 503 624 428 660 l 490 457 l 418 457 m 365 897 q 406 921 383 921 q 444 906 429 921 q 460 870 460 892 q 425 818 460 849 l 281 703 l 250 736 l 365 897 z "},"Ŝ":{"ha":689,"x_min":72,"x_max":642,"o":"m 533 690 q 472 828 513 788 q 359 868 432 868 q 242 830 286 868 q 197 732 197 792 q 243 626 197 672 q 354 548 289 581 q 485 480 419 515 q 596 385 550 444 q 642 244 642 325 q 556 59 642 128 q 324 -10 469 -10 q 187 13 264 -10 q 72 63 110 35 l 72 290 q 140 297 103 297 q 190 92 157 164 q 337 60 254 60 q 467 104 419 60 q 515 215 515 149 q 470 326 515 281 q 361 402 425 371 q 233 468 297 433 q 124 562 169 503 q 79 701 79 621 q 156 873 79 807 q 357 939 233 939 q 614 876 515 939 l 593 690 q 561 686 576 686 q 533 690 546 686 m 311 1163 q 355 1185 331 1185 q 397 1163 379 1185 l 525 1014 l 493 981 l 353 1088 l 213 981 l 182 1014 l 311 1163 z "},"ŝ":{"ha":597,"x_min":71,"x_max":526,"o":"m 418 457 q 386 567 413 531 q 300 604 360 604 q 208 579 240 604 q 176 511 176 554 q 213 440 176 468 q 300 395 249 413 q 403 358 351 378 q 490 295 454 338 q 526 189 526 253 q 461 44 526 96 q 278 -8 396 -8 q 166 8 229 -8 q 71 44 103 24 l 71 215 l 144 225 q 182 68 153 124 q 286 54 226 54 q 382 85 346 54 q 418 159 418 115 q 383 229 418 203 q 297 272 347 256 q 194 308 246 288 q 108 372 143 328 q 72 490 72 415 q 134 613 72 565 q 312 660 196 660 q 503 624 428 660 l 490 457 l 418 457 m 257 885 q 301 907 276 907 q 343 885 325 907 l 471 736 l 439 703 l 299 810 l 158 703 l 128 736 l 257 885 z "},"Ş":{"ha":689,"x_min":72,"x_max":642,"o":"m 324 -10 q 187 13 264 -10 q 72 63 110 35 l 72 290 q 140 297 103 297 q 190 92 157 164 q 337 60 254 60 q 467 104 419 60 q 515 215 515 149 q 470 326 515 281 q 361 402 425 371 q 233 468 297 433 q 124 562 169 503 q 79 701 79 621 q 156 873 79 807 q 357 939 233 939 q 614 876 515 939 l 593 690 q 561 686 576 686 q 533 690 546 686 q 472 828 513 788 q 359 868 432 868 q 242 830 286 868 q 197 732 197 792 q 243 626 197 672 q 354 548 289 581 q 485 480 419 515 q 596 385 550 444 q 642 233 642 325 q 574 76 642 142 q 389 -6 506 10 l 368 -64 q 447 -99 419 -74 q 474 -172 474 -124 q 436 -251 474 -219 q 339 -283 399 -283 q 247 -256 279 -283 q 215 -199 215 -228 q 228 -153 215 -169 q 257 -137 240 -137 q 286 -143 274 -137 q 281 -181 281 -162 q 299 -219 281 -200 q 343 -237 317 -237 q 403 -168 403 -237 q 326 -106 403 -117 l 301 -78 l 343 -10 l 324 -10 z "},"ş":{"ha":597,"x_min":71,"x_max":526,"o":"m 299 -7 l 278 -8 q 166 8 229 -8 q 71 44 103 24 l 71 215 l 144 225 q 182 68 153 124 q 286 54 226 54 q 382 85 346 54 q 418 159 418 115 q 383 229 418 203 q 297 272 347 256 q 194 308 246 288 q 108 372 143 328 q 72 490 72 415 q 134 613 72 565 q 312 660 196 660 q 503 624 428 660 l 490 457 l 418 457 q 386 567 413 531 q 300 604 360 604 q 208 579 240 604 q 176 511 176 554 q 213 440 176 468 q 300 395 249 413 q 403 358 351 378 q 490 295 454 338 q 526 181 526 253 q 478 59 526 108 q 343 -3 431 10 l 322 -64 q 401 -99 374 -74 q 428 -172 428 -124 q 390 -251 428 -219 q 293 -283 353 -283 q 201 -256 233 -283 q 169 -199 169 -228 q 182 -153 169 -169 q 211 -137 194 -137 q 240 -143 228 -137 q 235 -181 235 -162 q 253 -219 235 -200 q 297 -237 272 -237 q 357 -168 357 -237 q 281 -106 357 -117 l 256 -78 l 299 -7 z "},"Š":{"ha":689,"x_min":72,"x_max":642,"o":"m 533 690 q 472 828 513 788 q 359 868 432 868 q 242 830 286 868 q 197 732 197 792 q 243 626 197 672 q 354 548 289 581 q 485 480 419 515 q 596 385 550 444 q 642 244 642 325 q 556 59 642 128 q 324 -10 469 -10 q 187 13 264 -10 q 72 63 110 35 l 72 290 q 140 297 103 297 q 190 92 157 164 q 337 60 254 60 q 467 104 419 60 q 515 215 515 149 q 470 326 515 281 q 361 402 425 371 q 233 468 297 433 q 124 562 169 503 q 79 701 79 621 q 156 873 79 807 q 357 939 233 939 q 614 876 515 939 l 593 690 q 561 686 576 686 q 533 690 546 686 m 396 1003 q 353 981 378 981 q 310 1003 329 981 l 182 1150 l 213 1185 l 353 1078 l 494 1185 l 525 1150 l 396 1003 z "},"š":{"ha":597,"x_min":71,"x_max":526,"o":"m 418 457 q 386 567 413 531 q 300 604 360 604 q 208 579 240 604 q 176 511 176 554 q 213 440 176 468 q 300 395 249 413 q 403 358 351 378 q 490 295 454 338 q 526 189 526 253 q 461 44 526 96 q 278 -8 396 -8 q 166 8 229 -8 q 71 44 103 24 l 71 215 l 144 225 q 182 68 153 124 q 286 54 226 54 q 382 85 346 54 q 418 159 418 115 q 383 229 418 203 q 297 272 347 256 q 194 308 246 288 q 108 372 143 328 q 72 490 72 415 q 134 613 72 565 q 312 660 196 660 q 503 624 428 660 l 490 457 l 418 457 m 342 725 q 299 703 324 703 q 256 725 275 703 l 128 872 l 158 907 l 299 800 l 440 907 l 471 872 l 342 725 z "},"Ţ":{"ha":824,"x_min":56,"x_max":768,"o":"m 117 693 l 83 692 q 56 693 65 692 l 56 932 q 476 926 239 926 q 768 932 713 926 l 768 693 q 738 692 758 692 q 707 693 718 692 q 657 853 697 793 q 474 864 567 863 l 474 89 q 610 51 522 63 q 603 0 604 18 l 217 0 l 225 51 q 351 89 307 61 l 351 864 q 169 854 244 863 q 117 693 119 785 m 347 -275 q 372 -159 372 -210 q 342 -82 372 -108 q 395 -51 363 -51 q 447 -69 428 -51 q 467 -117 467 -87 q 390 -293 467 -192 l 347 -275 z "},"ţ":{"ha":469,"x_min":32,"x_max":463,"o":"m 463 38 q 302 -14 393 -14 q 178 25 211 -14 q 144 157 144 64 l 144 574 l 32 574 l 32 615 q 210 783 167 661 l 265 783 l 265 649 l 443 649 l 443 574 l 264 574 l 264 147 q 277 74 264 96 q 338 51 290 51 q 435 79 385 51 l 463 38 m 218 -275 q 243 -159 243 -210 q 213 -82 243 -108 q 266 -51 233 -51 q 318 -69 299 -51 q 338 -117 338 -87 q 261 -293 338 -192 l 218 -275 z "},"Ť":{"ha":824,"x_min":56,"x_max":768,"o":"m 117 693 l 83 692 q 56 693 65 692 l 56 932 q 476 926 239 926 q 768 932 713 926 l 768 693 q 738 692 758 692 q 707 693 718 692 q 657 853 697 793 q 474 864 567 863 l 474 89 q 610 51 522 63 q 603 0 604 18 l 217 0 l 225 51 q 351 89 307 61 l 351 864 q 169 854 244 863 q 117 693 119 785 m 454 1003 q 412 981 436 981 q 368 1003 388 981 l 240 1150 l 271 1185 l 411 1078 l 553 1185 l 583 1150 l 454 1003 z "},"ť":{"ha":626,"x_min":32,"x_max":535,"o":"m 415 703 q 440 819 440 768 q 410 896 440 869 q 463 926 431 926 q 515 908 496 926 q 535 861 535 890 q 458 685 535 786 l 415 703 m 463 38 q 302 -14 393 -14 q 178 25 211 -14 q 144 157 144 64 l 144 574 l 32 574 l 32 615 q 210 783 167 661 l 265 783 l 265 649 l 443 649 l 443 574 l 264 574 l 264 147 q 277 74 264 96 q 338 51 290 51 q 435 79 385 51 l 463 38 z "},"Ŧ":{"ha":824,"x_min":56,"x_max":768,"o":"m 117 693 l 83 692 q 56 693 65 692 l 56 932 q 476 926 239 926 q 768 932 713 926 l 768 693 q 738 692 758 692 q 707 693 718 692 q 657 853 697 793 q 474 864 567 863 l 474 486 l 647 486 l 647 425 l 474 425 l 474 89 q 610 51 522 63 q 603 0 604 18 l 217 0 l 225 51 q 351 89 307 61 l 351 425 l 178 425 l 178 486 l 351 486 l 351 864 q 169 854 244 863 q 117 693 119 785 z "},"ŧ":{"ha":490,"x_min":42,"x_max":472,"o":"m 51 333 l 51 394 l 154 394 l 154 574 l 42 574 l 42 615 q 219 783 176 661 l 275 783 l 275 649 l 453 649 l 453 574 l 274 574 l 274 394 l 438 394 l 438 333 l 274 333 l 274 147 q 287 74 274 96 q 347 51 300 51 q 444 79 394 51 l 472 38 q 312 -14 403 -14 q 188 25 221 -14 q 154 157 154 64 l 154 333 l 51 333 z "},"Ũ":{"ha":900,"x_min":-11,"x_max":910,"o":"m 775 300 q 694 71 775 151 q 448 -10 613 -10 q 203 63 283 -10 q 124 292 124 135 l 124 839 q -11 876 69 867 l -6 926 l 383 926 l 375 876 q 250 839 296 863 l 250 292 q 301 116 250 169 q 460 63 351 63 q 628 124 569 63 q 686 300 686 185 l 686 839 q 551 876 635 867 q 558 926 553 893 l 910 926 l 903 876 q 775 839 821 863 l 775 300 m 232 1044 q 283 1118 247 1083 q 361 1153 319 1153 q 453 1128 403 1153 q 536 1104 503 1104 q 621 1156 569 1104 q 667 1129 644 1147 q 613 1054 650 1090 q 535 1018 576 1018 q 444 1042 494 1018 q 360 1067 394 1067 q 276 1018 325 1067 q 232 1044 254 1024 z "},"ũ":{"ha":767,"x_min":33,"x_max":729,"o":"m 353 -10 q 129 214 129 -10 l 129 485 q 108 555 129 536 q 33 576 88 574 l 36 617 q 221 665 83 625 l 249 651 l 249 199 q 368 53 249 53 q 444 80 404 53 q 515 163 485 107 l 515 485 q 494 555 515 536 q 418 576 472 574 l 422 617 q 607 665 469 625 l 633 651 l 633 86 q 729 49 664 60 l 725 0 l 540 0 l 526 88 q 353 -10 454 -10 m 164 767 q 215 840 179 806 q 293 875 251 875 q 385 851 335 875 q 468 826 435 826 q 553 878 501 826 q 599 851 576 869 q 545 776 582 813 q 468 740 508 740 q 377 765 428 740 q 292 789 326 789 q 208 740 257 789 q 164 767 186 746 z "},"Ū":{"ha":900,"x_min":-11,"x_max":910,"o":"m 775 300 q 694 71 775 151 q 448 -10 613 -10 q 203 63 283 -10 q 124 292 124 135 l 124 839 q -11 876 69 867 l -6 926 l 383 926 l 375 876 q 250 839 296 863 l 250 292 q 301 116 250 169 q 460 63 351 63 q 628 124 569 63 q 686 300 686 185 l 686 839 q 551 876 635 867 q 558 926 553 893 l 910 926 l 903 876 q 775 839 821 863 l 775 300 m 256 1028 l 256 1089 l 642 1089 l 642 1028 l 256 1028 z "},"ū":{"ha":767,"x_min":33,"x_max":729,"o":"m 353 -10 q 129 214 129 -10 l 129 485 q 108 555 129 536 q 33 576 88 574 l 36 617 q 221 665 83 625 l 249 651 l 249 199 q 368 53 249 53 q 444 80 404 53 q 515 163 485 107 l 515 485 q 494 555 515 536 q 418 576 472 574 l 422 617 q 607 665 469 625 l 633 651 l 633 86 q 729 49 664 60 l 725 0 l 540 0 l 526 88 q 353 -10 454 -10 m 188 764 l 188 825 l 574 825 l 574 764 l 188 764 z "},"Ŭ":{"ha":900,"x_min":-11,"x_max":910,"o":"m 775 300 q 694 71 775 151 q 448 -10 613 -10 q 203 63 283 -10 q 124 292 124 135 l 124 839 q -11 876 69 867 l -6 926 l 383 926 l 375 876 q 250 839 296 863 l 250 292 q 301 116 250 169 q 460 63 351 63 q 628 124 569 63 q 686 300 686 185 l 686 839 q 551 876 635 867 q 558 926 553 893 l 910 926 l 903 876 q 775 839 821 863 l 775 300 m 563 1026 q 541 1003 563 1026 q 449 981 518 981 q 335 1026 379 981 q 286 1144 290 1071 q 340 1154 315 1154 q 373 1083 343 1110 q 449 1056 403 1056 q 526 1083 496 1056 q 558 1154 556 1110 q 611 1146 589 1154 q 563 1026 608 1071 z "},"ŭ":{"ha":767,"x_min":33,"x_max":729,"o":"m 353 -10 q 129 214 129 -10 l 129 485 q 108 555 129 536 q 33 576 88 574 l 36 617 q 221 665 83 625 l 249 651 l 249 199 q 368 53 249 53 q 444 80 404 53 q 515 163 485 107 l 515 485 q 494 555 515 536 q 418 576 472 574 l 422 617 q 607 665 469 625 l 633 651 l 633 86 q 729 49 664 60 l 725 0 l 540 0 l 526 88 q 353 -10 454 -10 m 495 762 q 473 739 495 762 q 381 717 450 717 q 267 762 311 717 q 218 881 222 807 q 272 890 247 890 q 305 819 275 846 q 381 792 335 792 q 458 819 428 792 q 490 890 488 846 q 543 882 519 890 q 495 762 540 807 z "},"Ů":{"ha":900,"x_min":-11,"x_max":910,"o":"m 775 300 q 694 71 775 151 q 448 -10 613 -10 q 203 63 283 -10 q 124 292 124 135 l 124 839 q -11 876 69 867 l -6 926 l 383 926 l 375 876 q 250 839 296 863 l 250 292 q 301 116 250 169 q 460 63 351 63 q 628 124 569 63 q 686 300 686 185 l 686 839 q 551 876 635 867 q 558 926 553 893 l 910 926 l 903 876 q 775 839 821 863 l 775 300 m 535 1011 q 518 995 535 1011 q 449 979 501 979 q 363 1011 396 979 q 331 1094 331 1043 q 363 1176 331 1144 q 448 1208 394 1208 q 535 1176 501 1208 q 568 1093 568 1143 q 535 1011 568 1043 m 406 1051 q 415 1042 406 1051 q 449 1033 424 1033 q 492 1051 474 1033 q 511 1094 511 1069 q 492 1137 511 1118 q 449 1156 474 1156 q 406 1137 424 1156 q 389 1093 389 1118 q 406 1051 389 1068 z "},"ů":{"ha":767,"x_min":33,"x_max":729,"o":"m 353 -10 q 129 214 129 -10 l 129 485 q 108 555 129 536 q 33 576 88 574 l 36 617 q 221 665 83 625 l 249 651 l 249 199 q 368 53 249 53 q 444 80 404 53 q 515 163 485 107 l 515 485 q 494 555 515 536 q 418 576 472 574 l 422 617 q 607 665 469 625 l 633 651 l 633 86 q 729 49 664 60 l 725 0 l 540 0 l 526 88 q 353 -10 454 -10 m 467 733 q 450 717 467 733 q 381 701 433 701 q 295 733 328 701 q 263 816 263 765 q 295 899 263 867 q 381 931 328 931 q 467 898 433 931 q 500 815 500 865 q 467 733 500 765 m 338 773 q 347 764 338 773 q 381 756 356 756 q 424 774 406 756 q 443 816 443 792 q 424 859 443 840 q 381 878 406 878 q 338 859 356 878 q 321 815 321 840 q 338 773 321 790 z "},"Ű":{"ha":900,"x_min":-11,"x_max":910,"o":"m 775 300 q 694 71 775 151 q 448 -10 613 -10 q 203 63 283 -10 q 124 292 124 135 l 124 839 q -11 876 69 867 l -6 926 l 383 926 l 375 876 q 250 839 296 863 l 250 292 q 301 116 250 169 q 460 63 351 63 q 628 124 569 63 q 686 300 686 185 l 686 839 q 551 876 635 867 q 558 926 553 893 l 910 926 l 903 876 q 775 839 821 863 l 775 300 m 422 1169 q 464 1199 438 1199 q 505 1185 490 1199 q 519 1149 519 1171 q 492 1099 519 1126 l 369 981 l 339 1014 l 422 1169 m 588 1172 q 630 1194 608 1194 q 666 1178 651 1194 q 681 1139 681 1163 q 644 1090 681 1115 l 510 981 l 479 1014 l 588 1172 z "},"ű":{"ha":767,"x_min":33,"x_max":729,"o":"m 353 -10 q 129 214 129 -10 l 129 485 q 108 555 129 536 q 33 576 88 574 l 36 617 q 221 665 83 625 l 249 651 l 249 199 q 368 53 249 53 q 444 80 404 53 q 515 163 485 107 l 515 485 q 494 555 515 536 q 418 576 472 574 l 422 617 q 607 665 469 625 l 633 651 l 633 86 q 729 49 664 60 l 725 0 l 540 0 l 526 88 q 353 -10 454 -10 m 354 892 q 396 921 369 921 q 437 907 422 921 q 451 871 451 893 q 424 821 451 849 l 301 703 l 271 736 l 354 892 m 519 894 q 562 917 540 917 q 598 901 583 917 q 613 861 613 885 q 576 813 613 838 l 442 703 l 411 736 l 519 894 z "},"Ų":{"ha":900,"x_min":-11,"x_max":910,"o":"m 775 300 q 557 0 775 50 l 560 0 q 469 -64 501 -18 q 436 -154 436 -110 q 494 -221 436 -221 q 563 -200 525 -221 l 586 -229 q 463 -283 536 -283 q 377 -256 413 -283 q 342 -179 342 -228 q 376 -89 342 -132 q 412 -47 389 -74 q 443 -10 435 -21 q 199 67 275 -6 q 124 292 124 139 l 124 839 q -11 876 69 867 l -6 926 l 383 926 l 375 876 q 250 839 296 863 l 250 292 q 301 116 250 169 q 460 63 351 63 q 628 124 569 63 q 686 300 686 185 l 686 839 q 551 876 635 867 q 558 926 553 893 l 910 926 l 903 876 q 775 839 821 863 l 775 300 z "},"ų":{"ha":767,"x_min":33,"x_max":729,"o":"m 654 0 q 551 -51 592 0 q 510 -154 510 -103 q 568 -221 510 -221 q 636 -200 599 -221 l 660 -229 q 536 -283 610 -283 q 451 -256 486 -283 q 415 -185 415 -228 q 445 -102 415 -143 q 504 -27 475 -61 q 533 23 533 7 q 525 86 533 39 q 353 -10 453 -10 q 129 214 129 -10 l 129 485 q 108 555 129 536 q 33 576 88 574 l 36 617 q 221 665 83 625 l 249 651 l 249 199 q 368 53 249 53 q 444 80 404 53 q 515 163 485 107 l 515 485 q 494 555 515 536 q 418 576 472 574 l 422 617 q 607 665 469 625 l 633 651 l 633 86 q 729 49 664 60 l 725 0 l 654 0 z "},"Ŵ":{"ha":1279,"x_min":28,"x_max":1251,"o":"m 1251 926 l 1243 876 q 1160 842 1197 868 l 919 0 l 853 0 l 639 642 l 444 0 l 378 0 l 111 840 q 28 876 81 864 l 33 926 l 371 926 l 363 876 q 243 839 290 867 l 426 221 l 633 926 l 678 926 l 900 224 l 1065 839 q 939 876 1010 868 l 946 926 l 1251 926 m 597 1163 q 641 1185 617 1185 q 683 1163 665 1185 l 811 1014 l 779 981 l 639 1088 l 499 981 l 468 1014 l 597 1163 z "},"ŵ":{"ha":1075,"x_min":14,"x_max":1063,"o":"m 304 0 l 113 549 q 14 607 97 590 l 17 649 l 326 649 l 322 607 q 236 576 261 599 l 369 144 l 525 625 l 579 625 l 749 143 l 878 576 q 796 607 851 597 l 800 649 l 1063 649 l 1058 607 q 965 565 975 590 l 767 0 l 682 0 l 533 404 l 390 0 l 304 0 m 496 885 q 540 907 515 907 q 582 885 564 907 l 710 736 l 678 703 l 538 810 l 397 703 l 367 736 l 496 885 z "},"Ŷ":{"ha":792,"x_min":15,"x_max":778,"o":"m 196 0 l 203 51 q 338 89 289 61 l 338 368 l 101 840 q 15 876 68 865 l 22 926 l 365 926 q 358 876 360 893 q 238 839 286 867 l 411 476 l 589 840 q 465 876 536 868 q 472 926 467 893 l 778 926 l 769 876 q 685 840 719 867 l 460 385 l 460 89 q 601 51 507 63 l 596 0 l 196 0 m 368 1163 q 412 1185 388 1185 q 454 1163 436 1185 l 582 1014 l 550 981 l 410 1088 l 269 981 l 239 1014 l 368 1163 z "},"ŷ":{"ha":700,"x_min":-10,"x_max":700,"o":"m 360 -117 q 281 -260 325 -218 q 177 -303 238 -303 q 81 -273 117 -303 q 44 -201 44 -243 q 64 -137 44 -158 q 110 -117 83 -117 q 161 -132 138 -117 q 144 -178 144 -156 q 157 -215 144 -201 q 194 -228 169 -228 q 288 -101 246 -228 l 317 -11 l 89 547 q -10 606 71 592 l -7 649 l 296 649 l 292 607 q 210 576 239 603 l 371 153 l 508 576 q 426 607 478 600 l 429 649 l 700 649 l 697 607 q 596 565 606 593 l 360 -117 m 303 885 q 347 907 322 907 q 389 885 371 907 l 517 736 l 485 703 l 344 810 l 204 703 l 174 736 l 303 885 z "},"Ÿ":{"ha":792,"x_min":15,"x_max":778,"o":"m 196 0 l 203 51 q 338 89 289 61 l 338 368 l 101 840 q 15 876 68 865 l 22 926 l 365 926 q 358 876 360 893 q 238 839 286 867 l 411 476 l 589 840 q 465 876 536 868 q 472 926 467 893 l 778 926 l 769 876 q 685 840 719 867 l 460 385 l 460 89 q 601 51 507 63 l 596 0 l 196 0 m 360 1084 q 360 1048 360 1084 q 294 1011 360 1011 q 229 1084 229 1011 q 294 1157 229 1157 q 360 1084 360 1157 m 525 1011 q 461 1084 461 1011 q 525 1157 461 1157 q 592 1084 592 1157 q 525 1011 592 1011 z "},"Ź":{"ha":747,"x_min":53,"x_max":693,"o":"m 136 697 l 107 696 q 83 697 90 696 l 67 900 l 103 933 q 381 926 269 926 q 681 933 493 926 l 693 878 l 200 72 q 356 71 238 71 q 540 72 474 71 q 632 251 606 150 q 660 254 649 254 q 692 251 672 254 l 679 -4 q 340 0 583 0 q 57 -6 96 0 l 53 64 l 533 854 l 479 856 l 410 856 q 203 853 328 856 q 136 697 156 811 m 469 1174 q 510 1197 488 1197 q 549 1183 533 1197 q 564 1147 564 1168 q 529 1094 564 1125 l 385 979 l 354 1013 l 469 1174 z "},"ź":{"ha":632,"x_min":61,"x_max":563,"o":"m 103 651 l 343 649 q 553 651 458 649 l 563 601 l 200 64 q 313 63 221 63 q 438 64 406 63 q 493 192 471 110 q 524 196 510 196 q 560 193 538 196 l 550 29 l 524 -4 q 326 0 469 0 l 72 -6 l 61 53 l 421 585 q 290 590 343 590 q 192 583 236 590 q 154 471 163 547 q 116 464 136 464 q 81 469 96 464 l 68 622 l 103 651 m 378 897 q 419 921 396 921 q 457 906 442 921 q 472 870 472 892 q 438 818 472 849 l 293 703 l 263 736 l 378 897 z "},"Ż":{"ha":747,"x_min":53,"x_max":693,"o":"m 136 697 l 107 696 q 83 697 90 696 l 67 900 l 103 933 q 381 926 269 926 q 681 933 493 926 l 693 878 l 200 72 q 356 71 238 71 q 540 72 474 71 q 632 251 606 150 q 660 254 649 254 q 692 251 672 254 l 679 -4 q 340 0 583 0 q 57 -6 96 0 l 53 64 l 533 854 l 479 856 l 410 856 q 203 853 328 856 q 136 697 156 811 m 403 1168 q 440 1168 403 1168 q 476 1088 476 1168 q 403 1007 476 1007 q 331 1088 331 1007 q 403 1168 331 1168 z "},"ż":{"ha":632,"x_min":61,"x_max":563,"o":"m 103 651 l 343 649 q 553 651 458 649 l 563 601 l 200 64 q 313 63 221 63 q 438 64 406 63 q 493 192 471 110 q 524 196 510 196 q 560 193 538 196 l 550 29 l 524 -4 q 326 0 469 0 l 72 -6 l 61 53 l 421 585 q 290 590 343 590 q 192 583 236 590 q 154 471 163 547 q 116 464 136 464 q 81 469 96 464 l 68 622 l 103 651 m 312 911 q 348 911 312 911 q 385 831 385 911 q 312 750 385 750 q 239 831 239 750 q 312 911 239 911 z "},"Ž":{"ha":747,"x_min":53,"x_max":693,"o":"m 136 697 l 107 696 q 83 697 90 696 l 67 900 l 103 933 q 381 926 269 926 q 681 933 493 926 l 693 878 l 200 72 q 356 71 238 71 q 540 72 474 71 q 632 251 606 150 q 660 254 649 254 q 692 251 672 254 l 679 -4 q 340 0 583 0 q 57 -6 96 0 l 53 64 l 533 854 l 479 856 l 410 856 q 203 853 328 856 q 136 697 156 811 m 446 1001 q 403 979 428 979 q 360 1001 379 979 l 232 1149 l 263 1183 l 403 1076 l 544 1183 l 575 1149 l 446 1001 z "},"ž":{"ha":632,"x_min":61,"x_max":563,"o":"m 103 651 l 343 649 q 553 651 458 649 l 563 601 l 200 64 q 313 63 221 63 q 438 64 406 63 q 493 192 471 110 q 524 196 510 196 q 560 193 538 196 l 550 29 l 524 -4 q 326 0 469 0 l 72 -6 l 61 53 l 421 585 q 290 590 343 590 q 192 583 236 590 q 154 471 163 547 q 116 464 136 464 q 81 469 96 464 l 68 622 l 103 651 m 354 725 q 312 703 336 703 q 268 725 288 703 l 140 872 l 171 907 l 311 800 l 453 907 l 483 872 l 354 725 z "},"ſ":{"ha":388,"x_min":26,"x_max":503,"o":"m 238 819 l 254 653 l 254 86 q 346 47 281 63 l 342 0 l 39 0 l 44 50 q 136 86 103 60 l 136 579 l 33 579 l 26 628 q 136 653 99 635 l 136 728 q 187 914 136 843 q 343 985 238 985 q 503 950 449 985 l 503 817 l 426 817 q 332 933 410 933 q 263 903 289 933 q 238 819 238 874 z "},"ƒ":{"ha":779,"x_min":61,"x_max":669,"o":"m 315 -104 l 299 135 l 299 526 l 185 526 q 179 574 179 560 l 188 582 l 299 582 l 299 711 q 347 897 299 826 q 500 968 394 968 q 619 935 569 968 q 669 853 669 901 q 648 782 669 804 q 601 760 626 760 q 557 774 575 760 q 535 814 539 789 q 560 863 560 839 q 542 901 560 886 q 492 917 524 917 q 401 803 401 917 l 417 636 l 417 582 l 565 582 q 572 536 572 557 l 563 526 l 417 526 l 417 -11 q 372 -197 417 -126 q 231 -268 328 -268 q 111 -235 161 -268 q 61 -152 61 -203 q 83 -81 61 -101 q 131 -60 104 -60 q 175 -74 157 -60 q 197 -114 193 -89 q 171 -163 171 -140 q 188 -201 171 -186 q 235 -217 206 -217 q 315 -104 315 -217 z "},"Ǻ":{"ha":865,"x_min":18,"x_max":844,"o":"m 311 1013 q 343 1096 311 1064 q 428 1128 375 1128 q 515 1095 482 1128 q 549 1018 549 1063 q 474 906 549 929 l 753 86 q 844 51 788 61 l 839 0 l 492 0 l 499 51 q 626 89 579 61 l 556 299 l 275 299 l 211 89 q 346 51 257 63 l 340 0 l 18 0 l 25 51 q 124 88 88 61 l 378 908 q 311 1013 311 935 m 410 733 l 297 371 l 532 371 l 410 733 m 515 1294 q 564 1250 564 1294 q 513 1194 564 1218 l 344 1121 l 325 1154 l 474 1278 q 515 1294 493 1294 m 387 970 q 395 961 387 970 q 429 953 404 953 q 473 971 454 953 q 492 1013 492 989 q 473 1056 492 1038 q 429 1075 454 1075 q 387 1056 404 1075 q 369 1013 369 1038 q 387 970 369 988 z "},"ǻ":{"ha":678,"x_min":57,"x_max":646,"o":"m 238 -10 q 104 32 151 -10 q 57 156 57 74 q 124 291 57 239 q 317 351 190 343 l 431 360 l 431 472 q 401 574 431 542 q 307 606 372 606 q 192 543 192 606 q 233 492 192 507 q 154 425 233 425 q 96 447 118 425 q 74 515 74 469 q 113 599 74 561 q 221 653 151 638 q 199 727 199 682 q 231 805 199 772 q 317 838 264 838 q 403 805 369 838 q 436 725 436 772 q 410 647 436 678 q 549 472 549 607 l 549 85 q 646 47 581 61 l 640 0 l 449 0 l 435 63 q 238 -10 357 -10 m 179 161 q 272 47 179 47 q 431 128 346 47 l 431 303 l 319 293 q 217 252 254 288 q 179 161 179 217 m 383 1046 q 424 1069 401 1069 q 463 1055 447 1069 q 478 1019 478 1040 q 443 967 478 997 l 299 851 l 268 885 l 383 1046 m 274 680 q 283 671 274 680 q 317 663 292 663 q 360 681 342 663 q 379 723 379 699 q 360 766 379 747 q 317 785 342 785 q 274 766 292 785 q 257 722 257 747 q 274 680 257 697 z "},"Ǽ":{"ha":1203,"x_min":26,"x_max":1135,"o":"m 1103 715 q 1072 708 1085 708 q 1044 711 1058 708 q 986 853 1028 800 l 724 853 l 724 506 l 879 513 q 960 606 935 514 l 1001 606 l 1001 331 l 960 331 l 946 372 q 913 422 931 413 q 878 433 896 432 l 724 442 l 724 81 l 1019 81 q 1079 238 1061 139 q 1107 240 1099 240 q 1135 238 1115 240 l 1122 0 l 465 0 l 474 51 q 601 89 551 61 l 601 376 l 368 376 l 218 89 q 356 51 263 63 l 350 0 l 26 0 l 35 51 q 122 85 86 60 l 564 926 l 1090 926 l 1103 715 m 601 442 l 601 819 l 403 442 l 601 442 m 857 1161 q 898 1185 875 1185 q 936 1170 921 1185 q 951 1134 951 1156 q 917 1082 951 1113 l 772 967 l 742 1000 l 857 1161 z "},"ǽ":{"ha":1044,"x_min":71,"x_max":988,"o":"m 321 661 q 526 582 467 661 q 737 661 601 661 q 928 589 872 661 q 988 375 983 517 l 958 338 l 572 338 l 572 331 q 615 108 572 161 q 743 58 656 58 q 833 75 789 58 q 900 108 878 92 l 921 124 l 956 82 q 928 57 946 72 q 853 16 910 42 q 738 -10 796 -10 q 499 94 567 -10 q 251 -10 388 -10 q 118 32 165 -10 q 71 156 71 74 q 138 291 71 239 q 331 351 204 343 l 443 360 l 443 472 q 414 574 443 542 q 325 606 385 606 q 235 589 265 606 q 204 540 204 572 q 247 492 204 507 q 168 425 247 425 q 110 447 132 425 q 88 506 88 469 q 151 619 88 576 q 321 661 214 661 m 193 161 q 286 47 193 47 q 443 128 358 47 l 443 303 l 333 293 q 231 252 268 288 q 193 161 193 217 m 729 606 q 572 389 576 606 l 863 399 q 834 556 863 507 q 729 606 806 606 m 596 897 q 637 921 614 921 q 675 906 660 921 q 690 870 690 892 q 656 818 690 849 l 511 703 l 481 736 l 596 897 z "},"Ǿ":{"ha":907,"x_min":72,"x_max":833,"o":"m 454 939 q 703 861 610 939 l 768 950 l 778 950 q 814 917 792 943 l 743 819 q 833 467 833 701 q 745 112 833 233 q 454 -10 657 -10 q 199 72 289 -10 l 118 -37 l 108 -39 q 72 -6 93 -29 l 160 114 q 74 462 74 229 q 162 817 74 694 q 454 939 250 939 m 454 58 q 669 229 624 58 q 693 474 693 322 q 664 711 693 625 l 264 163 q 454 58 322 58 m 256 744 q 223 619 232 685 q 214 431 214 554 q 239 224 214 307 l 638 772 q 454 869 581 869 q 256 744 304 869 m 519 1175 q 560 1199 538 1199 q 599 1184 583 1199 q 614 1148 614 1169 q 579 1096 614 1126 l 435 981 l 404 1014 l 519 1175 z "},"ǿ":{"ha":738,"x_min":60,"x_max":663,"o":"m 133 94 q 74 333 74 176 q 148 576 74 490 q 368 661 222 661 q 557 606 485 661 l 613 672 l 624 672 q 653 644 640 661 l 592 571 q 663 325 663 488 q 588 76 663 163 q 376 -10 514 -10 q 165 57 239 -10 l 99 -24 l 90 -24 q 60 4 79 -15 l 133 94 m 363 54 q 411 54 363 54 q 499 118 458 54 q 540 305 540 182 q 521 486 540 428 l 229 133 q 363 54 268 54 m 199 326 q 211 188 199 244 l 499 535 q 368 597 458 597 q 238 534 278 597 q 199 326 199 471 m 435 897 q 476 921 453 921 q 514 906 499 921 q 529 870 529 892 q 494 818 529 849 l 350 703 l 319 736 l 435 897 z "},"ȷ":{"ha":369,"x_min":-46,"x_max":263,"o":"m 263 -46 q 186 -279 263 -232 q 96 -300 153 -300 q -3 -274 39 -300 q -46 -193 -46 -249 q -27 -139 -46 -161 q 25 -117 -8 -117 q 75 -144 58 -117 q 54 -186 54 -161 q 68 -226 54 -211 q 106 -240 82 -240 q 161 -150 161 -240 q 153 -34 161 -104 q 144 101 144 36 l 144 485 q 123 555 144 536 q 47 576 101 574 l 51 617 q 236 665 122 629 l 263 650 l 263 -46 z "},"ˆ":{"ha":396,"x_min":26,"x_max":369,"o":"m 156 910 q 199 932 175 932 q 242 910 224 932 l 369 761 l 338 728 l 197 835 l 57 728 l 26 761 l 156 910 z "},"ˇ":{"ha":396,"x_min":28,"x_max":371,"o":"m 242 750 q 199 728 224 728 q 156 750 175 728 l 28 897 l 58 932 l 199 825 l 340 932 l 371 897 l 242 750 z "},"ˉ":{"ha":396,"x_min":4,"x_max":390,"o":"m 4 792 l 4 853 l 390 853 l 390 792 l 4 792 z "},"˘":{"ha":396,"x_min":29,"x_max":354,"o":"m 306 790 q 284 767 306 790 q 192 744 261 744 q 78 790 122 744 q 29 908 33 835 q 83 918 58 918 q 116 847 86 874 q 192 819 146 819 q 269 847 239 819 q 301 918 299 874 q 354 910 331 918 q 306 790 351 835 z "},"˙":{"ha":396,"x_min":14,"x_max":160,"o":"m 87 924 q 123 924 87 924 q 160 843 160 924 q 87 763 160 763 q 14 843 14 763 q 87 924 14 924 z "},"˚":{"ha":396,"x_min":81,"x_max":318,"o":"m 285 758 q 268 742 285 758 q 199 726 251 726 q 113 758 146 726 q 81 841 81 790 q 113 924 81 892 q 198 956 144 956 q 285 923 251 956 q 318 840 318 890 q 285 758 318 790 m 156 798 q 165 789 156 798 q 199 781 174 781 q 242 799 224 781 q 261 841 261 817 q 242 884 261 865 q 199 903 224 903 q 156 884 174 903 q 139 840 139 865 q 156 798 139 815 z "},"˛":{"ha":396,"x_min":97,"x_max":342,"o":"m 192 -154 q 250 -221 192 -221 q 318 -200 281 -221 l 342 -229 q 218 -283 292 -283 q 133 -256 168 -283 q 97 -186 97 -228 q 117 -111 97 -144 q 170 -42 138 -78 q 215 14 203 -6 l 315 0 q 224 -64 257 -18 q 192 -154 192 -110 z "},"˜":{"ha":396,"x_min":14,"x_max":449,"o":"m 14 792 q 65 865 29 831 q 143 900 101 900 q 235 876 185 900 q 318 851 285 851 q 403 903 351 851 q 449 876 426 894 q 395 801 432 838 q 318 765 358 765 q 226 790 278 765 q 141 814 175 814 q 58 765 107 814 q 14 792 36 771 z "},"˝":{"ha":396,"x_min":96,"x_max":438,"o":"m 179 917 q 221 946 194 946 q 262 932 247 946 q 276 896 276 918 q 249 846 276 874 l 126 728 l 96 761 l 179 917 m 344 919 q 387 942 365 942 q 423 926 408 942 q 438 886 438 910 q 401 838 438 863 l 267 728 l 236 761 l 344 919 z "},"Ẁ":{"ha":1279,"x_min":28,"x_max":1251,"o":"m 1251 926 l 1243 876 q 1160 842 1197 868 l 919 0 l 853 0 l 639 642 l 444 0 l 378 0 l 111 840 q 28 876 81 864 l 33 926 l 371 926 l 363 876 q 243 839 290 867 l 426 221 l 633 926 l 678 926 l 900 224 l 1065 839 q 939 876 1010 868 l 946 926 l 1251 926 m 535 1096 q 500 1148 500 1126 q 515 1184 500 1169 q 553 1199 531 1199 q 594 1175 576 1199 l 710 1014 l 676 981 l 535 1096 z "},"ẁ":{"ha":1075,"x_min":14,"x_max":1063,"o":"m 304 0 l 113 549 q 14 607 97 590 l 17 649 l 326 649 l 322 607 q 236 576 261 599 l 369 144 l 525 625 l 579 625 l 749 143 l 878 576 q 796 607 851 597 l 800 649 l 1063 649 l 1058 607 q 965 565 975 590 l 767 0 l 682 0 l 533 404 l 390 0 l 304 0 m 433 818 q 399 870 399 849 q 414 906 399 892 q 452 921 429 921 q 493 897 475 921 l 608 736 l 575 703 l 433 818 z "},"Ẃ":{"ha":1279,"x_min":28,"x_max":1251,"o":"m 1251 926 l 1243 876 q 1160 842 1197 868 l 919 0 l 853 0 l 639 642 l 444 0 l 378 0 l 111 840 q 28 876 81 864 l 33 926 l 371 926 l 363 876 q 243 839 290 867 l 426 221 l 633 926 l 678 926 l 900 224 l 1065 839 q 939 876 1010 868 l 946 926 l 1251 926 m 706 1175 q 747 1199 724 1199 q 785 1184 769 1199 q 800 1148 800 1169 q 765 1096 800 1126 l 621 981 l 590 1014 l 706 1175 z "},"ẃ":{"ha":1075,"x_min":14,"x_max":1063,"o":"m 304 0 l 113 549 q 14 607 97 590 l 17 649 l 326 649 l 322 607 q 236 576 261 599 l 369 144 l 525 625 l 579 625 l 749 143 l 878 576 q 796 607 851 597 l 800 649 l 1063 649 l 1058 607 q 965 565 975 590 l 767 0 l 682 0 l 533 404 l 390 0 l 304 0 m 604 897 q 645 921 622 921 q 683 906 668 921 q 699 870 699 892 q 664 818 699 849 l 519 703 l 489 736 l 604 897 z "},"Ẅ":{"ha":1279,"x_min":28,"x_max":1251,"o":"m 1251 926 l 1243 876 q 1160 842 1197 868 l 919 0 l 853 0 l 639 642 l 444 0 l 378 0 l 111 840 q 28 876 81 864 l 33 926 l 371 926 l 363 876 q 243 839 290 867 l 426 221 l 633 926 l 678 926 l 900 224 l 1065 839 q 939 876 1010 868 l 946 926 l 1251 926 m 589 1084 q 589 1048 589 1084 q 524 1011 589 1011 q 458 1084 458 1011 q 524 1157 458 1157 q 589 1084 589 1157 m 754 1011 q 690 1084 690 1011 q 754 1157 690 1157 q 821 1084 821 1157 q 754 1011 821 1011 z "},"ẅ":{"ha":1075,"x_min":14,"x_max":1063,"o":"m 304 0 l 113 549 q 14 607 97 590 l 17 649 l 326 649 l 322 607 q 236 576 261 599 l 369 144 l 525 625 l 579 625 l 749 143 l 878 576 q 796 607 851 597 l 800 649 l 1063 649 l 1058 607 q 965 565 975 590 l 767 0 l 682 0 l 533 404 l 390 0 l 304 0 m 488 823 q 488 786 488 823 q 422 750 488 750 q 357 823 357 750 q 422 896 357 896 q 488 823 488 896 m 653 750 q 589 823 589 750 q 653 896 589 896 q 719 823 719 896 q 653 750 719 750 z "},"Ẽ":{"ha":799,"x_min":43,"x_max":713,"o":"m 681 715 q 649 708 663 708 q 621 711 635 708 q 563 853 603 803 l 301 853 l 301 506 l 458 513 q 536 606 513 514 l 581 606 l 581 331 l 536 331 q 522 381 529 364 q 498 415 515 397 q 457 433 481 432 l 301 442 l 301 81 l 597 81 q 657 238 639 139 q 682 240 674 240 q 713 238 690 240 l 700 0 l 43 0 l 51 51 q 179 89 144 63 l 179 839 q 43 876 126 867 q 50 926 49 910 l 669 926 l 681 715 m 161 1044 q 213 1118 176 1083 q 290 1153 249 1153 q 382 1128 332 1153 q 465 1104 432 1104 q 550 1156 499 1104 q 596 1129 574 1147 q 542 1054 579 1090 q 465 1018 506 1018 q 374 1042 425 1018 q 289 1067 324 1067 q 206 1018 254 1067 q 161 1044 183 1024 z "},"ẽ":{"ha":678,"x_min":83,"x_max":626,"o":"m 211 338 l 211 331 q 254 108 211 161 q 382 58 294 58 q 472 75 428 58 q 539 108 517 92 l 560 124 l 594 82 q 567 57 585 72 q 492 16 549 42 q 376 -10 435 -10 q 151 76 218 -10 q 83 323 83 161 q 158 573 83 485 q 372 661 232 661 q 567 589 511 661 q 626 375 622 517 l 597 338 l 211 338 m 368 606 q 211 389 215 606 l 501 399 q 473 557 501 508 q 368 606 444 606 m 138 767 q 189 840 153 806 q 267 875 225 875 q 358 851 308 875 q 442 826 408 826 q 526 878 475 826 q 572 851 550 869 q 519 776 556 813 q 441 740 482 740 q 350 765 400 740 q 265 789 300 789 q 182 740 231 789 q 138 767 160 746 z "},"Ỳ":{"ha":792,"x_min":15,"x_max":778,"o":"m 196 0 l 203 51 q 338 89 289 61 l 338 368 l 101 840 q 15 876 68 865 l 22 926 l 365 926 q 358 876 360 893 q 238 839 286 867 l 411 476 l 589 840 q 465 876 536 868 q 472 926 467 893 l 778 926 l 769 876 q 685 840 719 867 l 460 385 l 460 89 q 601 51 507 63 l 596 0 l 196 0 m 306 1096 q 271 1148 271 1126 q 286 1184 271 1169 q 324 1199 301 1199 q 365 1175 347 1199 l 481 1014 l 447 981 l 306 1096 z "},"ỳ":{"ha":700,"x_min":-10,"x_max":700,"o":"m 360 -117 q 281 -260 325 -218 q 177 -303 238 -303 q 81 -273 117 -303 q 44 -201 44 -243 q 64 -137 44 -158 q 110 -117 83 -117 q 161 -132 138 -117 q 144 -178 144 -156 q 157 -215 144 -201 q 194 -228 169 -228 q 288 -101 246 -228 l 317 -11 l 89 547 q -10 606 71 592 l -7 649 l 296 649 l 292 607 q 210 576 239 603 l 371 153 l 508 576 q 426 607 478 600 l 429 649 l 700 649 l 697 607 q 596 565 606 593 l 360 -117 m 240 818 q 206 870 206 849 q 221 906 206 892 q 259 921 236 921 q 300 897 282 921 l 415 736 l 382 703 l 240 818 z "},"Ỹ":{"ha":792,"x_min":15,"x_max":778,"o":"m 196 0 l 203 51 q 338 89 289 61 l 338 368 l 101 840 q 15 876 68 865 l 22 926 l 365 926 q 358 876 360 893 q 238 839 286 867 l 411 476 l 589 840 q 465 876 536 868 q 472 926 467 893 l 778 926 l 769 876 q 685 840 719 867 l 460 385 l 460 89 q 601 51 507 63 l 596 0 l 196 0 m 193 1044 q 244 1118 208 1083 q 322 1153 281 1153 q 414 1128 364 1153 q 497 1104 464 1104 q 582 1156 531 1104 q 628 1129 606 1147 q 574 1054 611 1090 q 497 1018 538 1018 q 406 1042 456 1018 q 321 1067 356 1067 q 238 1018 286 1067 q 193 1044 215 1024 z "},"ỹ":{"ha":700,"x_min":-10,"x_max":700,"o":"m 360 -117 q 281 -260 325 -218 q 177 -303 238 -303 q 81 -273 117 -303 q 44 -201 44 -243 q 64 -137 44 -158 q 110 -117 83 -117 q 161 -132 138 -117 q 144 -178 144 -156 q 157 -215 144 -201 q 194 -228 169 -228 q 288 -101 246 -228 l 317 -11 l 89 547 q -10 606 71 592 l -7 649 l 296 649 l 292 607 q 210 576 239 603 l 371 153 l 508 576 q 426 607 478 600 l 429 649 l 700 649 l 697 607 q 596 565 606 593 l 360 -117 m 128 767 q 179 840 143 806 q 257 875 215 875 q 349 851 299 875 q 432 826 399 826 q 517 878 465 826 q 563 851 540 869 q 509 776 546 813 q 432 740 472 740 q 340 765 392 740 q 255 789 289 789 q 172 740 221 789 q 128 767 150 746 z "},"–":{"ha":694,"x_min":53,"x_max":642,"o":"m 53 319 l 53 394 l 642 394 l 642 319 l 53 319 z "},"—":{"ha":1389,"x_min":61,"x_max":1328,"o":"m 61 319 l 61 394 l 1328 394 l 1328 319 l 61 319 z "},"―":{"ha":1042,"x_min":61,"x_max":1328,"o":"m 61 319 l 61 394 l 1328 394 l 1328 319 l 61 319 z "},"‗":{"ha":515,"x_min":0,"x_max":515,"o":"m 515 -114 l 0 -114 l 0 -39 l 515 -39 l 515 -114 m 515 -250 l 0 -250 l 0 -175 l 515 -175 l 515 -250 z "},"‘":{"ha":307,"x_min":64,"x_max":236,"o":"m 236 724 q 236 707 236 724 q 213 669 236 690 q 151 649 189 649 q 88 678 113 649 q 64 756 64 707 q 175 936 64 865 l 208 901 q 169 816 169 864 q 200 768 169 768 q 221 775 211 768 q 236 724 236 757 z "},"’":{"ha":307,"x_min":71,"x_max":243,"o":"m 71 861 q 71 878 71 861 q 94 915 71 894 q 157 936 118 936 q 219 907 196 936 q 243 829 243 878 q 132 649 243 719 l 99 683 q 139 769 139 722 q 107 817 139 817 q 86 810 97 817 q 71 861 71 828 z "},"‚":{"ha":285,"x_min":54,"x_max":228,"o":"m 71 15 q 56 65 56 33 q 79 117 56 97 q 141 138 103 138 q 203 110 179 138 q 228 36 228 82 q 88 -187 228 -99 l 54 -147 q 99 -90 82 -124 q 115 -18 115 -56 q 88 19 115 19 q 71 15 81 19 z "},"‛":{"ha":307,"x_min":64,"x_max":236,"o":"m 64 829 q 88 907 64 878 q 151 936 113 936 q 213 915 189 936 q 236 861 236 894 q 221 810 236 828 q 200 817 211 817 q 169 769 169 817 q 208 683 169 721 l 175 649 q 64 829 64 719 z "},"“":{"ha":521,"x_min":64,"x_max":464,"o":"m 236 724 q 236 707 236 724 q 213 669 236 690 q 151 649 189 649 q 88 678 113 649 q 64 756 64 707 q 175 936 64 865 l 208 901 q 169 816 169 864 q 200 768 169 768 q 221 775 211 768 q 236 724 236 757 m 464 724 q 464 707 464 724 q 440 669 464 690 q 378 649 417 649 q 316 678 340 649 q 292 756 292 707 q 403 936 292 865 l 436 901 q 397 816 397 864 q 428 768 397 768 q 449 775 439 768 q 464 724 464 757 z "},"”":{"ha":521,"x_min":58,"x_max":457,"o":"m 58 861 q 58 878 58 861 q 82 915 58 894 q 144 936 106 936 q 207 907 183 936 q 231 829 231 878 q 119 649 231 719 l 86 683 q 126 769 126 722 q 94 817 126 817 q 74 810 83 817 q 58 861 58 828 m 285 861 q 285 878 285 861 q 308 915 285 894 q 371 936 332 936 q 433 907 410 936 q 457 829 457 878 q 346 649 457 719 l 313 683 q 353 769 353 722 q 321 817 353 817 q 300 810 311 817 q 285 861 285 828 z "},"„":{"ha":500,"x_min":33,"x_max":443,"o":"m 50 15 q 35 65 35 33 q 58 117 35 97 q 120 138 82 138 q 183 110 158 138 q 207 36 207 82 q 67 -187 207 -99 l 33 -147 q 78 -90 61 -124 q 94 -18 94 -56 q 67 19 94 19 q 50 15 60 19 m 286 15 q 271 65 271 33 q 294 117 271 97 q 356 138 318 138 q 419 110 394 138 q 443 36 443 82 q 303 -187 443 -99 l 269 -147 q 314 -90 297 -124 q 331 -18 331 -56 q 303 19 331 19 q 286 15 297 19 z "},"†":{"ha":718,"x_min":132,"x_max":586,"o":"m 336 672 q 240 655 286 669 q 177 640 194 640 q 146 655 160 640 q 132 691 132 669 q 146 727 132 713 q 177 742 160 742 q 240 727 194 742 q 336 711 285 713 q 313 796 333 749 q 293 864 293 843 q 312 904 293 885 q 357 924 331 924 q 403 903 383 924 q 424 863 424 883 q 403 795 424 842 q 378 711 382 749 q 474 727 426 713 q 540 742 522 742 q 572 727 558 742 q 586 691 586 713 q 572 655 586 669 q 540 640 558 640 q 474 656 522 640 q 379 672 426 671 q 418 550 385 608 l 429 531 q 378 0 378 167 l 338 0 q 285 531 338 185 q 336 672 328 603 z "},"‡":{"ha":718,"x_min":132,"x_max":586,"o":"m 336 203 q 240 186 286 200 q 177 172 194 172 q 146 186 160 172 q 132 222 132 200 q 146 258 132 244 q 177 272 160 272 q 240 257 194 272 q 335 240 285 242 q 306 319 329 281 l 297 331 q 338 461 338 389 q 327 522 338 492 q 307 567 317 553 l 297 582 q 335 672 328 624 q 240 655 285 669 q 178 640 196 640 q 146 655 160 640 q 132 691 132 669 q 146 727 132 713 q 177 742 160 742 q 240 727 194 742 q 336 711 286 713 q 313 796 333 749 q 293 864 293 843 q 312 904 293 885 q 358 924 331 924 q 404 904 385 924 q 424 863 424 885 q 403 795 424 842 q 378 711 382 749 q 474 727 426 713 q 540 742 522 742 q 572 727 558 742 q 586 691 586 713 q 572 655 586 669 q 540 640 558 640 q 474 655 522 640 q 379 672 426 669 q 410 594 385 629 l 418 582 q 378 461 378 531 q 388 397 378 429 q 408 347 397 364 l 418 331 q 379 240 386 289 q 474 257 426 242 q 540 272 522 272 q 572 258 558 272 q 586 222 586 244 q 572 186 586 200 q 540 172 558 172 q 474 187 522 172 q 378 203 426 201 q 403 118 382 165 q 424 50 424 71 q 404 10 424 29 q 358 -10 385 -10 q 312 9 331 -10 q 293 49 293 28 q 313 117 293 69 q 336 203 333 164 z "},"•":{"ha":615,"x_min":189,"x_max":428,"o":"m 397 297 q 382 278 397 297 q 308 260 367 260 q 219 298 250 260 q 189 400 189 336 q 219 501 189 464 q 308 539 250 539 q 397 501 367 539 q 428 398 428 463 q 397 297 428 333 z "},"…":{"ha":1044,"x_min":163,"x_max":974,"o":"m 163 71 q 163 111 163 71 q 236 151 163 151 q 310 71 310 151 q 236 -10 310 -10 q 163 71 163 -10 m 496 71 q 496 111 496 71 q 569 151 496 151 q 643 71 643 151 q 569 -10 643 -10 q 496 71 496 -10 m 826 71 q 826 111 826 71 q 900 151 826 151 q 974 71 974 151 q 900 -10 974 -10 q 826 71 826 -10 z "},"‰":{"ha":1754,"x_min":85,"x_max":1665,"o":"m 268 -26 l 892 981 l 961 939 l 339 -68 l 268 -26 m 846 254 q 846 201 846 254 q 867 97 846 149 q 949 44 889 44 q 1031 96 1010 44 q 1051 254 1051 147 q 1031 413 1051 361 q 949 464 1010 464 q 867 412 889 464 q 846 254 846 360 m 1096 60 q 1072 25 1096 60 q 949 -10 1047 -10 q 801 60 850 -10 q 753 254 753 129 q 801 449 753 379 q 949 518 850 518 q 1096 449 1047 518 q 1144 254 1144 379 q 1096 60 1144 129 m 1367 254 q 1367 201 1367 254 q 1388 97 1367 149 q 1470 44 1410 44 q 1551 96 1531 44 q 1572 254 1572 147 q 1551 413 1572 361 q 1470 464 1531 464 q 1388 412 1410 464 q 1367 254 1367 360 m 1617 60 q 1592 25 1617 60 q 1469 -10 1568 -10 q 1322 60 1371 -10 q 1274 254 1274 129 q 1322 449 1274 379 q 1469 518 1371 518 q 1617 449 1568 518 q 1665 254 1665 379 q 1617 60 1665 129 m 178 683 q 178 631 178 683 q 199 526 178 578 q 281 474 221 474 q 363 525 342 474 q 383 683 383 576 q 363 842 383 790 q 281 893 342 893 q 199 841 221 893 q 178 683 178 789 m 428 489 q 403 454 428 489 q 281 419 379 419 q 133 489 182 419 q 85 683 85 558 q 133 878 85 808 q 281 947 182 947 q 428 878 379 947 q 476 683 476 808 q 428 489 476 558 z "},"′":{"ha":329,"x_min":82,"x_max":263,"o":"m 217 936 q 263 897 263 936 q 256 869 263 883 q 206 766 250 854 q 143 649 161 678 l 82 649 q 105 772 88 690 q 131 878 122 854 q 163 919 139 901 q 217 936 188 936 z "},"″":{"ha":546,"x_min":82,"x_max":483,"o":"m 217 936 q 263 897 263 936 q 256 869 263 883 q 206 766 250 854 q 143 649 161 678 l 82 649 q 105 772 88 690 q 131 878 122 854 q 163 919 139 901 q 217 936 188 936 m 438 936 q 483 897 483 936 q 477 869 483 883 q 426 766 471 854 q 364 649 382 678 l 303 649 q 326 772 308 690 q 351 878 343 854 q 384 919 360 901 q 438 936 408 936 z "},"‹":{"ha":421,"x_min":60,"x_max":336,"o":"m 282 60 l 60 335 l 282 610 l 336 576 l 197 335 l 336 94 l 282 60 z "},"›":{"ha":421,"x_min":85,"x_max":361,"o":"m 361 335 l 139 60 l 85 94 l 222 335 l 85 576 l 139 610 l 361 335 z "},"‼":{"ha":736,"x_min":101,"x_max":614,"o":"m 138 282 l 140 563 q 115 897 140 789 q 199 921 144 921 q 275 817 275 921 q 246 577 275 771 q 210 294 217 383 l 138 282 m 101 71 q 101 111 101 71 q 175 151 101 151 q 249 71 249 151 q 175 -10 249 -10 q 101 71 101 -10 m 476 282 l 479 563 q 454 897 479 789 q 538 921 485 921 q 614 817 614 921 q 585 577 614 771 q 549 294 556 383 l 476 282 m 440 71 q 440 111 440 71 q 514 151 440 151 q 588 71 588 151 q 514 -10 588 -10 q 440 71 440 -10 z "},"‾":{"ha":515,"x_min":0,"x_max":515,"o":"m 515 958 l 0 958 l 0 1033 l 515 1033 l 515 958 z "},"⁄":{"ha":769,"x_min":186,"x_max":688,"o":"m 256 -44 l 186 -8 l 617 944 l 688 913 l 256 -44 z "},"ⁿ":{"ha":596,"x_min":67,"x_max":532,"o":"m 129 804 q 115 853 129 840 q 67 867 101 865 l 69 892 q 153 915 121 903 q 188 926 174 921 l 210 914 l 215 874 q 329 925 263 925 q 433 891 396 925 q 471 796 471 857 l 471 533 q 532 507 489 517 l 529 479 l 319 479 l 322 507 q 381 533 357 514 l 381 788 q 313 881 381 881 q 262 859 288 881 q 219 803 236 838 l 219 533 q 282 507 242 515 l 279 479 l 67 479 l 71 510 q 129 533 108 515 l 129 804 m 68 356 l 68 403 l 531 403 l 531 356 l 68 356 z "},"₣":{"ha":746,"x_min":49,"x_max":676,"o":"m 304 201 l 304 88 q 436 51 342 63 l 431 0 l 49 0 l 57 51 q 182 88 149 63 l 182 201 l 63 201 q 56 247 56 226 l 65 257 l 182 257 l 182 839 q 49 875 133 865 l 56 926 l 665 926 l 676 717 q 648 710 665 710 q 617 713 631 710 q 553 853 600 796 l 304 853 l 304 488 l 457 494 q 533 586 510 496 l 578 586 l 578 315 l 533 315 q 456 415 513 413 l 304 424 l 304 257 l 435 257 q 442 210 442 229 l 432 201 l 304 201 z "},"₤":{"ha":733,"x_min":21,"x_max":679,"o":"m 310 469 q 326 400 314 458 l 513 400 q 519 353 519 372 l 510 344 l 338 344 q 343 260 343 313 q 319 144 343 208 q 521 106 426 106 q 570 126 558 106 q 582 185 582 146 l 582 210 q 651 183 622 208 q 679 115 679 157 q 529 -10 679 -10 q 431 8 469 -10 q 381 32 393 26 q 292 85 351 44 q 139 -10 231 -10 q 55 15 89 -10 q 21 85 21 39 q 56 160 21 131 q 139 189 92 189 q 232 174 186 189 q 233 221 233 183 q 213 344 233 258 l 74 344 q 67 390 67 369 l 76 400 l 200 400 l 182 469 l 74 469 q 67 515 67 494 l 76 525 l 169 525 q 153 650 153 604 q 226 863 153 789 q 432 938 299 938 q 588 896 521 938 q 656 774 656 854 q 633 703 656 731 q 581 676 610 676 q 531 690 553 676 q 503 722 510 703 q 528 790 528 756 q 499 848 528 825 q 421 871 471 871 q 278 661 278 871 q 296 525 278 610 l 513 525 q 519 478 519 497 l 510 469 l 310 469 m 138 44 q 224 121 203 44 q 144 138 181 138 q 85 86 85 138 q 138 44 85 44 z "},"₧":{"ha":1660,"x_min":56,"x_max":1515,"o":"m 393 926 q 697 658 697 926 q 697 642 697 653 q 696 626 696 631 q 844 783 806 675 l 900 783 l 900 649 l 1199 649 q 1293 660 1243 660 q 1445 620 1382 660 q 1508 524 1508 581 q 1444 451 1508 451 q 1369 489 1394 451 q 1393 537 1393 506 q 1362 586 1393 568 q 1280 604 1331 604 q 1197 579 1229 604 q 1165 511 1165 554 q 1201 440 1165 468 q 1289 395 1238 413 q 1392 358 1340 378 q 1479 295 1443 338 q 1515 189 1515 253 q 1450 44 1515 96 q 1280 -8 1385 -8 q 1088 29 1175 -8 q 934 -14 1022 -14 q 813 25 846 -14 q 779 157 779 64 l 779 576 l 688 576 q 573 440 663 479 q 333 400 483 400 l 311 400 l 311 88 q 443 51 356 63 l 438 0 l 56 0 l 64 51 q 189 88 146 61 l 189 839 q 56 875 140 865 l 63 926 l 393 926 m 1100 97 q 1273 54 1211 54 q 1371 85 1335 54 q 1407 156 1407 115 q 1381 221 1407 196 q 1317 258 1356 246 q 1234 288 1279 271 q 1151 325 1189 306 q 1087 385 1113 344 q 1061 481 1061 425 q 1088 576 1061 538 l 899 576 l 899 147 q 912 74 899 96 q 973 51 925 51 q 1100 97 1021 51 m 393 868 q 311 861 350 868 l 311 463 l 333 463 q 572 661 572 463 q 526 816 572 764 q 393 868 479 868 z "},"€":{"ha":872,"x_min":92,"x_max":781,"o":"m 542 938 q 739 864 667 938 q 781 772 781 824 q 758 692 781 721 q 704 663 735 663 q 633 714 644 663 q 653 784 653 747 q 620 842 653 821 q 538 863 588 863 q 381 785 431 863 q 324 533 331 708 l 557 533 q 564 486 564 508 l 554 478 l 322 478 l 322 463 q 324 392 322 414 l 518 392 q 525 344 525 367 l 515 336 l 326 336 q 388 128 339 192 q 538 64 438 64 q 620 85 588 64 q 653 144 653 107 q 633 214 653 181 q 658 251 639 238 q 707 265 678 265 q 758 237 736 265 q 781 156 781 208 q 739 64 781 104 q 542 -10 667 -10 q 302 75 386 -10 q 199 336 218 160 l 99 336 q 92 382 92 361 l 100 392 l 194 392 q 193 463 193 414 l 193 478 l 99 478 q 92 524 92 503 l 100 533 l 194 533 q 542 938 219 938 z "},"℅":{"ha":1033,"x_min":39,"x_max":957,"o":"m 243 926 q 349 898 308 926 q 390 825 390 869 q 374 786 390 803 q 336 769 358 769 q 282 801 292 769 q 293 841 293 819 q 279 878 293 863 q 243 894 265 894 q 158 842 181 894 q 136 694 136 789 q 156 551 136 599 q 243 503 176 503 q 301 515 272 503 q 346 542 331 528 l 361 554 l 388 522 q 369 505 381 515 q 318 476 357 494 q 239 458 279 458 q 85 518 132 458 q 39 696 39 578 q 243 926 42 926 m 680 360 q 668 339 680 360 q 656 225 656 318 q 680 90 656 132 q 758 49 704 49 q 836 90 811 49 q 861 225 861 132 q 836 360 861 318 q 758 401 811 401 q 680 360 704 401 m 560 225 q 610 393 560 335 q 758 451 660 451 q 906 393 856 451 q 957 225 957 335 q 757 0 957 0 q 560 225 560 0 m 307 -44 l 238 -8 l 668 944 l 739 913 l 307 -44 z "},"ℓ":{"ha":719,"x_min":61,"x_max":576,"o":"m 504 49 q 493 40 504 49 q 435 10 482 31 q 348 -10 389 -10 q 283 -1 307 -10 q 245 29 260 8 q 222 69 231 50 q 211 125 214 88 q 206 257 206 178 q 162 219 201 251 q 101 171 122 186 l 61 222 q 206 344 138 275 q 277 874 213 701 q 469 1047 342 1047 q 576 875 576 1047 q 317 369 576 647 q 315 250 315 342 q 326 117 315 158 q 383 76 338 76 q 521 150 429 76 l 564 100 q 504 49 526 67 m 467 854 q 438 954 467 954 q 378 868 413 954 q 334 672 344 782 q 319 479 324 563 q 467 854 467 694 z "},"№":{"ha":1443,"x_min":35,"x_max":1353,"o":"m 1074 832 q 1062 811 1074 832 q 1050 697 1050 790 q 1074 563 1050 604 q 1153 521 1099 521 q 1231 563 1207 521 q 1256 697 1256 604 q 1231 832 1256 790 q 1153 874 1207 874 q 1074 832 1099 874 m 954 697 q 1004 865 954 807 q 1152 924 1054 924 q 1301 865 1250 924 q 1351 697 1351 807 q 1153 472 1351 472 q 954 697 954 472 m 954 356 l 954 403 l 1353 403 l 1353 356 l 954 356 m 790 0 l 731 0 l 258 715 l 258 89 q 393 51 304 63 l 388 0 l 35 0 l 43 51 q 171 89 124 61 l 171 839 q 35 876 117 867 q 42 926 40 910 l 263 926 l 700 265 l 700 839 q 567 876 651 865 q 574 926 568 893 l 925 926 q 918 876 919 893 q 790 839 842 868 l 790 0 z "},"™":{"ha":943,"x_min":10,"x_max":915,"o":"m 10 797 l 10 913 l 351 913 l 351 797 l 313 797 l 288 872 l 217 876 l 217 540 l 279 524 l 275 496 l 85 496 l 89 524 l 147 540 l 147 876 l 76 872 l 49 797 l 10 797 m 521 913 l 649 593 l 772 913 l 915 913 l 913 886 l 853 869 l 853 540 l 915 524 l 913 496 l 722 496 l 728 524 l 785 540 l 785 818 l 665 496 l 615 496 l 489 825 l 489 540 l 551 524 l 549 496 l 374 496 l 376 524 l 435 540 l 435 869 l 374 886 l 376 913 l 521 913 z "},"Ω":{"ha":943,"x_min":28,"x_max":917,"o":"m 736 521 q 667 781 736 696 q 473 867 597 867 q 278 781 349 867 q 208 521 208 696 q 268 263 208 389 q 426 54 328 136 l 433 0 l 28 0 l 28 210 q 56 215 38 215 q 82 210 75 215 q 121 81 89 143 l 311 57 q 136 257 200 132 q 72 519 72 382 q 181 828 72 719 q 472 938 290 938 q 764 828 654 938 q 874 519 874 719 q 809 257 874 382 q 633 57 744 132 l 824 81 q 864 210 856 146 q 890 215 871 215 q 917 210 908 215 l 917 0 l 510 0 l 519 54 q 676 263 617 138 q 736 521 736 389 z "},"℮":{"ha":1188,"x_min":83,"x_max":1150,"o":"m 307 439 l 307 185 q 626 49 428 49 q 804 83 729 49 q 940 190 879 117 l 1046 190 l 1046 151 q 615 -10 893 -10 q 238 122 393 -10 q 83 465 83 254 q 239 805 83 675 q 625 935 394 935 q 1003 797 856 935 q 1150 439 1150 660 l 307 439 m 935 500 l 935 735 q 790 844 860 811 q 619 876 721 876 q 448 843 518 876 q 307 735 378 810 l 307 500 l 935 500 z "},"⅛":{"ha":1235,"x_min":119,"x_max":1124,"o":"m 226 846 l 119 846 l 119 885 q 279 933 214 901 l 314 919 l 314 471 l 401 449 l 399 410 l 126 410 l 131 449 l 226 471 l 226 846 m 417 -44 l 347 -8 l 778 944 l 849 913 l 417 -44 m 940 -10 q 898 -10 940 -10 q 806 26 856 -10 q 756 136 756 63 q 849 269 756 210 q 774 385 774 308 q 820 481 774 444 q 942 518 867 518 q 1063 483 1018 518 q 1107 388 1107 449 q 1022 278 1107 326 q 1124 136 1124 226 q 1074 30 1124 69 q 940 -10 1025 -10 m 849 136 q 943 44 849 44 q 1032 136 1032 44 q 994 206 1032 181 q 917 242 967 224 l 897 249 q 849 136 849 208 m 939 469 q 921 469 939 469 q 882 449 903 469 q 861 393 861 428 q 888 340 861 358 q 968 300 914 321 q 1019 392 1019 336 q 997 449 1019 428 q 939 469 975 469 z "},"⅜":{"ha":1235,"x_min":86,"x_max":1124,"o":"m 417 -44 l 347 -8 l 778 944 l 849 913 l 417 -44 m 940 -10 q 898 -10 940 -10 q 806 26 856 -10 q 756 136 756 63 q 849 269 756 210 q 774 385 774 308 q 820 481 774 444 q 942 518 867 518 q 1063 483 1018 518 q 1107 388 1107 449 q 1022 278 1107 326 q 1124 136 1124 226 q 1074 30 1124 69 q 940 -10 1025 -10 m 849 136 q 943 44 849 44 q 1032 136 1032 44 q 994 206 1032 181 q 917 242 967 224 l 897 249 q 849 136 849 208 m 939 469 q 921 469 939 469 q 882 449 903 469 q 861 393 861 428 q 888 340 861 358 q 968 300 914 321 q 1019 392 1019 336 q 997 449 1019 428 q 939 469 975 469 m 210 656 l 210 699 q 349 801 349 703 q 328 856 349 836 q 272 875 308 875 q 217 857 236 875 q 197 817 197 839 q 207 781 197 796 q 158 761 182 761 q 120 777 133 761 q 107 821 107 793 q 154 898 107 867 q 275 929 201 929 q 394 894 349 929 q 439 801 439 858 q 339 679 439 717 q 451 549 451 647 q 399 442 451 485 q 265 400 347 400 q 135 435 183 400 q 86 525 86 469 q 103 563 86 550 q 143 576 119 576 q 192 558 167 576 q 183 514 183 538 q 206 472 183 490 q 269 454 229 454 q 358 549 358 454 q 322 626 358 597 q 215 656 285 654 l 210 656 z "},"⅝":{"ha":1235,"x_min":108,"x_max":1124,"o":"m 417 -44 l 347 -8 l 778 944 l 849 913 l 417 -44 m 940 -10 q 898 -10 940 -10 q 806 26 856 -10 q 756 136 756 63 q 849 269 756 210 q 774 385 774 308 q 820 481 774 444 q 942 518 867 518 q 1063 483 1018 518 q 1107 388 1107 449 q 1022 278 1107 326 q 1124 136 1124 226 q 1074 30 1124 69 q 940 -10 1025 -10 m 849 136 q 943 44 849 44 q 1032 136 1032 44 q 994 206 1032 181 q 917 242 967 224 l 897 249 q 849 136 849 208 m 939 469 q 921 469 939 469 q 882 449 903 469 q 861 393 861 428 q 888 340 861 358 q 968 300 914 321 q 1019 392 1019 336 q 997 449 1019 428 q 939 469 975 469 m 299 740 q 430 697 381 740 q 479 576 479 653 q 426 450 479 500 q 292 400 374 400 q 159 434 210 400 q 108 519 108 468 q 124 561 108 546 q 164 576 139 576 q 214 558 189 576 q 206 516 206 539 q 229 474 206 493 q 289 454 253 454 q 386 575 386 454 q 359 659 386 629 q 281 689 332 689 q 165 653 231 689 l 135 685 l 158 910 l 183 926 l 422 926 l 443 908 l 435 853 l 217 853 l 203 721 q 299 740 253 740 z "},"⅞":{"ha":1235,"x_min":136,"x_max":1124,"o":"m 417 -44 l 347 -8 l 778 944 l 849 913 l 417 -44 m 940 -10 q 898 -10 940 -10 q 806 26 856 -10 q 756 136 756 63 q 849 269 756 210 q 774 385 774 308 q 820 481 774 444 q 942 518 867 518 q 1063 483 1018 518 q 1107 388 1107 449 q 1022 278 1107 326 q 1124 136 1124 226 q 1074 30 1124 69 q 940 -10 1025 -10 m 849 136 q 943 44 849 44 q 1032 136 1032 44 q 994 206 1032 181 q 917 242 967 224 l 897 249 q 849 136 849 208 m 939 469 q 921 469 939 469 q 882 449 903 469 q 861 393 861 428 q 888 340 861 358 q 968 300 914 321 q 1019 392 1019 336 q 997 449 1019 428 q 939 469 975 469 m 144 822 l 136 911 l 153 926 l 478 926 l 494 888 l 297 411 l 218 411 l 408 857 l 213 857 q 199 778 200 815 l 190 775 l 160 775 l 149 776 q 144 822 149 781 z "},"←":{"ha":1111,"x_min":115,"x_max":994,"o":"m 115 519 l 115 528 l 400 644 l 289 547 l 994 571 l 994 563 l 939 524 l 994 485 l 994 476 l 289 500 l 400 403 l 115 519 z "},"↑":{"ha":417,"x_min":88,"x_max":329,"o":"m 204 919 l 213 919 l 329 635 l 232 746 l 256 40 l 247 40 l 208 96 l 169 40 l 161 40 l 185 746 l 88 635 l 204 919 z "},"→":{"ha":1111,"x_min":115,"x_max":994,"o":"m 994 528 l 994 519 l 710 403 l 821 500 l 115 476 l 115 485 l 171 524 l 115 563 l 115 571 l 821 547 l 710 644 l 994 528 z "},"↓":{"ha":417,"x_min":88,"x_max":329,"o":"m 213 39 l 204 39 l 88 324 l 185 213 l 161 918 l 169 918 l 208 863 l 247 918 l 256 918 l 232 213 l 329 324 l 213 39 z "},"↔":{"ha":1111,"x_min":39,"x_max":1071,"o":"m 1071 528 l 1071 519 l 786 403 l 882 486 l 554 500 l 228 486 l 324 403 l 39 519 l 39 528 l 324 644 l 228 560 l 554 547 l 882 560 l 786 644 l 1071 528 z "},"↕":{"ha":417,"x_min":88,"x_max":329,"o":"m 204 1053 l 213 1053 l 329 768 l 246 864 l 232 536 l 246 210 l 329 306 l 213 21 l 204 21 l 88 306 l 172 210 l 185 536 l 172 864 l 88 768 l 204 1053 z "},"↨":{"ha":417,"x_min":39,"x_max":378,"o":"m 207 1053 l 215 1053 l 332 768 l 249 864 l 235 536 l 249 210 l 332 306 l 215 21 l 207 21 l 90 306 l 175 210 l 188 536 l 175 864 l 90 768 l 207 1053 m 39 -162 l 39 -87 l 378 -87 l 378 -162 l 39 -162 z "},"∂":{"ha":757,"x_min":94,"x_max":669,"o":"m 371 -10 q 170 62 246 -10 q 94 260 94 133 q 169 465 94 388 q 363 542 243 542 q 528 499 454 542 q 439 742 510 649 q 235 885 368 835 l 253 938 q 561 742 453 888 q 669 375 669 596 q 371 -10 669 -10 m 535 417 q 386 472 472 472 q 217 260 217 472 q 258 117 217 171 q 379 63 300 63 q 497 139 458 63 q 536 383 536 215 q 535 417 536 406 z "},"∆":{"ha":828,"x_min":17,"x_max":800,"o":"m 17 0 l 351 926 l 457 926 l 800 0 l 17 0 m 381 774 l 138 74 l 628 74 l 381 774 z "},"∏":{"ha":1128,"x_min":118,"x_max":1010,"o":"m 754 847 l 374 847 l 374 88 q 507 51 418 63 l 500 0 l 118 0 l 126 51 q 251 88 208 61 l 251 839 q 118 875 203 865 l 125 926 l 1010 926 l 1001 875 q 876 839 924 865 l 876 88 q 1010 51 921 63 l 1003 0 l 621 0 l 629 51 q 754 88 711 61 l 754 847 z "},"∑":{"ha":983,"x_min":188,"x_max":803,"o":"m 774 236 l 803 235 l 790 0 l 188 0 l 188 56 l 431 474 l 201 863 l 229 926 l 771 926 l 783 717 q 744 711 758 711 q 724 713 731 711 q 658 853 704 797 l 338 853 l 560 475 l 329 79 l 681 79 q 746 235 729 142 l 774 236 z "},"−":{"ha":769,"x_min":107,"x_max":663,"o":"m 107 360 l 107 433 l 663 433 l 663 360 l 107 360 z "},"∕":{"ha":158,"x_min":-171,"x_max":331,"o":"m -101 -44 l -171 -8 l 260 944 l 331 913 l -101 -44 z "},"∙":{"ha":343,"x_min":97,"x_max":244,"o":"m 97 461 q 97 501 97 461 q 171 542 97 542 q 244 461 244 542 q 171 381 244 381 q 97 461 97 381 z "},"√":{"ha":913,"x_min":29,"x_max":953,"o":"m 953 1076 l 953 999 l 751 992 l 467 -58 l 397 -58 l 215 418 l 54 371 l 29 443 l 285 526 l 432 121 l 679 1076 l 953 1076 z "},"∞":{"ha":1182,"x_min":158,"x_max":1024,"o":"m 376 583 q 603 463 514 583 q 710 559 660 535 q 836 583 761 583 q 967 527 911 583 q 1024 388 1024 471 q 958 251 1024 306 q 804 197 893 197 q 581 318 669 197 q 361 197 481 197 q 216 251 274 197 q 158 390 158 304 q 223 529 158 475 q 376 583 288 583 m 240 391 q 240 362 240 391 q 278 294 240 333 q 367 254 317 254 q 457 280 417 254 q 554 372 497 306 q 431 515 483 493 q 375 526 406 526 q 276 488 311 526 q 240 391 240 449 m 940 390 q 940 418 940 390 q 903 487 940 447 q 815 526 865 526 q 725 501 765 526 q 626 408 685 475 q 678 329 660 354 q 731 279 696 304 q 819 254 767 254 q 906 293 871 254 q 940 390 940 332 z "},"∟":{"ha":1000,"x_min":97,"x_max":946,"o":"m 97 0 l 97 926 l 194 926 l 194 89 l 946 89 l 946 0 l 97 0 z "},"∩":{"ha":975,"x_min":97,"x_max":878,"o":"m 97 0 l 97 540 q 203 822 97 717 q 487 926 308 926 q 772 822 665 926 q 878 540 878 717 l 878 0 l 781 0 l 781 540 q 703 760 781 681 q 486 839 625 839 q 271 760 347 839 q 194 540 194 682 l 194 0 l 97 0 z "},"∫":{"ha":590,"x_min":75,"x_max":517,"o":"m 228 -8 l 228 915 q 283 1093 228 1025 q 443 1161 339 1161 q 517 1153 478 1161 l 494 1079 q 456 1082 461 1082 q 365 1051 394 1082 q 336 944 336 1019 l 336 3 q 92 -240 336 -210 l 75 -167 q 228 -8 228 -143 z "},"≈":{"ha":769,"x_min":93,"x_max":676,"o":"m 115 535 q 122 540 115 535 q 171 565 129 546 q 257 583 213 583 q 395 547 301 583 q 531 511 489 511 q 608 526 572 511 q 660 556 643 540 l 676 569 l 676 497 q 545 438 611 438 q 388 474 479 438 q 256 510 296 510 q 177 493 217 510 q 115 460 138 476 l 93 443 l 93 517 q 115 535 101 524 m 115 329 q 122 335 115 329 q 171 358 129 340 q 257 376 213 376 q 395 340 301 376 q 531 304 489 304 q 608 319 572 304 q 660 349 643 333 l 676 364 l 676 290 q 545 231 611 231 q 388 267 479 231 q 256 304 296 304 q 177 288 217 304 q 115 254 138 271 l 93 238 l 93 311 q 115 329 101 318 z "},"≠":{"ha":769,"x_min":86,"x_max":683,"o":"m 86 460 l 86 532 l 426 532 l 510 669 l 569 636 l 506 532 l 683 532 l 683 460 l 463 460 l 385 333 l 683 333 l 683 260 l 340 260 l 256 119 l 196 153 l 261 260 l 86 260 l 86 333 l 306 333 l 382 460 l 86 460 z "},"≡":{"ha":769,"x_min":86,"x_max":683,"o":"m 86 175 l 86 249 l 683 249 l 683 175 l 86 175 m 86 361 l 86 433 l 683 433 l 683 361 l 86 361 m 86 546 l 86 619 l 683 619 l 683 546 l 86 546 z "},"≤":{"ha":769,"x_min":89,"x_max":656,"o":"m 89 440 l 89 511 l 621 764 l 656 693 l 199 475 l 656 258 l 621 188 l 89 440 m 639 135 l 639 61 l 108 61 l 108 135 l 639 135 z "},"≥":{"ha":769,"x_min":114,"x_max":681,"o":"m 681 511 l 681 440 l 149 188 l 114 258 l 571 475 l 114 693 l 149 764 l 681 511 m 131 61 l 131 135 l 661 135 l 661 61 l 131 61 z "},"⌂":{"ha":972,"x_min":97,"x_max":875,"o":"m 97 0 l 97 540 l 486 929 l 875 540 l 875 0 l 97 0 m 194 88 l 778 88 l 778 499 l 486 790 l 194 499 l 194 88 z "},"⌐":{"ha":769,"x_min":54,"x_max":664,"o":"m 54 479 l 54 553 l 664 553 l 664 479 l 54 479 m 54 246 l 54 479 l 138 479 l 138 246 l 54 246 z "},"⌠":{"ha":538,"x_min":172,"x_max":461,"o":"m 281 -308 l 172 -308 l 172 915 q 228 1093 172 1025 q 388 1161 283 1161 q 461 1153 422 1161 l 439 1079 q 400 1082 406 1082 q 310 1051 339 1082 q 281 944 281 1019 l 281 -308 z "},"⌡":{"ha":508,"x_min":75,"x_max":336,"o":"m 228 1081 l 336 1081 l 336 3 q 92 -240 336 -210 l 75 -167 q 228 -8 228 -143 l 228 1081 z "},"":{"ha":285,"x_min":83,"x_max":208,"o":"m 89 -275 q 114 -159 114 -210 q 83 -82 114 -108 q 137 -51 104 -51 q 189 -69 169 -51 q 208 -117 208 -87 q 132 -293 208 -192 l 89 -275 z "},"ﬁ":{"ha":807,"x_min":26,"x_max":769,"o":"m 554 489 q 533 560 554 540 q 458 579 513 579 l 254 579 l 254 86 q 367 47 288 63 l 363 0 l 39 0 l 44 50 q 136 86 101 58 l 136 579 l 33 579 l 26 628 q 136 653 101 635 l 136 728 q 208 919 136 854 q 422 985 281 985 q 642 943 563 985 l 642 789 l 565 789 q 515 899 551 864 q 417 933 479 933 q 254 711 254 933 l 254 653 l 672 653 l 672 85 q 769 47 708 60 l 764 0 l 458 0 l 463 50 q 554 85 519 58 l 554 489 z "},"ﬂ":{"ha":797,"x_min":25,"x_max":767,"o":"m 397 983 q 536 962 460 983 q 649 940 613 940 l 669 926 l 669 83 q 767 46 703 58 l 761 -1 l 456 -1 l 460 49 q 551 83 518 58 l 551 769 q 517 894 551 856 q 396 933 483 933 q 281 871 308 933 q 254 651 254 808 l 436 651 l 436 579 l 254 579 l 254 85 q 358 47 283 63 l 354 0 l 38 0 l 43 50 q 135 85 103 60 l 135 579 l 32 579 l 25 628 q 135 651 96 635 l 135 689 q 397 983 135 983 z "}}}
